{
.appVersion = "3133";
.formatVersion = 3;
axes = (
{
name = wght;
tag = wght;
}
);
customParameters = (
{
name = "Write lastChange";
value = 0;
},
{
name = "Use Typo Metrics";
value = 1;
},
{
name = fsType;
value = (
);
}
);
date = "2022-03-16 02:33:55 +0000";
familyName = "Edu VIC WA NT Beginner";
featurePrefixes = (
{
automatic = 1;
code = "languagesystem DFLT dflt;
";
name = Languagesystems;
}
);
fontMaster = (
{
axesValues = (
400
);
customParameters = (
{
name = hheaAscender;
value = 1129;
},
{
name = hheaDescender;
value = -356;
},
{
name = hheaLineGap;
value = 0;
},
{
name = typoAscender;
value = 1129;
},
{
name = typoDescender;
value = -356;
},
{
name = typoLineGap;
value = 0;
},
{
name = winAscent;
value = 1129;
},
{
name = winDescent;
value = 368;
}
);
id = m01;
metricValues = (
{
pos = 772;
},
{
over = 5;
pos = 772;
},
{
over = 5;
pos = 675;
},
{
over = 5;
pos = 416;
},
{
over = -5;
},
{
over = -5;
pos = -356;
},
{
}
);
name = Regular;
stemValues = (
55,
59
);
userData = {
com.typemytype.robofont.compileSettings.autohint = 1;
com.typemytype.robofont.compileSettings.checkOutlines = 0;
com.typemytype.robofont.compileSettings.createDummyDSIG = 1;
com.typemytype.robofont.compileSettings.decompose = 0;
com.typemytype.robofont.compileSettings.generateFormat = 0;
com.typemytype.robofont.compileSettings.releaseMode = 0;
com.typemytype.robofont.italicSlantOffset = 0;
com.typemytype.robofont.segmentType = curve;
com.typemytype.robofont.shouldAddPointsInSplineConversion = 1;
com.typemytype.robofont.smartSets.uniqueKey = "4479870352";
com.typesupply.metricsMachine4.groupColors = {
public.kern1.H_right = (
1,
0,
0,
0.25
);
public.kern1.O_right = (
1,
0,
0.76,
0.25
);
public.kern1.V_right = (
0,
1,
1,
0.25
);
public.kern1.colon_right = (
0.5,
0,
1,
0.25
);
public.kern1.hyphen_right = (
0,
0,
1,
0.25
);
public.kern1.n_right = (
1,
1,
0,
0.25
);
public.kern1.o_right = (
0,
1,
0,
0.25
);
public.kern1.period_right = (
1,
0,
1,
0.25
);
public.kern1.quote_right = (
1,
0,

glyphs = (
{
color = 6;
glyphname = A;
layers = (
{
layerId = m01;
shapes = (
{
closed = 1;
nodes = (
(33,0,o),
(39,8,o),
(50,30,cs),
(341,599,l),
(379,684,l),
(379,594,l),
(424,29,ls),
(425,17,o),
(429,0,o),
(455,0,c),
(476,0,o),
(484,13,o),
(482,31,c),
(421,750,ls),
(419,762,o),
(412,772,o),
(392,772,cs),
(366,772,o),
(365,759,o),
(356,743,cs),
(-11,38,ls),
(-23,14,o),
(-8,0,o),
(10,0,cs)
);
},
{
closed = 1;
nodes = (
(425,361,l),
(419,412,l),
(219,412,l),
(192,361,l)
);
}
);
vertWidth = 0;
width = 535;
},
{
layerId = "140DECC1-64C4-40C0-9C07-503DBC3F4160";
shapes = (
{
closed = 1;
nodes = (
(74,0,o),
(91,10,o),
(107,39,cs),
(358,533,l),
(392,621,l),
(388,532,l),
(429,48,ls),
(431,19,o),
(450,0,o),
(487,0,cs),
(520,0,o),
(544,18,o),
(541,55,c),
(484,716,ls),
(480,753,o),
(454,772,o),
(417,772,cs),
(378,772,o),
(354,754,o),
(342,732,cs),
(-2,71,ls),
(-25,29,o),
(6,0,o),
(42,0,cs)
);
},
{
closed = 1;
nodes = (
(461,290,l),
(451,397,l),
(216,397,l),
(165,290,l)
);
}
);
vertWidth = 0;
width = 588;
}
);
unicode = 65;
},
{
color = 6;
glyphname = B;
kernLeft = H_left;
layers = (
{
layerId = m01;
shapes = (
{
closed = 1;
nodes = (
(400,0,o),
(497,63,o),
(516,194,cs),
(536,331,o),
(404,426,o),
(139,426,c),
(129,380,l),
(375,380,o),
(470,295,o),
(457,201,cs),
(442,87,o),
(316,56,o),
(106,55,c),
(222,718,l),
(404,716,o),
(513,675,o),
(500,569,cs),
(488,474,o),
(446,426,o),
(144,426,c),
(137,388,l),
(480,388,o),
(543,443,o),
(560,567,cs),
(579,707,o),
(456,772,o),
(201,772,c),
(181,772,o),
(171,764,o),
(166,740,cs),
(43,37,ls),
(39,19,o),
(49,0,o),
(65,0,cs)
);
}
);
vertWidth = 0;
width = 576;
},
{
layerId = "140DECC1-64C4-40C0-9C07-503DBC3F4160";
shapes = (
{
closed = 1;
nodes = (
(444,0,o),
(565,31,o),
(586,179,cs),
(608,347,o),
(429,425,o),
(169,425,c),
(152,329,l),
(400,329,o),
(480,286,o),
(468,200,cs),
(460,137,o),
(386,112,o),
(175,107,c),
(273,664,l),
(487,658,o),
(532,621,o),
(524,555,cs),
(516,491,o),
(503,425,o),
(175,425,c),
(159,350,l),
(484,350,o),
(624,409,o),
(643,549,cs),
(664,709,o),
(526,772,o),
(221,772,cs),
(194,772,o),
(170,763,o),
(163,723,cs),
(46,63,ls),
(40,27,o),
(65,0,o),
(96,0,cs)
);
}
);
vertWidth = 0;
width = 650;
}
);
unicode = 66;
},
{
color = 6;
glyphname = C;
kernLeft = O_left;
layers = (
{
layerId = m01;
shapes = (
{
closed = 1;
nodes = (
(375,0,o),
(455,53,o),
(523,128,cs),
(552,160,o),
(555,175,o),
(554,183,cs),
(551,197,o),
(541,204,o),
(526,204,cs),
(507,204,o),
(500,184,o),
(476,163,cs),
(411,101,o),
(352,55,o),
(274,55,cs),
(189,55,o),
(101,162,o),
(135,361,cs),
(159,498,o),
(216,718,o),
(424,718,cs),
(479,718,o),
(537,693,o),
(590,637,cs),
(606,621,o),
(623,625,o),
(632,636,cs),
(642,646,o),
(639,665,o),
(628,676,cs),
(570,737,o),
(499,772,o),
(425,772,cs),
(173,772,o),
(106,531,o),
(76,362,cs),
(34,128,o),
(159,0,o),
(273,0,cs)
);
}
);
vertWidth = 0;
width = 619;
},
{
layerId = "140DECC1-64C4-40C0-9C07-503DBC3F4160";
shapes = (
{
closed = 1;
nodes = (
(399,0,o),
(501,46,o),
(570,122,cs),
(600,154,o),
(611,170,o),
(611,192,cs),
(611,214,o),
(594,233,o),
(563,233,cs),
(544,233,o),
(520,226,o),
(492,195,cs),
(443,140,o),
(372,107,o),
(304,107,cs),
(216,107,o),
(170,215,o),
(195,361,cs),
(229,563,o),
(316,665,o),
(454,665,cs),
(508,665,o),
(546,653,o),
(584,618,cs),
(613,592,o),
(649,581,o),
(675,607,cs),
(702,634,o),
(687,669,o),
(657,696,cs),
(594,753,o),
(529,772,o),
(455,772,cs),
(251,772,o),
(124,634,o),
(76,362,cs),
(40,154,o),
(137,0,o),
(303,0,cs)
);
}
);
vertWidth = 0;
width = 672;
}
);
unicode = 67;
},
{
color = 6;
glyphname = D;
kernLeft = H_left;
kernRight = O_right;
layers = (
{
layerId = m01;
shapes = (
{
closed = 1;
nodes = (
(145,0,ls),
(373,0,o),
(565,145,o),
(600,409,cs),
(631,645,o),
(463,772,o),
(244,772,cs),
(201,772,ls),
(176,772,o),
(170,759,o),
(166,740,cs),
(42,32,ls),
(38,14,o),
(48,0,o),
(69,0,cs)
);
},
{
closed = 1;
nodes = (
(222,718,l),
(248,718,ls),
(430,718,o),
(563,608,o),
(541,417,cs),
(512,177,o),
(337,55,o),
(145,55,cs),
(107,55,l)
);
}
);
vertWidth = 0;
width = 624;
},
{
layerId = "140DECC1-64C4-40C0-9C07-503DBC3F4160";
shapes = (
{
closed = 1;
nodes = (
(192,0,ls),
(431,0,o),
(632,178,o),
(664,417,cs),
(694,637,o),
(549,772,o),
(284,772,cs),
(225,772,ls),
(188,772,o),
(170,756,o),
(164,723,cs),
(46,58,ls),
(40,26,o),
(63,0,o),
(100,0,cs)
);
},
{
closed = 1;
nodes = (
(274,666,l),
(290,666,ls),
(470,666,o),
(569,570,o),
(549,416,cs),
(526,239,o),
(373,106,o),
(192,106,cs),
(176,106,l)
);
}
);
vertWidth = 0;
width = 685;
}
);
unicode = 68;
},
{
color = 6;
glyphname = E;
kernLeft = H_left;
layers = (
{
layerId = m01;
shapes = (
{
closed = 1;
nodes = (
(467,0,ls),
(491,0,o),
(498,17,o),
(498,31,cs),
(498,45,o),
(491,55,o),
(467,55,cs),
(107,55,l),
(222,718,l),
(583,718,ls),
(607,718,o),
(614,728,o),
(614,743,cs),
(614,757,o),
(607,772,o),
(583,772,cs),
(202,772,ls),
(176,772,o),
(170,759,o),
(166,740,cs),
(42,32,ls),
(38,14,o),
(48,0,o),
(69,0,cs)
);
},
{
closed = 1;
nodes = (
(474,361,ls),
(498,361,o),
(505,374,o),
(505,388,cs),
(505,403,o),
(498,416,o),
(474,416,cs),
(140,416,l),
(131,361,l)
);
}
);
vertWidth = 0;
width = 588;
},
{
layerId = "140DECC1-64C4-40C0-9C07-503DBC3F4160";
shapes = (
{
closed = 1;
nodes = (
(503,0,ls),
(538,0,o),
(562,19,o),
(562,50,cs),
(562,78,o),
(543,106,o),
(505,106,cs),
(177,106,l),
(276,666,l),
(620,666,ls),
(656,666,o),
(681,689,o),
(681,720,cs),
(681,750,o),
(659,772,o),
(623,772,cs),
(227,772,ls),
(190,772,o),
(170,759,o),
(164,726,cs),
(46,59,ls),
(40,26,o),
(55,0,o),
(90,0,c)
);
},
{
closed = 1;
nodes = (
(524,336,ls),
(562,336,o),
(588,359,o),
(588,387,cs),
(588,418,o),
(565,437,o),
(530,437,cs),
(176,437,l),
(157,336,l)
);
}
);
vertWidth = 0;
width = 650;
}
);
unicode = 69;
},
{
color = 6;
glyphname = F;
kernLeft = H_left;
layers = (
{
layerId = m01;
shapes = (
{
closed = 1;
nodes = (
(95,0,o),
(100,18,o),
(102,30,cs),
(222,718,l),
(571,718,ls),
(595,718,o),
(602,728,o),
(602,743,cs),
(602,757,o),
(595,772,o),
(571,772,cs),
(202,772,ls),
(176,772,o),
(170,759,o),
(166,740,cs),
(42,32,ls),
(38,14,o),
(48,0,o),
(69,0,cs)
);
},
{
closed = 1;
nodes = (
(461,361,ls),
(485,361,o),
(492,374,o),
(492,388,cs),
(492,403,o),
(485,416,o),
(461,416,cs),
(137,416,l),
(128,361,l)
);
}
);
vertWidth = 0;
width = 567;
},
{
layerId = "140DECC1-64C4-40C0-9C07-503DBC3F4160";
shapes = (
{
closed = 1;
nodes = (
(137,0,o),
(163,25,o),
(169,61,cs),
(276,666,l),
(607,666,ls),
(646,666,o),
(669,693,o),
(669,718,cs),
(669,751,o),
(647,772,o),
(611,772,cs),
(225,772,ls),
(188,772,o),
(170,758,o),
(164,725,cs),
(48,64,ls),
(42,32,o),
(53,0,o),
(100,0,cs)
);
},
{
closed = 1;
nodes = (
(518,331,ls),
(556,331,o),
(576,354,o),
(576,383,cs),
(576,413,o),
(555,432,o),
(519,432,cs),
(169,432,l),
(151,331,l)
);
}
);
vertWidth = 0;
width = 638;
}
);
unicode = 70;
},
{
color = 6;
glyphname = G;
kernLeft = O_left;
layers = (
{
layerId = m01;
shapes = (
{
closed = 1;
nodes = (
(347,0,o),
(422,50,o),
(517,201,c),
(494,209,l),
(465,32,ls),
(462,18,o),
(466,1,o),
(489,0,cs),
(517,-1,o),
(523,19,o),
(525,32,cs),
(571,301,ls),
(575,321,o),
(570,333,o),
(548,333,c),
(524,333,o),
(512,316,o),
(499,285,cs),
(436,141,o),
(352,55,o),
(267,55,cs),
(160,55,o),
(105,185,o),
(135,361,cs),
(176,598,o),
(273,718,o),
(424,718,cs),
(479,718,o),
(533,694,o),
(587,638,cs),
(602,623,o),
(619,626,o),
(628,637,cs),
(638,647,o),
(636,666,o),
(625,677,cs),
(567,738,o),
(499,772,o),
(425,772,cs),
(242,772,o),
(125,634,o),
(76,362,cs),
(40,154,o),
(121,0,o),
(266,0,cs)
);
}
);
vertWidth = 0;
width = 614;
},
{
layerId = "140DECC1-64C4-40C0-9C07-503DBC3F4160";
shapes = (
{
closed = 1;
nodes = (
(378,0,o),
(440,61,o),
(505,168,c),
(484,172,l),
(463,58,ls),
(456,21,o),
(481,0,o),
(522,0,cs),
(563,0,o),
(574,21,o),
(579,50,cs),
(626,317,ls),
(632,354,o),
(613,377,o),
(576,377,cs),
(552,377,o),
(527,371,o),
(497,316,cs),
(437,211,o),
(360,107,o),
(279,107,cs),
(209,107,o),
(168,204,o),
(195,361,cs),
(229,563,o),
(316,665,o),
(454,665,cs),
(508,665,o),
(546,653,o),
(584,618,cs),
(613,592,o),
(649,581,o),
(675,607,cs),
(702,634,o),
(687,669,o),
(657,696,cs),
(594,753,o),
(529,772,o),
(455,772,cs),
(251,772,o),
(124,634,o),
(76,362,cs),
(37,138,o),
(124,0,o),
(278,0,cs)
);
}
);
vertWidth = 0;
width = 672;
}
);
unicode = 71;
},
{
color = 6;
glyphname = H;
kernLeft = H_left;
kernRight = H_right;
layers = (
{
layerId = m01;
shapes = (
{
closed = 1;
nodes = (
(95,0,o),
(100,18,o),
(102,30,cs),
(226,735,ls),
(229,757,o),
(222,772,o),
(202,772,cs),
(179,772,o),
(170,759,o),
(166,740,cs),
(42,32,ls),
(38,14,o),
(48,0,o),
(69,0,cs)
);
},
{
closed = 1;
nodes = (
(508,361,l),
(518,416,l),
(159,416,l),
(150,361,l)
);
},
{
closed = 1;
nodes = (
(491,0,o),
(498,15,o),
(500,26,cs),
(625,738,ls),
(628,758,o),
(621,772,o),
(598,772,cs),
(576,772,o),
(568,758,o),
(565,746,cs),
(441,32,ls),
(438,18,o),
(441,0,o),
(468,0,cs)
);
}
);
vertWidth = 0;
width = 614;
},
{
layerId = "140DECC1-64C4-40C0-9C07-503DBC3F4160";
shapes = (
{
closed = 1;
nodes = (
(143,0,o),
(162,24,o),
(165,48,cs),
(280,709,ls),
(287,751,o),
(266,772,o),
(232,772,cs),
(200,772,o),
(169,757,o),
(163,723,cs),
(46,58,ls),
(40,25,o),
(64,0,o),
(102,0,cs)
);
},
{
closed = 1;
nodes = (
(552,335,l),
(569,442,l),
(173,442,l),
(157,335,l)
);
},
{
closed = 1;
nodes = (
(532,0,o),
(557,20,o),
(562,44,cs),
(678,712,ls),
(685,750,o),
(661,772,o),
(624,772,cs),
(590,772,o),
(565,754,o),
(561,728,cs),
(444,58,ls),
(438,24,o),
(459,0,o),
(498,0,cs)
);
}
);
vertWidth = 0;
width = 672;
}
);
unicode = 72;
},
{
color = 6;
glyphname = I;
layers = (
{
layerId = m01;
shapes = (
{
closed = 1;
nodes = (
(158,29,l),
(284,747,l),
(223,748,l),
(97,29,l)
);
},
{
closed = 1;
nodes = (
(183,0,ls),
(207,0,o),
(214,13,o),
(214,27,cs),
(214,42,o),
(207,55,o),
(183,55,cs),
(72,55,ls),
(49,55,o),
(42,42,o),
(42,27,cs),
(42,13,o),
(49,0,o),
(72,0,cs)
);
},
{
closed = 1;
nodes = (
(307,718,ls),
(330,718,o),
(337,732,o),
(337,746,cs),
(337,760,o),
(330,772,o),
(307,772,cs),
(201,772,ls),
(177,772,o),
(170,760,o),
(170,746,cs),
(170,732,o),
(177,718,o),
(201,718,cs)
);
}
);
vertWidth = 0;
width = 328;
},
{
layerId = "140DECC1-64C4-40C0-9C07-503DBC3F4160";
shapes = (
{
closed = 1;
nodes = (
(260,46,l),
(378,727,l),
(258,727,l),
(140,46,l)
);
},
{
closed = 1;
nodes = (
(299,0,ls),
(339,0,o),
(352,24,o),
(356,52,cs),
(361,81,o),
(346,107,o),
(316,107,cs),
(105,107,ls),
(67,107,o),
(49,81,o),
(44,52,cs),
(39,24,o),
(58,0,o),
(88,0,cs)
);
},
{
closed = 1;
nodes = (
(418,665,ls),
(456,665,o),
(473,693,o),
(478,721,cs),
(482,750,o),
(462,772,o),
(435,772,cs),
(223,772,ls),
(187,772,o),
(170,750,o),
(165,721,cs),
(160,693,o),
(179,665,o),
(207,665,cs)
);
}
);
vertWidth = 0;
width = 468;
}
);
unicode = 73;
},
{
color = 6;
glyphname = J;
kernRight = H_right;
layers = (
{
layerId = m01;
shapes = (
{
closed = 1;
nodes = (
(84,0,o),
(191,5,o),
(214,8,cs),
(375,32,o),
(407,176,o),
(438,352,cs),
(508,743,l),
(448,743,l),
(379,358,ls),
(356,223,o),
(335,84,o),
(219,64,cs),
(187,58,o),
(76,55,o),
(48,55,cs),
(33,55,o),
(18,45,o),
(18,29,cs),
(18,11,o),
(33,0,o),
(48,0,cs)
);
},
{
closed = 1;
nodes = (
(658,718,ls),
(682,718,o),
(689,731,o),
(689,745,cs),
(689,759,o),
(682,772,o),
(658,772,cs),
(297,772,ls),
(273,772,o),
(266,759,o),
(266,745,cs),
(266,731,o),
(273,718,o),
(297,718,cs)
);
}
);
vertWidth = 0;
width = 677;
},
{
layerId = "140DECC1-64C4-40C0-9C07-503DBC3F4160";
shapes = (
{
closed = 1;
nodes = (
(116,0,o),
(219,2,o),
(240,5,cs),
(456,31,o),
(454,188,o),
(484,349,cs),
(549,715,l),
(428,715,l),
(366,364,ls),
(345,238,o),
(333,125,o),
(238,113,cs),
(209,109,o),
(106,107,o),
(81,107,cs),
(52,107,o),
(23,84,o),
(23,53,cs),
(23,21,o),
(52,0,o),
(81,0,cs)
);
},
{
closed = 1;
nodes = (
(661,665,ls),
(699,665,o),
(720,689,o),
(720,720,cs),
(720,753,o),
(697,772,o),
(662,772,cs),
(320,772,ls),
(283,772,o),
(260,752,o),
(260,720,cs),
(260,687,o),
(283,665,o),
(318,665,cs)
);
}
);
vertWidth = 0;
width = 714;
}
);
unicode = 74;
},
{
color = 6;
glyphname = K;
kernLeft = H_left;
layers = (
{
layerId = m01;
shapes = (
{
closed = 1;
nodes = (
(486,0,o),
(501,12,o),
(501,27,cs),
(501,36,o),
(497,44,o),
(487,57,cs),
(200,438,l),
(190,393,l),
(605,716,ls),
(619,728,o),
(627,735,o),
(627,750,cs),
(627,760,o),
(619,772,o),
(604,772,cs),
(594,773,o),
(581,769,o),
(567,757,cs),
(149,428,l),
(150,410,l),
(437,23,ls),
(446,11,o),
(456,0,o),
(472,0,cs)
);
},
{
closed = 1;
nodes = (
(95,0,o),
(101,21,o),
(103,37,cs),
(227,735,ls),
(230,757,o),
(226,772,o),
(203,772,cs),
(179,772,o),
(171,759,o),
(168,740,cs),
(43,38,ls),
(39,20,o),
(49,0,o),
(70,0,cs)
);
}
);
vertWidth = 0;
width = 556;
},
{
layerId = "140DECC1-64C4-40C0-9C07-503DBC3F4160";
shapes = (
{
closed = 1;
nodes = (
(533,0,o),
(557,26,o),
(557,56,cs),
(557,72,o),
(551,89,o),
(543,101,cs),
(305,440,l),
(295,381,l),
(651,672,ls),
(668,687,o),
(681,704,o),
(681,726,cs),
(681,750,o),
(663,772,o),
(628,772,cs),
(609,772,o),
(586,765,o),
(567,750,cs),
(185,438,l),
(184,403,l),
(443,30,ls),
(456,11,o),
(479,0,o),
(501,0,cs)
);
},
{
closed = 1;
nodes = (
(141,0,o),
(160,23,o),
(166,53,cs),
(283,709,ls),
(291,756,o),
(259,772,o),
(230,772,cs),
(200,772,o),
(171,757,o),
(165,723,cs),
(48,64,ls),
(42,29,o),
(67,0,o),
(105,0,cs)
);
}
);
vertWidth = 0;
width = 613;
}
);
unicode = 75;
},
{
color = 6;
glyphname = L;
kernLeft = H_left;
layers = (
{
layerId = m01;
shapes = (
{
closed = 1;
nodes = (
(469,0,ls),
(491,0,o),
(500,17,o),
(500,31,cs),
(500,45,o),
(491,55,o),
(469,55,cs),
(106,55,l),
(226,735,ls),
(229,757,o),
(226,772,o),
(202,772,cs),
(178,772,o),
(170,759,o),
(166,740,cs),
(42,32,ls),
(38,14,o),
(48,0,o),
(69,0,cs)
);
}
);
vertWidth = 0;
width = 555;
},
{
layerId = "140DECC1-64C4-40C0-9C07-503DBC3F4160";
shapes = (
{
closed = 1;
nodes = (
(508,0,ls),
(544,0,o),
(568,26,o),
(568,55,cs),
(568,83,o),
(544,107,o),
(508,107,cs),
(176,107,l),
(283,709,ls),
(291,759,o),
(263,772,o),
(233,772,cs),
(198,772,o),
(170,757,o),
(164,723,cs),
(46,58,ls),
(40,25,o),
(62,0,o),
(97,0,cs)
);
}
);
vertWidth = 0;
width = 619;
}
);
unicode = 76;
},
{
color = 6;
glyphname = M;
kernLeft = H_left;
kernRight = H_right;
layers = (
{
layerId = m01;
shapes = (
{
closed = 1;
nodes = (
(14,0,o),
(30,8,o),
(40,30,cs),
(373,676,l),
(361,680,l),
(410,29,ls),
(411,17,o),
(416,0,o),
(443,0,cs),
(466,0,o),
(475,20,o),
(480,29,cs),
(815,678,l),
(803,682,l),
(853,29,ls),
(854,17,o),
(860,0,o),
(885,0,cs),
(904,0,o),
(914,13,o),
(912,31,cs),
(854,739,ls),
(853,758,o),
(849,772,o),
(824,772,cs),
(798,772,o),
(791,754,o),
(784,741,cs),
(449,90,l),
(461,87,l),
(411,750,ls),
(410,759,o),
(403,772,o),
(381,772,cs),
(361,772,o),
(353,759,o),
(345,743,cs),
(-19,45,ls),
(-33,17,o),
(-18,0,o),
(1,0,cs)
);
}
);
vertWidth = 0;
width = 967;
},
{
layerId = "140DECC1-64C4-40C0-9C07-503DBC3F4160";
shapes = (
{
closed = 1;
nodes = (
(61,0,o),
(94,11,o),
(108,39,cs),
(367,545,l),
(356,549,l),
(394,48,ls),
(397,21,o),
(417,0,o),
(453,0,cs),
(500,0,o),
(512,23,o),
(519,37,cs),
(781,545,l),
(771,549,l),
(807,48,ls),
(808,23,o),
(834,0,o),
(871,0,cs),
(905,0,o),
(928,24,o),
(925,55,cs),
(871,720,ls),
(868,754,o),
(861,772,o),
(819,772,cs),
(784,772,o),
(763,758,o),
(750,732,cs),
(485,219,l),
(494,215,l),
(457,720,ls),
(455,754,o),
(441,772,o),
(392,772,cs),
(360,772,o),
(349,758,o),
(336,733,cs),
(-7,76,ls),
(-29,36,o),
(4,0,o),
(39,0,cs)
);
}
);
vertWidth = 0;
width = 977;
}
);
unicode = 77;
},
{
color = 6;
glyphname = N;
kernLeft = H_left;
kernRight = H_right;
layers = (
{
layerId = m01;
shapes = (
{
closed = 1;
nodes = (
(95,0,o),
(100,19,o),
(102,33,cs),
(216,685,l),
(198,683,l),
(440,21,ls),
(444,10,o),
(455,0,o),
(472,0,cs),
(497,0,o),
(499,18,o),
(501,30,cs),
(625,735,ls),
(628,757,o),
(625,772,o),
(602,772,cs),
(579,772,o),
(570,759,o),
(567,740,cs),
(453,99,l),
(470,101,l),
(238,748,ls),
(234,759,o),
(222,772,o),
(201,772,cs),
(176,772,o),
(170,759,o),
(166,740,cs),
(42,32,ls),
(38,14,o),
(48,0,o),
(69,0,cs)
);
}
);
vertWidth = 0;
width = 615;
},
{
layerId = "140DECC1-64C4-40C0-9C07-503DBC3F4160";
shapes = (
{
closed = 1;
nodes = (
(137,0,o),
(160,23,o),
(165,50,cs),
(248,550,l),
(234,546,l),
(449,33,ls),
(459,12,o),
(476,0,o),
(506,0,c),
(546,0,o),
(557,23,o),
(562,48,cs),
(678,709,ls),
(685,747,o),
(666,776,o),
(627,776,cs),
(594,776,o),
(567,757,o),
(561,723,cs),
(478,219,l),
(492,222,l),
(276,737,ls),
(265,762,o),
(244,772,o),
(220,772,c),
(190,772,o),
(170,756,o),
(164,723,cs),
(46,58,ls),
(40,25,o),
(63,0,o),
(97,0,cs)
);
}
);
vertWidth = 0;
width = 672;
}
);
unicode = 78;
},
{
color = 6;
glyphname = O;
kernLeft = O_left;
kernRight = O_right;
layers = (
{
layerId = m01;
shapes = (
{
closed = 1;
nodes = (
(489,0,o),
(581,304,o),
(608,460,cs),
(643,655,o),
(580,772,o),
(411,772,cs),
(200,772,o),
(109,555,o),
(81,391,cs),
(48,198,o),
(80,0,o),
(285,0,cs)
);
},
{
closed = 1;
nodes = (
(126,55,o),
(114,240,o),
(139,379,cs),
(158,482,o),
(232,718,o),
(405,718,cs),
(563,718,o),
(573,588,o),
(549,453,cs),
(526,322,o),
(422,55,o),
(284,55,cs)
);
}
);
vertWidth = 0;
width = 623;
},
{
layerId = "140DECC1-64C4-40C0-9C07-503DBC3F4160";
shapes = (
{
closed = 1;
nodes = (
(484,0,o),
(618,176,o),
(668,460,cs),
(702,655,o),
(639,772,o),
(441,772,cs),
(247,772,o),
(126,644,o),
(81,391,cs),
(39,150,o),
(128,0,o),
(315,0,cs)
);
},
{
closed = 1;
nodes = (
(213,107,o),
(169,210,o),
(198,379,cs),
(233,569,o),
(312,665,o),
(435,665,cs),
(563,665,o),
(573,588,o),
(549,453,cs),
(512,239,o),
(422,107,o),
(314,107,cs)
);
}
);
vertWidth = 0;
width = 682;
}
);
unicode = 79;
},
{
color = 6;
glyphname = P;
kernLeft = H_left;
layers = (
{
layerId = m01;
shapes = (
{
closed = 1;
nodes = (
(95,0,o),
(99,18,o),
(101,30,cs),
(222,718,l),
(456,715,o),
(548,661,o),
(536,571,cs),
(518,436,o),
(343,416,o),
(139,416,c),
(131,361,l),
(378,361,o),
(569,381,o),
(595,565,cs),
(615,710,o),
(457,772,o),
(202,772,cs),
(176,772,o),
(170,759,o),
(166,740,cs),
(42,32,ls),
(38,14,o),
(48,0,o),
(69,0,cs)
);
}
);
vertWidth = 0;
width = 590;
},
{
layerId = "140DECC1-64C4-40C0-9C07-503DBC3F4160";
shapes = (
{
closed = 1;
nodes = (
(141,0,o),
(157,20,o),
(162,46,cs),
(271,668,l),
(514,668,o),
(545,633,o),
(536,561,cs),
(523,454,o),
(358,432,o),
(173,431,c),
(159,324,l),
(392,326,o),
(621,343,o),
(651,555,cs),
(674,715,o),
(517,772,o),
(226,772,cs),
(190,772,o),
(169,757,o),
(163,723,cs),
(45,57,ls),
(39,25,o),
(62,0,o),
(101,0,cs)
);
}
);
vertWidth = 0;
width = 649;
}
);
unicode = 80;
},
{
color = 6;
glyphname = Q;
kernLeft = O_left;
kernRight = O_right;
layers = (
{
layerId = m01;
shapes = (
{
closed = 1;
nodes = (
(489,0,o),
(581,304,o),
(608,460,cs),
(643,655,o),
(580,772,o),
(411,772,cs),
(200,772,o),
(109,555,o),
(81,391,cs),
(48,198,o),
(80,0,o),
(285,0,cs)
);
},
{
closed = 1;
nodes = (
(126,55,o),
(114,240,o),
(139,379,cs),
(158,482,o),
(232,718,o),
(405,718,cs),
(563,718,o),
(573,588,o),
(549,453,cs),
(526,322,o),
(422,55,o),
(284,55,cs)
);
},
{
closed = 1;
nodes = (
(504,-82,o),
(504,-59,o),
(494,-45,cs),
(366,141,ls),
(354,158,o),
(333,166,o),
(316,152,cs),
(302,141,o),
(304,127,o),
(317,108,cs),
(441,-72,ls),
(453,-90,o),
(472,-100,o),
(487,-91,cs)
);
}
);
vertWidth = 0;
width = 623;
},
{
layerId = "140DECC1-64C4-40C0-9C07-503DBC3F4160";
shapes = (
{
closed = 1;
nodes = (
(484,0,o),
(618,176,o),
(668,460,cs),
(702,655,o),
(639,772,o),
(441,772,cs),
(247,772,o),
(126,644,o),
(81,391,cs),
(39,150,o),
(128,0,o),
(315,0,cs)
);
},
{
closed = 1;
nodes = (
(213,107,o),
(169,210,o),
(198,379,cs),
(233,569,o),
(312,665,o),
(435,665,cs),
(563,665,o),
(573,588,o),
(549,453,cs),
(512,239,o),
(422,107,o),
(314,107,cs)
);
},
{
closed = 1;
nodes = (
(552,-67,o),
(558,-33,o),
(539,-5,cs),
(412,183,ls),
(391,215,o),
(354,225,o),
(328,206,cs),
(302,188,o),
(297,152,o),
(316,124,cs),
(441,-59,ls),
(462,-91,o),
(499,-101,o),
(525,-84,cs)
);
}
);
vertWidth = 0;
width = 682;
}
);
unicode = 81;
},
{
color = 6;
glyphname = R;
kernLeft = H_left;
layers = (
{
layerId = m01;
shapes = (
{
closed = 1;
nodes = (
(95,0,o),
(100,19,o),
(103,37,cs),
(222,718,l),
(441,715,o),
(549,663,o),
(536,571,cs),
(517,437,o),
(341,416,o),
(138,416,c),
(129,361,l),
(369,361,o),
(569,381,o),
(595,565,cs),
(615,710,o),
(461,772,o),
(202,772,cs),
(176,772,o),
(170,759,o),
(166,740,cs),
(43,39,ls),
(39,19,o),
(48,0,o),
(69,0,cs)
);
},
{
closed = 1;
nodes = (
(499,0,o),
(512,29,o),
(485,59,cs),
(204,381,l),
(128,381,l),
(441,21,ls),
(454,6,o),
(465,0,o),
(474,0,cs)
);
}
);
vertWidth = 0;
width = 590;
},
{
layerId = "140DECC1-64C4-40C0-9C07-503DBC3F4160";
shapes = (
{
closed = 1;
nodes = (
(131,0,o),
(162,27,o),
(168,63,cs),
(274,665,l),
(486,666,o),
(550,631,o),
(537,558,cs),
(519,454,o),
(361,431,o),
(169,431,c),
(152,324,l),
(390,324,o),
(614,343,o),
(652,555,cs),
(681,715,o),
(518,772,o),
(229,772,cs),
(192,772,o),
(170,757,o),
(164,723,cs),
(48,64,ls),
(42,29,o),
(56,0,o),
(94,0,cs)
);
},
{
closed = 1;
nodes = (
(545,0,o),
(586,49,o),
(536,106,cs),
(297,378,l),
(144,378,l),
(446,27,ls),
(467,4,o),
(492,0,o),
(507,0,cs)
);
}
);
vertWidth = 0;
width = 650;
}
);
unicode = 82;
},
{
color = 6;
glyphname = S;
layers = (
{
layerId = m01;
shapes = (
{
closed = 1;
nodes = (
(348,0,o),
(446,89,o),
(446,233,cs),
(446,308,o),
(391,378,o),
(307,437,cs),
(219,498,o),
(165,535,o),
(165,590,cs),
(165,669,o),
(240,718,o),
(360,718,cs),
(442,718,o),
(461,694,o),
(468,650,cs),
(470,634,o),
(494,631,o),
(508,634,cs),
(526,639,o),
(526,656,o),
(524,668,cs),
(510,744,o),
(462,772,o),
(361,772,cs),
(204,772,o),
(107,701,o),
(107,587,cs),
(107,504,o),
(175,459,o),
(259,398,cs),
(353,331,o),
(386,282,o),
(386,225,cs),
(386,120,o),
(311,55,o),
(190,55,cs),
(121,55,o),
(86,78,o),
(76,122,cs),
(72,138,o),
(56,144,o),
(42,140,cs),
(24,135,o),
(18,116,o),
(20,105,cs),
(32,36,o),
(96,0,o),
(190,0,cs)
);
}
);
vertWidth = 0;
width = 505;
},
{
layerId = "140DECC1-64C4-40C0-9C07-503DBC3F4160";
shapes = (
{
closed = 1;
nodes = (
(393,0,o),
(517,108,o),
(517,252,cs),
(517,320,o),
(491,371,o),
(369,457,cs),
(309,500,o),
(233,542,o),
(233,579,cs),
(233,636,o),
(290,665,o),
(403,665,cs),
(455,665,o),
(482,652,o),
(487,625,cs),
(493,589,o),
(529,581,o),
(555,588,cs),
(584,598,o),
(595,623,o),
(590,651,cs),
(574,738,o),
(516,772,o),
(421,772,cs),
(220,772,o),
(118,707,o),
(118,579,cs),
(118,466,o),
(226,418,o),
(290,372,cs),
(378,308,o),
(404,284,o),
(404,239,cs),
(404,165,o),
(337,107,o),
(248,107,cs),
(188,107,o),
(149,124,o),
(144,147,cs),
(137,182,o),
(102,188,o),
(77,183,cs),
(46,177,o),
(34,150,o),
(40,121,cs),
(53,46,o),
(125,0,o),
(228,0,cs)
);
}
);
vertWidth = 0;
width = 575;
}
);
unicode = 83;
},
{
color = 6;
glyphname = T;
layers = (
{
layerId = m01;
shapes = (
{
closed = 1;
nodes = (
(297,0,o),
(301,18,o),
(303,30,cs),
(426,735,l),
(366,735,l),
(244,32,ls),
(240,14,o),
(249,0,o),
(271,0,cs)
);
},
{
closed = 1;
nodes = (
(623,718,ls),
(646,718,o),
(653,731,o),
(653,745,cs),
(653,759,o),
(646,772,o),
(623,772,cs),
(163,772,ls),
(139,772,o),
(132,759,o),
(132,745,cs),
(132,731,o),
(139,718,o),
(163,718,cs)
);
}
);
vertWidth = 0;
width = 606;
},
{
layerId = "140DECC1-64C4-40C0-9C07-503DBC3F4160";
shapes = (
{
closed = 1;
nodes = (
(296,-1,o),
(316,21,o),
(321,46,cs),
(441,733,l),
(321,733,l),
(202,58,ls),
(196,25,o),
(220,-1,o),
(257,-1,cs)
);
},
{
closed = 1;
nodes = (
(594,669,ls),
(632,669,o),
(653,693,o),
(653,721,cs),
(653,752,o),
(630,776,o),
(594,776,cs),
(164,776,ls),
(128,776,o),
(105,752,o),
(105,721,cs),
(105,693,o),
(126,669,o),
(164,669,cs)
);
}
);
vertWidth = 0;
width = 587;
}
);
unicode = 84;
},
{
color = 6;
glyphname = U;
kernLeft = H_left;
kernRight = H_right;
layers = (
{
layerId = m01;
shapes = (
{
closed = 1;
nodes = (
(283,-5,o),
(457,207,o),
(545,495,c),
(544,618,l),
(444,292,o),
(278,50,o),
(163,50,cs),
(107,50,o),
(119,138,o),
(133,214,cs),
(228,739,ls),
(232,756,o),
(221,771,o),
(203,772,cs),
(184,772,o),
(171,756,o),
(168,737,cs),
(74,217,ls),
(45,62,o),
(83,-5,o),
(153,-5,cs)
);
},
{
closed = 1;
nodes = (
(482,-1,o),
(497,8,o),
(500,26,cs),
(626,741,ls),
(630,759,o),
(621,772,o),
(598,772,cs),
(576,772,o),
(568,758,o),
(565,744,cs),
(441,32,ls),
(437,10,o),
(451,-1,o),
(468,-1,cs)
);
}
);
vertWidth = 0;
width = 614;
},
{
layerId = "140DECC1-64C4-40C0-9C07-503DBC3F4160";
shapes = (
{
closed = 1;
nodes = (
(335,-5,o),
(493,173,o),
(574,462,c),
(546,645,l),
(455,309,o),
(328,102,o),
(216,102,cs),
(179,102,o),
(182,149,o),
(195,220,cs),
(283,713,ls),
(289,747,o),
(264,772,o),
(229,772,cs),
(191,773,o),
(168,741,o),
(164,720,cs),
(76,232,ls),
(46,68,o),
(96,-5,o),
(183,-5,cs)
);
},
{
closed = 1;
nodes = (
(526,0,o),
(557,14,o),
(562,44,cs),
(680,715,ls),
(685,748,o),
(664,772,o),
(624,772,cs),
(590,772,o),
(565,754,o),
(561,727,cs),
(444,58,ls),
(437,19,o),
(466,0,o),
(499,0,cs)
);
}
);
vertWidth = 0;
width = 672;
}
);
unicode = 85;
},
{
color = 6;
glyphname = V;
kernLeft = V_left;
kernRight = V_right;
layers = (
{
layerId = m01;
shapes = (
{
closed = 1;
nodes = (
(202,0,o),
(207,13,o),
(215,30,cs),
(563,734,ls),
(575,758,o),
(561,772,o),
(543,772,cs),
(520,772,o),
(511,763,o),
(501,743,cs),
(191,103,l),
(198,100,l),
(168,744,ls),
(168,756,o),
(162,772,o),
(135,772,c),
(114,772,o),
(107,759,o),
(108,741,cs),
(147,33,ls),
(149,18,o),
(158,0,o),
(179,0,cs)
);
}
);
vertWidth = 0;
width = 495;
},
{
layerId = "140DECC1-64C4-40C0-9C07-503DBC3F4160";
shapes = (
{
closed = 1;
nodes = (
(236,-2,o),
(251,18,o),
(263,40,cs),
(590,702,ls),
(611,743,o),
(584,772,o),
(546,772,cs),
(512,772,o),
(489,758,o),
(478,734,cs),
(235,232,l),
(244,228,l),
(220,725,ls),
(219,752,o),
(197,772,o),
(159,772,cs),
(125,772,o),
(102,753,o),
(105,718,cs),
(143,52,ls),
(144,23,o),
(168,-2,o),
(202,-2,cs)
);
}
);
vertWidth = 0;
width = 529;
}
);
unicode = 86;
},
{
color = 6;
glyphname = W;
kernLeft = V_left;
kernRight = V_right;
layers = (
{
layerId = m01;
shapes = (
{
closed = 1;
nodes = (
(201,0,o),
(211,18,o),
(217,31,cs),
(530,677,l),
(522,681,l),
(555,23,ls),
(556,7,o),
(565,0,o),
(586,0,cs),
(601,0,o),
(612,10,o),
(621,30,cs),
(968,734,ls),
(980,758,o),
(966,772,o),
(944,772,cs),
(927,772,o),
(916,762,o),
(906,743,cs),
(598,106,l),
(606,102,l),
(573,744,ls),
(571,756,o),
(565,772,o),
(537,772,cs),
(518,772,o),
(505,752,o),
(501,744,cs),
(191,101,l),
(200,97,l),
(168,744,ls),
(168,756,o),
(162,772,o),
(135,772,c),
(114,772,o),
(107,759,o),
(108,741,cs),
(147,33,ls),
(149,14,o),
(160,0,o),
(181,0,cs)
);
}
);
vertWidth = 0;
width = 901;
},
{
layerId = "140DECC1-64C4-40C0-9C07-503DBC3F4160";
shapes = (
{
closed = 1;
nodes = (
(227,0,o),
(248,15,o),
(261,40,cs),
(518,557,l),
(500,561,l),
(535,53,ls),
(537,20,o),
(560,0,o),
(593,0,cs),
(619,0,o),
(643,15,o),
(655,42,cs),
(979,702,ls),
(999,743,o),
(968,772,o),
(933,772,cs),
(896,772,o),
(876,752,o),
(865,731,cs),
(619,221,l),
(637,217,l),
(601,725,ls),
(599,754,o),
(579,772,o),
(537,772,cs),
(498,772,o),
(487,750,o),
(480,735,cs),
(226,217,l),
(242,214,l),
(220,725,ls),
(219,752,o),
(198,772,o),
(160,772,cs),
(126,772,o),
(102,753,o),
(105,718,cs),
(140,52,ls),
(143,20,o),
(166,0,o),
(204,0,cs)
);
}
);
vertWidth = 0;
width = 917;
}
);
unicode = 87;
},
{
color = 6;
glyphname = X;
layers = (
{
layerId = m01;
shapes = (
{
closed = 1;
nodes = (
(27,-4,o),
(50,-5,o),
(63,13,cs),
(579,723,ls),
(592,741,o),
(589,758,o),
(579,766,cs),
(567,776,o),
(544,775,o),
(531,757,cs),
(12,45,ls),
(1,31,o),
(4,15,o),
(14,7,cs)
);
},
{
closed = 1;
nodes = (
(461,10,o),
(466,24,o),
(459,42,cs),
(192,750,ls),
(184,772,o),
(164,777,o),
(150,771,cs),
(135,766,o),
(129,750,o),
(138,728,cs),
(402,23,ls),
(410,0,o),
(434,-4,o),
(449,4,cs)
);
}
);
vertWidth = 0;
width = 543;
},
{
layerId = "140DECC1-64C4-40C0-9C07-503DBC3F4160";
shapes = (
{
closed = 1;
nodes = (
(50,-4,o),
(97,-10,o),
(118,19,cs),
(596,687,ls),
(617,715,o),
(612,740,o),
(590,759,cs),
(569,778,o),
(526,779,o),
(505,750,cs),
(24,82,ls),
(6,57,o),
(6,34,o),
(27,15,cs)
);
},
{
closed = 1;
nodes = (
(493,20,o),
(505,43,o),
(493,72,cs),
(241,740,ls),
(228,773,o),
(190,778,o),
(163,769,cs),
(132,758,o),
(121,733,o),
(135,696,cs),
(383,33,ls),
(396,-1,o),
(441,-7,o),
(468,7,cs)
);
}
);
vertWidth = 0;
width = 584;
}
);
unicode = 88;
},
{
color = 6;
glyphname = Y;
layers = (
{
layerId = m01;
shapes = (
{
closed = 1;
nodes = (
(238,0,o),
(242,18,o),
(245,30,cs),
(307,383,l),
(557,723,ls),
(563,732,o),
(567,740,o),
(567,747,cs),
(567,760,o),
(552,772,o),
(539,772,cs),
(527,772,o),
(517,769,o),
(508,757,cs),
(266,423,l),
(296,418,l),
(169,748,ls),
(164,762,o),
(153,772,o),
(135,772,cs),
(121,772,o),
(108,760,o),
(108,748,cs),
(108,741,o),
(109,738,o),
(113,728,cs),
(246,384,l),
(184,32,ls),
(181,14,o),
(190,0,o),
(211,0,cs)
);
}
);
vertWidth = 0;
width = 494;
},
{
layerId = "140DECC1-64C4-40C0-9C07-503DBC3F4160";
shapes = (
{
closed = 1;
nodes = (
(276,-2,o),
(292,23,o),
(297,48,cs),
(354,375,l),
(586,683,ls),
(595,696,o),
(600,708,o),
(600,722,cs),
(600,753,o),
(563,772,o),
(542,772,cs),
(523,772,o),
(504,763,o),
(493,747,cs),
(292,470,l),
(321,466,l),
(219,735,ls),
(208,760,o),
(194,772,o),
(169,772,cs),
(134,772,o),
(106,753,o),
(106,728,cs),
(106,716,o),
(108,709,o),
(113,696,cs),
(234,383,l),
(178,58,ls),
(172,25,o),
(197,-2,o),
(235,-2,cs)
);
}
);
vertWidth = 0;
width = 533;
}
);
unicode = 89;
},
{
color = 6;
glyphname = Z;
layers = (
{
layerId = m01;
shapes = (
{
closed = 1;
nodes = (
(432,0,ls),
(456,0,o),
(463,15,o),
(463,30,cs),
(463,44,o),
(456,55,o),
(432,55,cs),
(61,55,l),
(71,31,l),
(569,722,ls),
(575,731,o),
(579,741,o),
(579,748,cs),
(579,764,o),
(570,772,o),
(549,772,cs),
(163,772,ls),
(139,772,o),
(132,757,o),
(132,743,cs),
(132,728,o),
(139,718,o),
(163,718,cs),
(524,718,l),
(513,741,l),
(13,46,ls),
(7,38,o),
(6,31,o),
(6,25,cs),
(6,13,o),
(15,0,o),
(37,0,cs)
);
}
);
vertWidth = 0;
width = 554;
},
{
layerId = "140DECC1-64C4-40C0-9C07-503DBC3F4160";
shapes = (
{
closed = 1;
nodes = (
(447,0,ls),
(485,0,o),
(506,23,o),
(506,51,cs),
(506,82,o),
(482,107,o),
(447,107,cs),
(150,107,l),
(158,78,l),
(600,685,ls),
(611,700,o),
(615,713,o),
(615,725,cs),
(615,754,o),
(590,776,o),
(551,776,cs),
(190,776,ls),
(154,776,o),
(131,752,o),
(131,721,cs),
(131,693,o),
(152,669,o),
(190,669,cs),
(476,669,l),
(468,697,l),
(20,83,ls),
(13,74,o),
(10,63,o),
(10,52,cs),
(10,30,o),
(25,0,o),
(78,0,cs)
);
}
);
vertWidth = 0;
width = 595;
}
);
unicode = 90;
},
{
color = 6;
glyphname = a;
kernLeft = o_left;
kernRight = n_right;
layers = (
{
layerId = m01;
shapes = (
{
closed = 1;
nodes = (
(192,-5,o),
(263,58,o),
(310,188,c),
(324,321,l),
(261,153,o),
(194,50,o),
(139,50,cs),
(100,50,o),
(78,97,o),
(91,175,cs),
(112,290,o),
(195,361,o),
(309,361,cs),
(358,361,l),
(367,416,l),
(305,416,ls),
(163,416,o),
(58,323,o),
(31,175,cs),
(11,64,o),
(52,-5,o),
(129,-5,cs)
);
},
{
closed = 1;
nodes = (
(329,0,o),
(331,21,o),
(333,27,cs),
(394,375,ls),
(398,397,o),
(396,416,o),
(377,416,cs),
(341,416,l),
(272,27,ls),
(271,18,o),
(272,0,o),
(298,0,cs)
);
}
);
vertWidth = 0;
width = 423;
},
{
layerId = "140DECC1-64C4-40C0-9C07-503DBC3F4160";
shapes = (
{
closed = 1;
nodes = (
(192,-5,o),
(245,46,o),
(297,146,c),
(304,301,l),
(252,169,o),
(196,99,o),
(171,99,cs),
(152,99,o),
(144,129,o),
(151,175,cs),
(165,258,o),
(228,312,o),
(317,312,cs),
(328,312,l),
(342,416,l),
(314,416,ls),
(165,416,o),
(57,323,o),
(31,175,cs),
(11,64,o),
(52,-5,o),
(139,-5,cs)
);
},
{
closed = 1;
nodes = (
(355,0,o),
(369,26,o),
(373,44,cs),
(426,350,ls),
(434,390,o),
(419,416,o),
(381,416,cs),
(324,416,l),
(260,52,ls),
(255,25,o),
(274,0,o),
(312,0,cs)
);
}
);
vertWidth = 0;
width = 460;
}
);
unicode = 97;
},
{
color = 6;
glyphname = b;
kernLeft = h_left;
kernRight = o_right;
layers = (
{
layerId = m01;
shapes = (
{
closed = 1;
nodes = (
(290,-5,o),
(378,97,o),
(378,235,cs),
(378,277,o),
(369,320,o),
(352,384,c),
(326,360,l),
(443,340,ls),
(470,335,o),
(493,341,o),
(493,366,cs),
(493,377,o),
(486,391,o),
(465,394,cs),
(329,416,l),
(292,424,o),
(295,392,o),
(299,379,cs),
(309,349,o),
(323,309,o),
(323,247,cs),
(323,137,o),
(263,50,o),
(191,50,cs),
(132,50,o),
(103,107,o),
(115,176,cs),
(215,740,ls),
(219,763,o),
(207,772,o),
(191,772,cs),
(176,772,o),
(158,760,o),
(154,740,cs),
(55,176,ls),
(37,72,o),
(87,-5,o),
(182,-5,cs)
);
}
);
vertWidth = 0;
width = 476;
},
{
layerId = "140DECC1-64C4-40C0-9C07-503DBC3F4160";
shapes = (
{
closed = 1;
nodes = (
(329,-5,o),
(419,96,o),
(419,233,cs),
(419,255,o),
(407,296,o),
(387,340,c),
(360,314,l),
(449,287,ls),
(497,273,o),
(532,303,o),
(532,352,cs),
(532,379,o),
(511,397,o),
(482,402,cs),
(355,423,ls),
(290,434,o),
(278,388,o),
(289,362,cs),
(302,329,o),
(310,297,o),
(310,277,cs),
(310,175,o),
(273,99,o),
(223,99,cs),
(185,99,o),
(170,138,o),
(181,202,cs),
(274,735,ls),
(282,777,o),
(257,802,o),
(222,802,cs),
(192,802,o),
(162,779,o),
(156,745,cs),
(62,211,ls),
(38,77,o),
(94,-5,o),
(207,-5,cs)
);
}
);
vertWidth = 0;
width = 543;
}
);
unicode = 98;
},
{
color = 6;
glyphname = c;
kernLeft = o_left;
layers = (
{
layerId = m01;
shapes = (
{
closed = 1;
nodes = (
(201,-5,o),
(273,57,o),
(323,156,cs),
(328,166,o),
(322,181,o),
(309,188,cs),
(293,196,o),
(277,195,o),
(271,183,cs),
(232,103,o),
(181,50,o),
(138,50,cs),
(106,50,o),
(87,82,o),
(88,125,cs),
(91,260,o),
(153,366,o),
(233,366,cs),
(260,366,o),
(297,361,o),
(320,353,cs),
(340,345,o),
(356,346,o),
(364,364,cs),
(372,381,o),
(365,398,o),
(345,405,cs),
(317,416,o),
(272,421,o),
(233,421,cs),
(115,421,o),
(27,289,o),
(27,113,cs),
(27,40,o),
(68,-5,o),
(133,-5,cs)
);
}
);
vertWidth = 0;
width = 384;
},
{
layerId = "140DECC1-64C4-40C0-9C07-503DBC3F4160";
shapes = (
{
closed = 1;
nodes = (
(220,-5,o),
(297,52,o),
(347,144,cs),
(354,157,o),
(353,189,o),
(322,204,cs),
(291,220,o),
(260,213,o),
(251,195,cs),
(220,135,o),
(184,99,o),
(157,99,cs),
(141,99,o),
(133,114,o),
(135,140,cs),
(149,257,o),
(192,328,o),
(253,328,cs),
(271,328,o),
(290,324,o),
(312,315,cs),
(340,304,o),
(366,315,o),
(379,342,cs),
(398,383,o),
(367,404,o),
(352,410,cs),
(326,421,o),
(295,425,o),
(253,425,cs),
(132,425,o),
(45,317,o),
(26,143,cs),
(15,51,o),
(61,-5,o),
(145,-5,cs)
);
}
);
vertWidth = 0;
width = 406;
}
);
unicode = 99;
},
{
color = 6;
glyphname = d;
kernLeft = o_left;
layers = (
{
layerId = m01;
shapes = (
{
closed = 1;
nodes = (
(192,-5,o),
(263,58,o),
(310,188,c),
(324,321,l),
(261,153,o),
(194,50,o),
(139,50,cs),
(100,50,o),
(78,97,o),
(91,175,cs),
(112,290,o),
(195,361,o),
(309,361,cs),
(358,361,l),
(367,416,l),
(305,416,ls),
(163,416,o),
(58,323,o),
(31,175,cs),
(11,64,o),
(52,-5,o),
(129,-5,cs)
);
},
{
closed = 1;
nodes = (
(316,0,o),
(328,7,o),
(331,25,cs),
(459,740,ls),
(462,759,o),
(448,771,o),
(431,772,cs),
(418,773,o),
(403,767,o),
(399,750,cs),
(273,34,ls),
(270,13,o),
(286,0,o),
(303,0,cs)
);
}
);
vertWidth = 0;
width = 435;
},
{
layerId = "140DECC1-64C4-40C0-9C07-503DBC3F4160";
shapes = (
{
closed = 1;
nodes = (
(192,-5,o),
(245,46,o),
(297,146,c),
(304,301,l),
(252,169,o),
(196,99,o),
(171,99,cs),
(152,99,o),
(144,129,o),
(151,175,cs),
(165,258,o),
(228,312,o),
(317,312,cs),
(328,312,l),
(342,416,l),
(314,416,ls),
(165,416,o),
(57,323,o),
(31,175,cs),
(11,64,o),
(52,-5,o),
(139,-5,cs)
);
},
{
closed = 1;
nodes = (
(342,0,o),
(373,18,o),
(379,52,cs),
(495,712,ls),
(503,750,o),
(470,772,o),
(437,772,cs),
(411,772,o),
(385,760,o),
(379,727,cs),
(261,59,ls),
(254,18,o),
(289,0,o),
(316,0,cs)
);
}
);
vertWidth = 0;
width = 476;
}
);
unicode = 100;
},
{
color = 6;
glyphname = e;
kernLeft = o_left;
layers = (
{
layerId = m01;
shapes = (
{
closed = 1;
nodes = (
(182,-5,o),
(238,26,o),
(276,76,cs),
(302,110,o),
(296,126,o),
(284,134,cs),
(271,144,o),
(253,141,o),
(230,112,cs),
(198,74,o),
(162,50,o),
(132,50,cs),
(105,50,o),
(88,77,o),
(88,116,cs),
(88,246,o),
(159,366,o),
(239,366,cs),
(261,366,o),
(273,354,o),
(273,342,cs),
(273,317,o),
(222,279,o),
(164,245,cs),
(134,228,o),
(101,210,o),
(75,196,c),
(61,128,l),
(78,137,o),
(152,175,o),
(197,200,cs),
(245,227,o),
(334,273,o),
(334,346,cs),
(334,396,o),
(299,421,o),
(246,421,cs),
(131,421,o),
(27,282,o),
(27,127,cs),
(27,45,o),
(67,-5,o),
(131,-5,cs)
);
}
);
vertWidth = 0;
width = 369;
},
{
layerId = "140DECC1-64C4-40C0-9C07-503DBC3F4160";
shapes = (
{
closed = 1;
nodes = (
(228,-5,o),
(289,23,o),
(327,69,cs),
(358,107,o),
(343,139,o),
(326,152,cs),
(302,169,o),
(271,160,o),
(246,131,cs),
(227,108,o),
(200,96,o),
(175,96,cs),
(157,96,o),
(147,110,o),
(147,140,cs),
(147,252,o),
(197,335,o),
(264,335,cs),
(271,335,o),
(274,331,o),
(274,324,cs),
(274,309,o),
(251,285,o),
(206,258,cs),
(173,239,o),
(119,209,o),
(97,198,c),
(82,105,l),
(152,137,o),
(219,170,o),
(257,192,cs),
(340,239,o),
(381,287,o),
(381,337,cs),
(381,396,o),
(343,425,o),
(267,425,cs),
(143,425,o),
(30,290,o),
(30,139,cs),
(30,43,o),
(76,-5,o),
(166,-5,cs)
);
}
);
vertWidth = 0;
width = 409;
}
);
unicode = 101;
},
{
color = 6;
glyphname = f;
layers = (
{
layerId = m01;
shapes = (
{
closed = 1;
nodes = (
(55,-358,o),
(63,-340,o),
(65,-326,cs),
(220,620,ls),
(232,690,o),
(261,713,o),
(301,713,cs),
(314,713,o),
(336,706,o),
(350,696,cs),
(358,691,o),
(378,689,o),
(390,710,cs),
(400,731,o),
(387,744,o),
(378,750,cs),
(359,763,o),
(324,772,o),
(302,772,cs),
(242,772,o),
(179,739,o),
(163,634,cs),
(6,-321,ls),
(4,-335,o),
(13,-354,o),
(34,-356,cs)
);
},
{
closed = 1;
nodes = (
(263,362,ls),
(286,362,o),
(291,375,o),
(291,390,cs),
(291,404,o),
(283,416,o),
(259,416,cs),
(51,416,ls),
(27,416,o),
(21,404,o),
(21,390,cs),
(21,375,o),
(31,362,o),
(55,362,cs)
);
}
);
vertWidth = 0;
width = 280;
},
{
layerId = "140DECC1-64C4-40C0-9C07-503DBC3F4160";
shapes = (
{
closed = 1;
nodes = (
(99,-355,o),
(125,-331,o),
(129,-303,cs),
(278,599,ls),
(285,644,o),
(312,664,o),
(334,664,cs),
(358,664,o),
(374,655,o),
(384,649,cs),
(398,639,o),
(428,642,o),
(447,674,cs),
(463,703,o),
(456,727,o),
(435,741,cs),
(404,762,o),
(373,772,o),
(334,772,cs),
(258,772,o),
(181,739,o),
(162,626,cs),
(12,-286,ls),
(7,-314,o),
(21,-355,o),
(67,-355,cs)
);
},
{
closed = 1;
nodes = (
(296,315,ls),
(331,315,o),
(352,334,o),
(352,365,cs),
(352,393,o),
(328,416,o),
(290,416,cs),
(72,416,ls),
(36,416,o),
(18,393,o),
(18,365,cs),
(18,336,o),
(42,315,o),
(78,315,cs)
);
}
);
vertWidth = 0;
width = 353;
}
);
unicode = 102;
},
{
color = 6;
glyphname = g;
kernLeft = o_left;
layers = (
{
layerId = m01;
shapes = (
{
closed = 1;
nodes = (
(192,-5,o),
(263,58,o),
(310,188,c),
(324,321,l),
(261,153,o),
(194,50,o),
(139,50,cs),
(100,50,o),
(78,97,o),
(91,175,cs),
(112,290,o),
(195,361,o),
(309,361,cs),
(358,361,l),
(367,416,l),
(305,416,ls),
(163,416,o),
(58,323,o),
(31,175,cs),
(11,64,o),
(52,-5,o),
(129,-5,cs)
);
},
{
closed = 1;
nodes = (
(214,-356,o),
(274,-290,o),
(304,-127,cs),
(394,383,ls),
(398,404,o),
(390,416,o),
(366,416,c),
(340,416,l),
(246,-122,ls),
(226,-246,o),
(187,-302,o),
(110,-302,cs),
(76,-302,o),
(40,-292,o),
(18,-276,cs),
(5,-267,o),
(-12,-267,o),
(-20,-277,cs),
(-31,-290,o),
(-30,-308,o),
(-18,-317,cs),
(11,-341,o),
(58,-356,o),
(108,-356,cs)
);
}
);
vertWidth = 0;
width = 422;
},
{
layerId = "140DECC1-64C4-40C0-9C07-503DBC3F4160";
shapes = (
{
closed = 1;
nodes = (
(192,-5,o),
(245,46,o),
(297,146,c),
(304,301,l),
(252,169,o),
(196,99,o),
(171,99,cs),
(152,99,o),
(144,129,o),
(151,175,cs),
(165,258,o),
(228,312,o),
(317,312,cs),
(328,312,l),
(342,416,l),
(314,416,ls),
(165,416,o),
(57,323,o),
(31,175,cs),
(11,64,o),
(52,-5,o),
(139,-5,cs)
);
},
{
closed = 1;
nodes = (
(240,-356,o),
(324,-255,o),
(360,-56,cs),
(434,359,ls),
(440,394,o),
(421,416,o),
(383,416,cs),
(324,416,l),
(241,-48,ls),
(213,-206,o),
(147,-241,o),
(101,-241,cs),
(78,-241,o),
(62,-233,o),
(52,-227,cs),
(27,-211,o),
(-4,-217,o),
(-19,-242,cs),
(-38,-271,o),
(-33,-304,o),
(-8,-322,cs),
(10,-335,o),
(52,-356,o),
(109,-356,cs)
);
}
);
vertWidth = 0;
width = 466;
}
);
unicode = 103;
},
{
color = 6;
glyphname = h;
kernLeft = h_left;
kernRight = n_right;
layers = (
{
layerId = m01;
shapes = (
{
closed = 1;
nodes = (
(87,0,o),
(89,21,o),
(90,27,cs),
(215,740,ls),
(219,760,o),
(214,772,o),
(194,772,c),
(170,772,o),
(158,762,o),
(154,740,cs),
(30,27,ls),
(29,18,o),
(30,0,o),
(56,0,cs)
);
},
{
closed = 1;
nodes = (
(354,0,o),
(355,19,o),
(356,25,cs),
(400,273,ls),
(413,349,o),
(375,421,o),
(290,421,cs),
(225,421,o),
(176,379,o),
(121,292,c),
(109,207,l),
(183,321,o),
(236,366,o),
(286,366,cs),
(339,366,o),
(348,317,o),
(341,277,cs),
(297,29,ls),
(296,19,o),
(297,0,o),
(323,0,cs)
);
}
);
vertWidth = 0;
width = 447;
},
{
layerId = "140DECC1-64C4-40C0-9C07-503DBC3F4160";
shapes = (
{
closed = 1;
nodes = (
(115,0,o),
(146,18,o),
(152,52,cs),
(268,712,ls),
(276,750,o),
(244,772,o),
(210,772,cs),
(184,772,o),
(158,760,o),
(152,727,cs),
(34,59,ls),
(27,18,o),
(62,0,o),
(89,0,cs)
);
},
{
closed = 1;
nodes = (
(380,0,o),
(399,23,o),
(403,40,cs),
(436,229,ls),
(459,359,o),
(424,425,o),
(334,425,cs),
(279,425,o),
(234,381,o),
(189,318,c),
(164,162,l),
(219,259,o),
(263,323,o),
(293,323,cs),
(317,323,o),
(327,297,o),
(318,247,cs),
(285,58,ls),
(280,30,o),
(299,0,o),
(337,0,cs)
);
}
);
vertWidth = 0;
width = 503;
}
);
unicode = 104;
},
{
color = 6;
glyphname = i;
layers = (
{
layerId = m01;
shapes = (
{
closed = 1;
nodes = (
(86,0,o),
(88,21,o),
(89,27,cs),
(152,384,ls),
(154,404,o),
(151,416,o),
(131,416,c),
(107,416,o),
(96,405,o),
(91,384,cs),
(29,27,ls),
(27,18,o),
(29,0,o),
(55,0,cs)
);
},
{
closed = 1;
nodes = (
(171,520,o),
(188,537,o),
(188,556,cs),
(188,576,o),
(170,590,o),
(151,590,cs),
(129,590,o),
(115,574,o),
(115,556,cs),
(115,537,o),
(131,520,o),
(151,520,cs)
);
}
);
vertWidth = 0;
width = 191;
},
{
layerId = "140DECC1-64C4-40C0-9C07-503DBC3F4160";
shapes = (
{
closed = 1;
nodes = (
(126,0,o),
(149,26,o),
(152,44,cs),
(208,359,ls),
(214,394,o),
(195,416,o),
(157,416,cs),
(107,416,o),
(91,380,o),
(89,366,cs),
(33,52,ls),
(29,24,o),
(42,0,o),
(82,0,cs)
);
},
{
closed = 1;
nodes = (
(213,491,o),
(242,519,o),
(242,554,cs),
(242,590,o),
(211,617,o),
(178,617,cs),
(144,617,o),
(116,588,o),
(116,554,cs),
(116,519,o),
(145,491,o),
(178,491,cs)
);
}
);
vertWidth = 0;
width = 252;
}
);
unicode = 105;
},
{
color = 6;
glyphname = j;
layers = (
{
layerId = m01;
shapes = (
{
closed = 1;
nodes = (
(-29,-356,o),
(33,-290,o),
(62,-127,cs),
(152,384,ls),
(156,404,o),
(151,416,o),
(131,416,c),
(107,416,o),
(95,405,o),
(91,384,cs),
(2,-122,ls),
(-19,-246,o),
(-57,-302,o),
(-133,-302,cs),
(-168,-302,o),
(-202,-292,o),
(-225,-276,cs),
(-238,-267,o),
(-254,-267,o),
(-263,-277,cs),
(-273,-290,o),
(-272,-308,o),
(-260,-317,cs),
(-232,-341,o),
(-184,-356,o),
(-134,-356,cs)
);
},
{
closed = 1;
nodes = (
(171,520,o),
(188,537,o),
(188,556,cs),
(188,576,o),
(170,590,o),
(151,590,cs),
(129,590,o),
(115,574,o),
(115,556,cs),
(115,537,o),
(131,520,o),
(151,520,cs)
);
}
);
vertWidth = 0;
width = 191;
},
{
layerId = "140DECC1-64C4-40C0-9C07-503DBC3F4160";
shapes = (
{
closed = 1;
nodes = (
(14,-356,o),
(99,-255,o),
(134,-56,cs),
(208,359,ls),
(214,394,o),
(195,416,o),
(157,416,cs),
(107,416,o),
(91,380,o),
(89,366,cs),
(15,-48,ls),
(-13,-206,o),
(-78,-241,o),
(-125,-241,cs),
(-147,-241,o),
(-164,-233,o),
(-173,-227,cs),
(-198,-211,o),
(-229,-217,o),
(-245,-242,cs),
(-264,-271,o),
(-259,-304,o),
(-234,-322,cs),
(-216,-335,o),
(-173,-356,o),
(-116,-356,cs)
);
},
{
closed = 1;
nodes = (
(213,491,o),
(242,519,o),
(242,554,cs),
(242,590,o),
(211,617,o),
(178,617,cs),
(144,617,o),
(116,588,o),
(116,554,cs),
(116,519,o),
(145,491,o),
(178,491,cs)
);
}
);
vertWidth = 0;
width = 252;
}
);
unicode = 106;
},
{
color = 6;
glyphname = k;
kernLeft = h_left;
layers = (
{
layerId = m01;
shapes = (
{
closed = 1;
nodes = (
(72,0,o),
(87,8,o),
(90,31,cs),
(215,738,ls),
(220,763,o),
(206,772,o),
(187,772,cs),
(169,772,o),
(158,759,o),
(154,739,cs),
(30,31,ls),
(26,12,o),
(38,0,o),
(53,0,cs)
);
},
{
closed = 1;
nodes = (
(184,314,o),
(272,366,o),
(321,366,cs),
(336,366,o),
(339,355,o),
(339,347,cs),
(340,312,o),
(301,274,o),
(225,228,cs),
(209,219,o),
(203,208,o),
(203,197,cs),
(203,188,o),
(210,173,o),
(225,153,cs),
(317,21,ls),
(326,10,o),
(337,-1,o),
(353,-1,cs),
(367,-1,o),
(379,12,o),
(379,26,cs),
(379,33,o),
(377,40,o),
(371,49,cs),
(271,190,l),
(355,240,o),
(398,295,o),
(398,353,cs),
(398,411,o),
(367,421,o),
(337,421,cs),
(251,421,o),
(157,345,o),
(119,241,c),
(101,93,l)
);
}
);
vertWidth = 0;
width = 457;
},
{
layerId = "140DECC1-64C4-40C0-9C07-503DBC3F4160";
shapes = (
{
closed = 1;
nodes = (
(115,0,o),
(146,18,o),
(152,52,cs),
(268,712,ls),
(276,750,o),
(244,772,o),
(210,772,cs),
(184,772,o),
(158,760,o),
(152,727,cs),
(34,59,ls),
(27,18,o),
(62,0,o),
(89,0,cs)
);
},
{
closed = 1;
nodes = (
(219,259,o),
(263,324,o),
(326,324,cs),
(333,324,o),
(336,321,o),
(336,315,cs),
(336,297,o),
(308,260,o),
(253,229,cs),
(244,223,o),
(235,213,o),
(235,197,cs),
(235,179,o),
(251,159,o),
(265,138,cs),
(340,30,ls),
(353,11,o),
(374,0,o),
(396,0,cs),
(424,0,o),
(450,29,o),
(450,50,cs),
(450,61,o),
(447,70,o),
(438,82,cs),
(360,197,l),
(396,219,o),
(457,270,o),
(457,346,cs),
(457,391,o),
(411,425,o),
(360,425,cs),
(279,425,o),
(234,381,o),
(189,318,c),
(164,162,l)
);
}
);
vertWidth = 0;
width = 501;
}
);
unicode = 107;
},
{
color = 6;
glyphname = l;
kernLeft = h_left;
layers = (
{
layerId = m01;
shapes = (
{
closed = 1;
nodes = (
(71,0,o),
(84,8,o),
(88,26,cs),
(214,741,ls),
(217,760,o),
(202,772,o),
(185,772,cs),
(172,772,o),
(159,765,o),
(156,747,cs),
(30,32,ls),
(26,11,o),
(42,0,o),
(58,0,cs)
);
}
);
vertWidth = 0;
width = 190;
},
{
layerId = "140DECC1-64C4-40C0-9C07-503DBC3F4160";
shapes = (
{
closed = 1;
nodes = (
(115,0,o),
(146,18,o),
(152,52,cs),
(268,712,ls),
(276,750,o),
(244,772,o),
(210,772,cs),
(184,772,o),
(158,760,o),
(152,727,cs),
(34,59,ls),
(27,18,o),
(62,0,o),
(89,0,cs)
);
}
);
vertWidth = 0;
width = 249;
}
);
unicode = 108;
},
{
color = 6;
glyphname = m;
kernLeft = n_left;
kernRight = n_right;
layers = (
{
layerId = m01;
shapes = (
{
closed = 1;
nodes = (
(74,0,o),
(76,21,o),
(77,27,cs),
(140,384,ls),
(143,404,o),
(139,416,o),
(119,416,c),
(95,416,o),
(84,405,o),
(80,384,cs),
(17,27,ls),
(15,18,o),
(17,0,o),
(43,0,cs)
);
},
{
closed = 1;
nodes = (
(329,0,o),
(330,19,o),
(331,25,cs),
(375,273,ls),
(388,349,o),
(350,421,o),
(265,421,cs),
(200,421,o),
(163,379,o),
(108,292,c),
(96,207,l),
(170,321,o),
(211,366,o),
(261,366,cs),
(314,366,o),
(323,317,o),
(316,277,cs),
(272,29,ls),
(271,19,o),
(272,0,o),
(298,0,cs)
);
},
{
closed = 1;
nodes = (
(583,0,o),
(584,19,o),
(586,25,cs),
(630,273,ls),
(643,349,o),
(605,421,o),
(519,421,cs),
(454,421,o),
(417,379,o),
(362,292,c),
(350,207,l),
(424,321,o),
(466,366,o),
(516,366,cs),
(568,366,o),
(577,317,o),
(570,277,cs),
(526,29,ls),
(525,19,o),
(526,0,o),
(552,0,cs)
);
}
);
vertWidth = 0;
width = 676;
},
{
layerId = "140DECC1-64C4-40C0-9C07-503DBC3F4160";
shapes = (
{
closed = 1;
nodes = (
(114,0,o),
(137,26,o),
(140,44,cs),
(196,359,ls),
(202,394,o),
(183,416,o),
(145,416,cs),
(95,416,o),
(80,380,o),
(77,366,cs),
(21,52,ls),
(17,24,o),
(30,0,o),
(70,0,cs)
);
},
{
closed = 1;
nodes = (
(361,0,o),
(380,23,o),
(384,40,cs),
(417,229,ls),
(440,359,o),
(405,425,o),
(315,425,cs),
(260,425,o),
(222,381,o),
(177,318,c),
(152,162,l),
(207,259,o),
(244,323,o),
(274,323,cs),
(298,323,o),
(308,297,o),
(299,247,cs),
(266,58,ls),
(261,30,o),
(280,0,o),
(318,0,cs)
);
},
{
closed = 1;
nodes = (
(605,0,o),
(624,23,o),
(627,40,cs),
(661,229,ls),
(683,359,o),
(649,425,o),
(558,425,cs),
(504,425,o),
(466,381,o),
(421,318,c),
(396,162,l),
(450,259,o),
(487,323,o),
(518,323,cs),
(542,323,o),
(551,297,o),
(543,247,cs),
(510,58,ls),
(505,30,o),
(524,0,o),
(562,0,cs)
);
}
);
vertWidth = 0;
width = 715;
}
);
unicode = 109;
},
{
color = 6;
glyphname = n;
kernLeft = n_left;
kernRight = n_right;
layers = (
{
layerId = m01;
shapes = (
{
closed = 1;
nodes = (
(74,0,o),
(76,21,o),
(77,27,cs),
(140,384,ls),
(143,404,o),
(139,416,o),
(119,416,c),
(95,416,o),
(84,405,o),
(80,384,cs),
(17,27,ls),
(15,18,o),
(17,0,o),
(43,0,cs)
);
},
{
closed = 1;
nodes = (
(341,0,o),
(342,19,o),
(343,25,cs),
(387,273,ls),
(400,349,o),
(362,421,o),
(277,421,cs),
(211,421,o),
(163,379,o),
(108,292,c),
(96,207,l),
(170,321,o),
(223,366,o),
(273,366,cs),
(326,366,o),
(335,317,o),
(328,277,cs),
(284,29,ls),
(283,19,o),
(284,0,o),
(310,0,cs)
);
}
);
vertWidth = 0;
width = 434;
},
{
layerId = "140DECC1-64C4-40C0-9C07-503DBC3F4160";
shapes = (
{
closed = 1;
nodes = (
(114,0,o),
(137,26,o),
(140,44,cs),
(196,359,ls),
(202,394,o),
(183,416,o),
(145,416,cs),
(95,416,o),
(80,380,o),
(77,366,cs),
(21,52,ls),
(17,24,o),
(30,0,o),
(70,0,cs)
);
},
{
closed = 1;
nodes = (
(368,0,o),
(387,23,o),
(391,40,cs),
(424,229,ls),
(447,359,o),
(412,425,o),
(322,425,cs),
(267,425,o),
(222,381,o),
(177,318,c),
(152,162,l),
(207,259,o),
(251,323,o),
(282,323,cs),
(305,323,o),
(315,297,o),
(307,247,cs),
(273,58,ls),
(268,30,o),
(287,0,o),
(326,0,cs)
);
}
);
vertWidth = 0;
width = 479;
}
);
unicode = 110;
},
{
color = 6;
glyphname = o;
kernLeft = o_left;
kernRight = o_right;
layers = (
{
layerId = m01;
shapes = (
{
closed = 1;
nodes = (
(282,-5,o),
(366,113,o),
(366,271,cs),
(366,364,o),
(311,421,o),
(222,421,cs),
(114,421,o),
(33,305,o),
(33,150,cs),
(33,55,o),
(86,-5,o),
(170,-5,cs)
);
},
{
closed = 1;
nodes = (
(122,50,o),
(93,95,o),
(93,162,cs),
(93,276,o),
(149,366,o),
(222,366,cs),
(274,366,o),
(307,327,o),
(307,270,cs),
(307,146,o),
(248,50,o),
(170,50,cs)
);
}
);
vertWidth = 0;
width = 407;
},
{
layerId = "140DECC1-64C4-40C0-9C07-503DBC3F4160";
shapes = (
{
closed = 1;
nodes = (
(286,-5,o),
(384,122,o),
(384,264,cs),
(384,364,o),
(327,425,o),
(233,425,cs),
(113,425,o),
(38,331,o),
(38,181,cs),
(38,67,o),
(91,-5,o),
(178,-5,cs)
);
},
{
closed = 1;
nodes = (
(162,99,o),
(145,129,o),
(145,178,cs),
(145,267,o),
(176,322,o),
(225,322,cs),
(254,322,o),
(273,301,o),
(273,265,cs),
(273,177,o),
(233,99,o),
(189,99,cs)
);
}
);
vertWidth = 0;
width = 425;
}
);
unicode = 111;
},
{
color = 6;
glyphname = p;
kernLeft = n_left;
kernRight = o_right;
layers = (
{
layerId = m01;
shapes = (
{
closed = 1;
nodes = (
(320,0,o),
(328,2,o),
(339,11,cs),
(435,90,ls),
(455,107,o),
(465,120,o),
(465,134,cs),
(465,149,o),
(456,157,o),
(442,157,cs),
(429,157,o),
(415,150,o),
(397,135,cs),
(358,102,l),
(387,273,ls),
(400,349,o),
(362,421,o),
(277,421,cs),
(211,421,o),
(163,379,o),
(108,292,c),
(96,207,l),
(170,321,o),
(223,366,o),
(273,366,cs),
(326,366,o),
(335,317,o),
(328,277,cs),
(285,34,ls),
(283,20,o),
(284,0,o),
(310,0,cs)
);
},
{
closed = 1;
nodes = (
(-6,-356,o),
(11,-347,o),
(14,-329,cs),
(141,388,ls),
(145,406,o),
(131,416,o),
(115,416,cs),
(101,416,o),
(84,406,o),
(81,388,cs),
(-46,-328,ls),
(-50,-347,o),
(-36,-356,o),
(-20,-356,cs)
);
}
);
vertWidth = 0;
width = 511;
},
{
layerId = "140DECC1-64C4-40C0-9C07-503DBC3F4160";
shapes = (
{
closed = 1;
nodes = (
(354,0,o),
(369,12,o),
(381,23,cs),
(480,105,ls),
(498,119,o),
(511,135,o),
(513,151,cs),
(518,181,o),
(494,203,o),
(465,204,cs),
(451,206,o),
(436,201,o),
(421,191,cs),
(417,189,l),
(424,229,ls),
(447,359,o),
(412,425,o),
(322,425,cs),
(267,425,o),
(222,381,o),
(177,318,c),
(152,162,l),
(207,259,o),
(251,323,o),
(282,323,cs),
(305,323,o),
(315,297,o),
(307,247,cs),
(273,58,ls),
(268,30,o),
(287,0,o),
(326,0,cs)
);
},
{
closed = 1;
nodes = (
(51,-356,o),
(74,-330,o),
(77,-312,cs),
(196,359,ls),
(202,394,o),
(183,416,o),
(145,416,cs),
(95,416,o),
(80,380,o),
(77,366,cs),
(-42,-304,ls),
(-46,-333,o),
(-33,-356,o),
(7,-356,cs)
);
}
);
vertWidth = 0;
width = 532;
}
);
unicode = 112;
},
{
color = 6;
glyphname = q;
kernLeft = o_left;
layers = (
{
layerId = m01;
shapes = (
{
closed = 1;
nodes = (
(192,-5,o),
(263,58,o),
(310,188,c),
(324,321,l),
(261,153,o),
(194,50,o),
(139,50,cs),
(100,50,o),
(78,97,o),
(91,175,cs),
(112,290,o),
(195,361,o),
(309,361,cs),
(358,361,l),
(367,416,l),
(305,416,ls),
(163,416,o),
(58,323,o),
(31,175,cs),
(11,64,o),
(52,-5,o),
(129,-5,cs)
);
},
{
closed = 1;
nodes = (
(245,-356,o),
(253,-354,o),
(264,-346,cs),
(360,-266,ls),
(380,-249,o),
(390,-236,o),
(390,-222,cs),
(390,-208,o),
(381,-200,o),
(367,-200,cs),
(354,-200,o),
(340,-207,o),
(322,-221,cs),
(283,-254,l),
(396,388,ls),
(397,398,o),
(396,416,o),
(369,416,cs),
(340,416,l),
(210,-322,ls),
(208,-336,o),
(209,-356,o),
(235,-356,cs)
);
}
);
vertWidth = 0;
width = 422;
},
{
layerId = "140DECC1-64C4-40C0-9C07-503DBC3F4160";
shapes = (
{
closed = 1;
nodes = (
(192,-5,o),
(245,46,o),
(297,146,c),
(304,301,l),
(252,169,o),
(196,99,o),
(171,99,cs),
(152,99,o),
(144,129,o),
(151,175,cs),
(165,258,o),
(228,312,o),
(317,312,cs),
(328,312,l),
(342,416,l),
(314,416,ls),
(165,416,o),
(57,323,o),
(31,175,cs),
(11,64,o),
(52,-5,o),
(139,-5,cs)
);
},
{
closed = 1;
nodes = (
(264,-356,o),
(282,-350,o),
(293,-337,c),
(409,-246,ls),
(426,-232,o),
(440,-215,o),
(442,-200,cs),
(447,-170,o),
(423,-147,o),
(393,-146,cs),
(379,-145,o),
(364,-151,o),
(346,-163,cs),
(342,-165,l),
(435,364,ls),
(440,387,o),
(419,416,o),
(378,416,cs),
(324,416,l),
(198,-295,ls),
(191,-333,o),
(216,-356,o),
(248,-356,cs)
);
}
);
vertWidth = 0;
width = 466;
}
);
unicode = 113;
},
{
color = 6;
glyphname = r;
kernLeft = n_left;
layers = (
{
layerId = m01;
shapes = (
{
closed = 1;
nodes = (
(58,0,o),
(75,11,o),
(78,32,cs),
(139,380,ls),
(143,404,o),
(129,416,o),
(114,416,cs),
(100,416,o),
(83,405,o),
(80,384,cs),
(18,32,ls),
(14,11,o),
(27,0,o),
(43,0,cs)
);
},
{
closed = 1;
nodes = (
(185,339,o),
(228,365,o),
(248,365,cs),
(265,365,o),
(279,330,o),
(315,330,cs),
(328,330,o),
(354,335,o),
(375,348,cs),
(394,359,o),
(409,372,o),
(409,391,cs),
(409,416,o),
(377,419,o),
(353,403,cs),
(345,397,o),
(328,387,o),
(316,387,cs),
(293,387,o),
(297,421,o),
(258,421,cs),
(214,421,o),
(159,378,o),
(119,296,c),
(101,209,l)
);
}
);
vertWidth = 0;
width = 399;
},
{
layerId = "140DECC1-64C4-40C0-9C07-503DBC3F4160";
shapes = (
{
closed = 1;
nodes = (
(103,0,o),
(134,17,o),
(140,49,cs),
(194,353,ls),
(201,391,o),
(170,416,o),
(139,416,cs),
(113,416,o),
(82,399,o),
(76,367,cs),
(21,57,ls),
(15,21,o),
(45,0,o),
(76,0,cs)
);
},
{
closed = 1;
nodes = (
(195,253,o),
(246,314,o),
(263,314,cs),
(283,314,o),
(305,290,o),
(339,290,cs),
(358,290,o),
(393,308,o),
(415,320,cs),
(434,330,o),
(465,342,o),
(465,378,cs),
(465,429,o),
(409,432,o),
(385,416,cs),
(377,410,o),
(358,396,o),
(342,396,cs),
(320,396,o),
(323,425,o),
(284,425,cs),
(240,425,o),
(176,327,o),
(139,241,c),
(120,93,l)
);
}
);
vertWidth = 0;
width = 459;
}
);
unicode = 114;
},
{
color = 6;
glyphname = s;
layers = (
{
layerId = m01;
shapes = (
{
closed = 1;
nodes = (
(239,-5,o),
(296,42,o),
(296,105,cs),
(296,149,o),
(280,172,o),
(259,192,cs),
(233,219,o),
(202,232,o),
(170,254,cs),
(144,272,o),
(116,292,o),
(116,315,cs),
(116,343,o),
(147,361,o),
(196,361,cs),
(234,361,o),
(266,339,o),
(280,331,cs),
(301,321,o),
(322,323,o),
(331,337,cs),
(341,353,o),
(331,373,o),
(308,386,cs),
(265,411,o),
(228,416,o),
(196,416,cs),
(110,416,o),
(57,378,o),
(57,315,cs),
(57,268,o),
(95,230,o),
(129,209,cs),
(162,189,o),
(191,171,o),
(208,158,cs),
(223,145,o),
(236,131,o),
(236,108,cs),
(236,75,o),
(206,50,o),
(163,50,cs),
(125,50,o),
(87,75,o),
(69,88,cs),
(51,101,o),
(27,101,o),
(19,87,cs),
(7,67,o),
(24,53,o),
(44,38,cs),
(84,8,o),
(131,-5,o),
(163,-5,cs)
);
}
);
vertWidth = 0;
width = 362;
},
{
layerId = "140DECC1-64C4-40C0-9C07-503DBC3F4160";
shapes = (
{
closed = 1;
nodes = (
(265,-5,o),
(321,43,o),
(321,119,cs),
(321,168,o),
(305,189,o),
(283,210,cs),
(270,223,o),
(240,241,o),
(216,257,cs),
(181,279,o),
(166,295,o),
(166,309,cs),
(166,320,o),
(178,326,o),
(198,326,cs),
(226,326,o),
(255,318,o),
(274,308,cs),
(304,292,o),
(340,290,o),
(354,316,cs),
(373,352,o),
(353,384,o),
(309,405,cs),
(279,419,o),
(240,425,o),
(208,425,cs),
(114,425,o),
(57,381,o),
(57,309,cs),
(57,257,o),
(83,215,o),
(134,185,cs),
(160,169,o),
(184,153,o),
(200,143,cs),
(209,135,o),
(211,131,o),
(211,122,cs),
(211,109,o),
(201,97,o),
(177,97,cs),
(150,97,o),
(120,114,o),
(110,120,cs),
(84,137,o),
(45,143,o),
(29,115,cs),
(11,87,o),
(24,53,o),
(70,24,cs),
(100,5,o),
(144,-5,o),
(176,-5,cs)
);
}
);
vertWidth = 0;
width = 385;
}
);
unicode = 115;
},
{
color = 6;
glyphname = t;
layers = (
{
layerId = m01;
shapes = (
{
closed = 1;
nodes = (
(115,0,o),
(131,8,o),
(134,27,cs),
(241,642,ls),
(245,663,o),
(228,675,o),
(211,675,cs),
(198,675,o),
(187,666,o),
(183,650,cs),
(72,29,ls),
(69,10,o),
(84,0,o),
(100,0,cs)
);
},
{
closed = 1;
nodes = (
(295,362,ls),
(318,362,o),
(326,375,o),
(326,390,cs),
(326,404,o),
(318,416,o),
(295,416,cs),
(52,416,ls),
(29,416,o),
(21,404,o),
(21,390,cs),
(21,375,o),
(29,362,o),
(52,362,cs)
);
}
);
vertWidth = 0;
width = 320;
},
{
layerId = "140DECC1-64C4-40C0-9C07-503DBC3F4160";
shapes = (
{
closed = 1;
nodes = (
(168,0,o),
(194,11,o),
(200,42,cs),
(302,621,ls),
(309,662,o),
(274,675,o),
(242,675,cs),
(216,675,o),
(189,659,o),
(184,632,cs),
(82,52,ls),
(75,14,o),
(107,0,o),
(138,0,cs)
);
},
{
closed = 1;
nodes = (
(327,315,ls),
(365,315,o),
(386,336,o),
(386,365,cs),
(386,394,o),
(365,416,o),
(327,416,cs),
(77,416,ls),
(39,416,o),
(18,394,o),
(18,365,cs),
(18,336,o),
(39,315,o),
(77,315,cs)
);
}
);
vertWidth = 0;
width = 385;
}
);
unicode = 116;
},
{
color = 6;
glyphname = u;
kernLeft = n_left;
kernRight = n_right;
layers = (
{
layerId = m01;
shapes = (
{
closed = 1;
nodes = (
(202,-5,o),
(247,32,o),
(304,124,c),
(316,209,l),
(245,99,o),
(197,50,o),
(151,50,cs),
(108,50,o),
(87,86,o),
(96,139,cs),
(140,387,ls),
(141,397,o),
(140,416,o),
(114,416,cs),
(83,416,o),
(82,397,o),
(81,391,cs),
(37,143,ls),
(21,51,o),
(64,-5,o),
(147,-5,cs)
);
},
{
closed = 1;
nodes = (
(317,0,o),
(328,11,o),
(333,32,cs),
(396,388,ls),
(397,398,o),
(396,416,o),
(369,416,cs),
(339,416,o),
(336,394,o),
(335,388,cs),
(272,32,ls),
(270,12,o),
(273,0,o),
(293,0,cs)
);
}
);
vertWidth = 0;
width = 422;
},
{
layerId = "140DECC1-64C4-40C0-9C07-503DBC3F4160";
shapes = (
{
closed = 1;
nodes = (
(191,-5,o),
(238,30,o),
(286,97,c),
(311,254,l),
(253,150,o),
(211,97,o),
(188,97,cs),
(163,97,o),
(154,121,o),
(163,169,cs),
(196,358,ls),
(201,386,o),
(182,416,o),
(144,416,cs),
(101,416,o),
(82,393,o),
(78,375,cs),
(45,187,ls),
(23,59,o),
(57,-5,o),
(147,-5,cs)
);
},
{
closed = 1;
nodes = (
(368,0,o),
(384,36,o),
(386,50,cs),
(442,364,ls),
(447,392,o),
(434,416,o),
(393,416,cs),
(349,416,o),
(327,390,o),
(323,372,cs),
(267,57,ls),
(261,21,o),
(280,0,o),
(318,0,cs)
);
}
);
vertWidth = 0;
width = 473;
}
);
unicode = 117;
},
{
color = 6;
glyphname = v;
kernLeft = v_left;
kernRight = v_right;
layers = (
{
layerId = m01;
shapes = (
{
closed = 1;
nodes = (
(181,-5,o),
(287,112,o),
(410,342,cs),
(415,352,l),
(481,337,ls),
(506,331,o),
(531,341,o),
(531,368,cs),
(531,381,o),
(524,393,o),
(503,397,cs),
(425,412,o),
(406,416,o),
(402,416,cs),
(380,416,o),
(373,400,o),
(359,374,cs),
(249,163,o),
(165,50,o),
(107,50,cs),
(90,50,o),
(86,74,o),
(94,121,cs),
(140,380,ls),
(145,404,o),
(131,416,o),
(115,416,cs),
(101,416,o),
(83,405,o),
(80,384,cs),
(33,121,ls),
(23,59,o),
(27,-5,o),
(90,-5,cs)
);
}
);
vertWidth = 0;
width = 514;
},
{
layerId = "140DECC1-64C4-40C0-9C07-503DBC3F4160";
shapes = (
{
closed = 1;
nodes = (
(226,-5,o),
(355,120,o),
(440,286,cs),
(443,293,l),
(488,284,ls),
(536,274,o),
(575,296,o),
(575,342,cs),
(575,368,o),
(557,391,o),
(522,398,cs),
(437,415,o),
(430,416,o),
(425,416,cs),
(393,416,o),
(377,400,o),
(359,365,cs),
(283,210,o),
(200,99,o),
(163,99,cs),
(153,99,o),
(151,109,o),
(156,137,cs),
(195,353,ls),
(202,392,o),
(175,416,o),
(143,416,cs),
(116,416,o),
(82,397,o),
(76,365,cs),
(36,137,ls),
(20,43,o),
(53,-5,o),
(132,-5,cs)
);
}
);
vertWidth = 0;
width = 563;
}
);
unicode = 118;
},
{
color = 6;
glyphname = w;
kernLeft = v_left;
kernRight = v_right;
layers = (
{
layerId = m01;
shapes = (
{
closed = 1;
nodes = (
(188,-5,o),
(282,126,o),
(354,257,c),
(347,257,l),
(321,121,ls),
(309,62,o),
(314,-5,o),
(378,-5,cs),
(519,-5,o),
(675,297,o),
(697,342,cs),
(702,352,l),
(769,337,ls),
(796,331,o),
(819,341,o),
(819,367,cs),
(819,381,o),
(811,393,o),
(790,397,cs),
(725,410,o),
(694,416,o),
(689,416,cs),
(668,416,o),
(661,400,o),
(646,374,cs),
(592,268,o),
(474,50,o),
(394,50,cs),
(377,50,o),
(372,74,o),
(381,121,cs),
(428,380,ls),
(432,404,o),
(418,416,o),
(403,416,c),
(381,416,o),
(372,400,o),
(359,374,cs),
(304,264,o),
(183,50,o),
(107,50,cs),
(89,50,o),
(84,74,o),
(94,121,cs),
(140,380,ls),
(145,404,o),
(131,416,o),
(115,416,cs),
(101,416,o),
(83,405,o),
(80,384,cs),
(33,121,ls),
(21,62,o),
(26,-5,o),
(90,-5,cs)
);
}
);
vertWidth = 0;
width = 802;
},
{
layerId = "140DECC1-64C4-40C0-9C07-503DBC3F4160";
shapes = (
{
closed = 1;
nodes = (
(198,-5,o),
(263,58,o),
(343,183,c),
(329,189,l),
(322,137,ls),
(307,43,o),
(340,-5,o),
(418,-5,cs),
(512,-5,o),
(642,120,o),
(726,286,cs),
(729,293,l),
(775,284,ls),
(822,274,o),
(861,296,o),
(861,342,cs),
(861,368,o),
(843,391,o),
(808,398,cs),
(723,415,o),
(716,416,o),
(712,416,cs),
(680,416,o),
(663,400,o),
(645,365,cs),
(569,210,o),
(486,99,o),
(449,99,cs),
(440,99,o),
(437,109,o),
(442,137,cs),
(481,353,ls),
(488,392,o),
(461,416,o),
(425,416,cs),
(393,416,o),
(377,400,o),
(359,365,cs),
(283,210,o),
(200,99,o),
(163,99,cs),
(153,99,o),
(151,109,o),
(156,137,cs),
(195,353,ls),
(202,392,o),
(175,416,o),
(143,416,cs),
(116,416,o),
(82,397,o),
(76,365,cs),
(36,137,ls),
(20,43,o),
(53,-5,o),
(132,-5,cs)
);
}
);
vertWidth = 0;
width = 849;
}
);
unicode = 119;
},
{
color = 6;
glyphname = x;
layers = (
{
layerId = m01;
shapes = (
{
closed = 1;
nodes = (
(226,-5,o),
(299,127,o),
(301,303,cs),
(301,392,o),
(260,421,o),
(216,421,cs),
(157,421,o),
(107,383,o),
(70,309,cs),
(65,298,o),
(71,284,o),
(84,277,cs),
(100,268,o),
(116,270,o),
(122,282,cs),
(150,334,o),
(179,366,o),
(211,366,cs),
(245,366,o),
(254,324,o),
(253,291,cs),
(249,156,o),
(190,50,o),
(125,50,cs),
(99,50,o),
(75,55,o),
(53,63,cs),
(33,71,o),
(18,70,o),
(11,52,cs),
(2,34,o),
(10,18,o),
(29,11,cs),
(55,0,o),
(87,-5,o),
(125,-5,cs)
);
},
{
closed = 1;
nodes = (
(390,-5,o),
(456,57,o),
(506,156,cs),
(511,166,o),
(505,181,o),
(492,188,cs),
(476,196,o),
(460,195,o),
(454,183,cs),
(413,103,o),
(368,50,o),
(336,50,cs),
(303,50,o),
(293,91,o),
(295,125,cs),
(298,260,o),
(358,366,o),
(423,366,cs),
(449,366,o),
(473,361,o),
(494,353,cs),
(514,345,o),
(530,346,o),
(537,364,cs),
(545,381,o),
(538,398,o),
(519,405,cs),
(493,416,o),
(461,421,o),
(423,421,cs),
(322,421,o),
(246,289,o),
(246,113,cs),
(246,24,o),
(287,-5,o),
(331,-5,cs)
);
}
);
vertWidth = 0;
width = 574;
},
{
layerId = "140DECC1-64C4-40C0-9C07-503DBC3F4160";
shapes = (
{
closed = 1;
nodes = (
(264,-5,o),
(315,103,o),
(334,278,cs),
(345,369,o),
(335,425,o),
(251,425,cs),
(172,425,o),
(114,391,o),
(77,323,cs),
(70,310,o),
(71,278,o),
(102,263,cs),
(133,247,o),
(164,254,o),
(173,272,cs),
(191,305,o),
(214,322,o),
(239,322,cs),
(254,322,o),
(263,307,o),
(260,280,cs),
(247,164,o),
(203,93,o),
(143,93,cs),
(125,93,o),
(106,96,o),
(83,106,cs),
(56,116,o),
(30,106,o),
(17,78,cs),
(-2,38,o),
(29,17,o),
(44,11,cs),
(70,0,o),
(101,-5,o),
(143,-5,cs)
);
},
{
closed = 1;
nodes = (
(430,-5,o),
(507,52,o),
(557,144,cs),
(564,157,o),
(563,189,o),
(532,204,cs),
(501,220,o),
(470,213,o),
(461,195,cs),
(430,135,o),
(394,99,o),
(367,99,cs),
(352,99,o),
(343,114,o),
(346,140,cs),
(359,257,o),
(403,328,o),
(463,328,cs),
(481,328,o),
(500,324,o),
(523,315,cs),
(550,304,o),
(576,315,o),
(589,342,cs),
(608,383,o),
(577,404,o),
(562,410,cs),
(536,421,o),
(505,425,o),
(463,425,cs),
(342,425,o),
(291,317,o),
(272,143,cs),
(261,51,o),
(271,-5,o),
(355,-5,cs)
);
}
);
vertWidth = 0;
width = 617;
}
);
unicode = 120;
},
{
color = 6;
glyphname = y;
kernLeft = n_left;
kernRight = n_right;
layers = (
{
layerId = m01;
shapes = (
{
closed = 1;
nodes = (
(202,-5,o),
(247,32,o),
(304,124,c),
(316,209,l),
(245,99,o),
(197,50,o),
(151,50,cs),
(108,50,o),
(87,86,o),
(96,139,cs),
(140,387,ls),
(141,397,o),
(140,416,o),
(114,416,cs),
(83,416,o),
(82,397,o),
(81,391,cs),
(37,143,ls),
(21,51,o),
(64,-5,o),
(147,-5,cs)
);
},
{
closed = 1;
nodes = (
(214,-356,o),
(276,-290,o),
(304,-127,cs),
(394,384,ls),
(398,404,o),
(393,416,o),
(373,416,c),
(349,416,o),
(337,405,o),
(334,384,cs),
(245,-122,ls),
(223,-246,o),
(185,-297,o),
(109,-297,cs),
(75,-297,o),
(40,-287,o),
(18,-271,cs),
(5,-263,o),
(-12,-267,o),
(-20,-277,cs),
(-31,-290,o),
(-30,-308,o),
(-18,-317,cs),
(11,-341,o),
(58,-356,o),
(108,-356,cs)
);
}
);
vertWidth = 0;
width = 422;
},
{
layerId = "140DECC1-64C4-40C0-9C07-503DBC3F4160";
shapes = (
{
closed = 1;
nodes = (
(191,-5,o),
(238,30,o),
(286,97,c),
(311,254,l),
(253,150,o),
(211,97,o),
(188,97,cs),
(163,97,o),
(154,121,o),
(163,169,cs),
(196,358,ls),
(201,386,o),
(182,416,o),
(144,416,cs),
(101,416,o),
(82,393,o),
(78,375,cs),
(45,187,ls),
(23,59,o),
(57,-5,o),
(147,-5,cs)
);
},
{
closed = 1;
nodes = (
(247,-356,o),
(331,-255,o),
(367,-56,cs),
(441,359,ls),
(447,394,o),
(428,416,o),
(390,416,cs),
(340,416,o),
(324,380,o),
(322,366,cs),
(248,-48,ls),
(220,-206,o),
(154,-241,o),
(108,-241,cs),
(86,-241,o),
(69,-233,o),
(59,-227,cs),
(34,-211,o),
(4,-217,o),
(-12,-242,cs),
(-31,-271,o),
(-26,-304,o),
(-1,-322,cs),
(17,-335,o),
(59,-356,o),
(116,-356,cs)
);
}
);
vertWidth = 0;
width = 473;
}
);
unicode = 121;
},
{
color = 6;
glyphname = z;
layers = (
{
layerId = m01;
shapes = (
{
closed = 1;
nodes = (
(292,0,ls),
(316,0,o),
(323,15,o),
(323,30,cs),
(323,44,o),
(316,55,o),
(292,55,cs),
(67,55,l),
(75,33,l),
(364,366,ls),
(383,387,o),
(377,416,o),
(346,416,cs),
(100,416,ls),
(76,416,o),
(69,400,o),
(69,386,cs),
(69,372,o),
(76,361,o),
(100,361,cs),
(312,361,l),
(304,383,l),
(15,52,ls),
(-2,32,o),
(7,0,o),
(32,0,cs)
);
}
);
vertWidth = 0;
width = 413;
},
{
layerId = "140DECC1-64C4-40C0-9C07-503DBC3F4160";
shapes = (
{
closed = 1;
nodes = (
(323,0,ls),
(359,0,o),
(380,23,o),
(380,51,cs),
(380,80,o),
(359,103,o),
(323,103,cs),
(159,103,l),
(163,76,l),
(397,318,ls),
(442,366,o),
(421,416,o),
(366,416,cs),
(122,416,ls),
(87,416,o),
(65,391,o),
(65,362,cs),
(65,334,o),
(87,312,o),
(122,312,cs),
(267,312,l),
(264,334,l),
(27,89,ls),
(-5,57,o),
(10,0,o),
(64,0,cs)
);
}
);
vertWidth = 0;
width = 455;
}
);
unicode = 122;
},
{
color = 6;
glyphname = zero;
layers = (
{
layerId = m01;
shapes = (
{
closed = 1;
nodes = (
(412,-4,o),
(541,177,o),
(541,418,cs),
(541,579,o),
(473,676,o),
(364,676,cs),
(195,675,o),
(67,494,o),
(67,253,cs),
(67,93,o),
(134,-4,o),
(244,-4,cs)
);
},
{
closed = 1;
nodes = (
(170,56,o),
(126,128,o),
(126,247,cs),
(126,459,o),
(228,617,o),
(365,617,cs),
(437,617,o),
(481,543,o),
(481,424,cs),
(481,213,o),
(379,56,o),
(242,56,cs)
);
}
);
vertWidth = 0;
width = 571;
},
{
layerId = "140DECC1-64C4-40C0-9C07-503DBC3F4160";
shapes = (
{
closed = 1;
nodes = (
(394,-4,o),
(538,204,o),
(538,435,cs),
(538,583,o),
(467,676,o),
(353,676,cs),
(120,676,o),
(55,404,o),
(55,264,cs),
(55,97,o),
(124,-5,o),
(235,-5,cs)
);
},
{
closed = 1;
nodes = (
(197,102,o),
(173,164,o),
(173,259,cs),
(173,393,o),
(229,569,o),
(355,569,cs),
(396,569,o),
(421,518,o),
(421,438,cs),
(421,263,o),
(333,102,o),
(235,102,cs)
);
}
);
vertWidth = 0;
width = 565;
}
);
unicode = 48;
},
{
color = 6;
glyphname = one;
layers = (
{
layerId = m01;
shapes = (
{
closed = 1;
nodes = (
(82,0,o),
(97,7,o),
(101,27,cs),
(210,645,ls),
(214,665,o),
(201,675,o),
(185,675,cs),
(170,675,o),
(153,666,o),
(150,645,cs),
(42,33,ls),
(38,11,o),
(52,0,o),
(68,0,cs)
);
}
);
vertWidth = 0;
width = 215;
},
{
layerId = "140DECC1-64C4-40C0-9C07-503DBC3F4160";
shapes = (
{
closed = 1;
nodes = (
(128,0,o),
(158,14,o),
(164,46,cs),
(265,615,ls),
(271,651,o),
(242,675,o),
(210,675,cs),
(183,675,o),
(152,658,o),
(146,625,cs),
(46,61,ls),
(39,21,o),
(70,0,o),
(102,0,cs)
);
}
);
vertWidth = 0;
width = 276;
}
);
unicode = 49;
},
{
color = 6;
glyphname = two;
layers = (
{
layerId = m01;
shapes = (
{
closed = 1;
nodes = (
(368,0,ls),
(392,0,o),
(399,15,o),
(399,30,cs),
(399,44,o),
(392,55,o),
(368,55,cs),
(96,55,l),
(90,32,l),
(181,137,o),
(343,312,o),
(359,330,cs),
(446,436,o),
(492,508,o),
(492,562,cs),
(492,632,o),
(435,675,o),
(341,675,cs),
(267,675,o),
(185,643,o),
(134,600,cs),
(106,576,o),
(110,561,o),
(120,550,cs),
(129,539,o),
(149,536,o),
(178,560,cs),
(220,594,o),
(286,620,o),
(341,620,cs),
(398,620,o),
(432,596,o),
(432,557,cs),
(432,511,o),
(384,447,o),
(340,394,cs),
(309,358,o),
(181,220,o),
(26,42,cs),
(6,19,o),
(19,0,o),
(45,0,c)
);
}
);
vertWidth = 0;
width = 489;
},
{
layerId = "140DECC1-64C4-40C0-9C07-503DBC3F4160";
shapes = (
{
closed = 1;
nodes = (
(368,0,ls),
(404,0,o),
(428,24,o),
(428,56,cs),
(428,84,o),
(406,107,o),
(368,107,cs),
(164,107,l),
(176,81,l),
(287,206,o),
(379,302,o),
(388,314,cs),
(473,418,o),
(514,491,o),
(514,546,cs),
(514,626,o),
(449,675,o),
(342,675,cs),
(265,675,o),
(178,642,o),
(127,599,cs),
(87,565,o),
(94,539,o),
(114,516,cs),
(128,500,o),
(164,491,o),
(209,526,cs),
(246,556,o),
(298,573,o),
(340,573,cs),
(375,573,o),
(398,561,o),
(398,541,cs),
(398,511,o),
(362,457,o),
(320,407,cs),
(289,372,o),
(173,244,o),
(25,77,cs),
(-12,34,o),
(18,0,o),
(64,0,cs)
);
}
);
vertWidth = 0;
width = 516;
}
);
unicode = 50;
},
{
color = 6;
glyphname = three;
layers = (
{
layerId = m01;
shapes = (
{
closed = 1;
nodes = (
(315,-5,o),
(459,125,o),
(459,268,cs),
(459,358,o),
(402,438,o),
(253,405,c),
(248,388,l),
(392,493,o),
(455,544,o),
(455,594,cs),
(455,644,o),
(410,675,o),
(337,675,cs),
(280,675,o),
(208,655,o),
(137,607,cs),
(107,588,o),
(113,568,o),
(119,558,cs),
(126,546,o),
(145,541,o),
(160,551,cs),
(233,600,o),
(301,620,o),
(345,620,cs),
(377,620,o),
(397,608,o),
(397,592,cs),
(397,551,o),
(236,435,o),
(137,373,cs),
(116,360,o),
(119,342,o),
(124,333,cs),
(129,321,o),
(149,316,o),
(166,327,cs),
(222,361,o),
(272,362,o),
(305,362,cs),
(375,362,o),
(399,316,o),
(399,267,cs),
(399,156,o),
(284,50,o),
(154,50,cs),
(126,50,o),
(97,58,o),
(80,72,cs),
(51,94,o),
(36,88,o),
(30,80,cs),
(24,71,o),
(17,53,o),
(46,30,cs),
(72,8,o),
(113,-5,o),
(153,-5,cs)
);
}
);
vertWidth = 0;
width = 510;
},
{
layerId = "140DECC1-64C4-40C0-9C07-503DBC3F4160";
shapes = (
{
closed = 1;
nodes = (
(339,-5,o),
(494,126,o),
(494,272,cs),
(494,388,o),
(417,440,o),
(292,407,c),
(290,386,l),
(441,493,o),
(491,530,o),
(491,588,cs),
(491,636,o),
(431,675,o),
(350,675,cs),
(286,675,o),
(214,653,o),
(143,606,cs),
(103,581,o),
(106,551,o),
(119,529,cs),
(134,503,o),
(168,504,o),
(195,522,cs),
(260,565,o),
(320,580,o),
(356,580,cs),
(365,580,o),
(375,579,o),
(375,571,cs),
(375,552,o),
(236,453,o),
(145,396,cs),
(113,375,o),
(112,345,o),
(124,321,cs),
(137,296,o),
(173,282,o),
(209,304,cs),
(251,330,o),
(285,342,o),
(312,342,cs),
(355,342,o),
(379,314,o),
(379,271,cs),
(379,176,o),
(266,99,o),
(191,99,cs),
(153,99,o),
(131,106,o),
(113,119,cs),
(76,147,o),
(42,137,o),
(26,115,cs),
(12,96,o),
(6,64,o),
(45,33,cs),
(76,8,o),
(120,-5,o),
(177,-5,cs)
);
}
);
vertWidth = 0;
width = 544;
}
);
unicode = 51;
},
{
color = 6;
glyphname = four;
layers = (
{
layerId = m01;
shapes = (
{
closed = 1;
nodes = (
(435,160,ls),
(454,160,o),
(466,173,o),
(466,188,cs),
(466,202,o),
(454,214,o),
(435,214,cs),
(124,214,l),
(374,642,ls),
(386,663,o),
(366,676,o),
(352,676,cs),
(337,676,o),
(322,671,o),
(310,650,cs),
(52,210,ls),
(34,179,o),
(57,160,o),
(78,160,cs)
);
},
{
closed = 1;
nodes = (
(270,-1,o),
(286,7,o),
(291,31,cs),
(342,307,ls),
(346,327,o),
(333,339,o),
(318,341,cs),
(303,343,o),
(286,335,o),
(283,315,cs),
(232,37,ls),
(227,13,o),
(240,1,o),
(255,0,cs)
);
}
);
vertWidth = 0;
width = 527;
},
{
guides = (
{
name = " [#kC2ohKlSA4]";
pos = (525,569);
}
);
layerId = "140DECC1-64C4-40C0-9C07-503DBC3F4160";
shapes = (
{
closed = 1;
nodes = (
(435,145,ls),
(468,145,o),
(493,170,o),
(493,200,cs),
(493,228,o),
(468,252,o),
(435,252,cs),
(182,252,l),
(384,594,ls),
(417,650,o),
(374,676,o),
(346,676,c),
(314,676,o),
(298,661,o),
(279,627,cs),
(51,240,ls),
(11,172,o),
(48,145,o),
(102,145,cs)
);
},
{
closed = 1;
nodes = (
(302,0,o),
(321,19,o),
(327,52,cs),
(368,279,ls),
(374,314,o),
(361,335,o),
(333,341,cs),
(304,346,o),
(280,328,o),
(274,295,cs),
(233,70,ls),
(226,31,o),
(238,0,o),
(268,0,cs)
);
}
);
vertWidth = 0;
width = 554;
}
);
unicode = 52;
},
{
color = 6;
glyphname = five;
layers = (
{
layerId = m01;
shapes = (
{
closed = 1;
nodes = (
(303,-5,o),
(416,106,o),
(416,245,cs),
(416,346,o),
(342,416,o),
(244,416,cs),
(195,416,o),
(172,413,o),
(110,393,c),
(137,375,l),
(187,657,l),
(147,623,l),
(455,623,ls),
(479,623,o),
(486,634,o),
(486,649,cs),
(486,663,o),
(479,676,o),
(455,676,c),
(165,676,ls),
(144,676,o),
(131,666,o),
(126,643,cs),
(77,368,ls),
(74,350,o),
(86,340,o),
(101,340,cs),
(106,340,o),
(114,342,o),
(132,348,cs),
(159,356,o),
(192,361,o),
(222,361,cs),
(299,361,o),
(356,311,o),
(356,244,cs),
(356,139,o),
(268,50,o),
(151,50,cs),
(121,50,o),
(95,59,o),
(78,75,cs),
(70,83,o),
(62,86,o),
(51,86,cs),
(38,86,o),
(25,80,o),
(25,65,cs),
(25,55,o),
(30,44,o),
(40,33,cs),
(65,10,o),
(105,-5,o),
(151,-5,cs)
);
}
);
vertWidth = 0;
width = 472;
},
{
layerId = "140DECC1-64C4-40C0-9C07-503DBC3F4160";
shapes = (
{
closed = 1;
nodes = (
(323,-4,o),
(443,108,o),
(443,257,cs),
(443,371,o),
(383,441,o),
(285,441,cs),
(233,441,o),
(207,436,o),
(162,422,c),
(191,405,l),
(227,614,l),
(188,579,l),
(453,579,ls),
(491,579,o),
(511,600,o),
(511,628,cs),
(511,661,o),
(488,678,o),
(453,678,c),
(196,678,ls),
(151,678,o),
(119,665,o),
(110,621,cs),
(65,371,ls),
(58,334,o),
(93,314,o),
(116,314,cs),
(127,314,o),
(137,316,o),
(145,318,cs),
(175,327,o),
(202,334,o),
(232,334,cs),
(289,334,o),
(324,298,o),
(324,241,cs),
(324,159,o),
(255,99,o),
(164,99,cs),
(143,99,o),
(125,102,o),
(113,110,cs),
(99,120,o),
(88,131,o),
(64,131,cs),
(43,131,o),
(15,115,o),
(15,86,cs),
(15,69,o),
(23,53,o),
(39,37,cs),
(68,10,o),
(114,-4,o),
(163,-4,cs)
);
}
);
vertWidth = 0;
width = 497;
}
);
unicode = 53;
},
{
color = 6;
glyphname = six;
layers = (
{
layerId = m01;
shapes = (
{
closed = 1;
nodes = (
(312,0,o),
(436,144,o),
(436,305,cs),
(436,381,o),
(391,421,o),
(321,421,cs),
(264,421,o),
(102,379,o),
(102,220,c),
(108,173,l),
(131,340,o),
(276,366,o),
(303,366,cs),
(352,366,o),
(377,343,o),
(377,298,cs),
(377,172,o),
(285,55,o),
(188,55,cs),
(140,55,o),
(107,103,o),
(107,175,cs),
(107,448,o),
(297,556,o),
(405,623,cs),
(418,631,o),
(424,642,o),
(424,651,cs),
(423,664,o),
(413,675,o),
(398,675,cs),
(391,675,o),
(383,674,o),
(373,668,cs),
(248,596,o),
(49,461,o),
(49,149,cs),
(49,58,o),
(102,0,o),
(177,0,cs)
);
}
);
vertWidth = 0;
width = 482;
},
{
layerId = "140DECC1-64C4-40C0-9C07-503DBC3F4160";
shapes = (
{
closed = 1;
nodes = (
(315,-1,o),
(461,170,o),
(461,293,cs),
(461,386,o),
(415,421,o),
(358,421,cs),
(265,421,o),
(143,329,o),
(143,245,c),
(149,164,l),
(149,228,o),
(255,323,o),
(314,323,cs),
(335,323,o),
(349,310,o),
(349,278,cs),
(349,207,o),
(247,106,o),
(189,106,cs),
(165,106,o),
(149,124,o),
(149,164,cs),
(147,307,o),
(138,383,o),
(430,587,cs),
(450,601,o),
(460,619,o),
(460,638,cs),
(459,664,o),
(435,684,o),
(405,684,cs),
(393,684,o),
(380,681,o),
(367,675,c),
(184,568,o),
(37,413,o),
(37,158,cs),
(37,59,o),
(94,-1,o),
(188,-1,cs)
);
}
);
vertWidth = 0;
width = 507;
}
);
unicode = 54;
},
{
color = 6;
glyphname = seven;
layers = (
{
layerId = m01;
shapes = (
{
closed = 1;
nodes = (
(291,0,o),
(305,10,o),
(311,31,cs),
(480,646,ls),
(484,661,o),
(475,675,o),
(453,675,cs),
(159,675,ls),
(138,675,o),
(127,662,o),
(127,649,cs),
(127,634,o),
(138,620,o),
(159,620,cs),
(449,620,l),
(421,656,l),
(249,31,ls),
(244,10,o),
(261,0,o),
(277,0,cs)
);
}
);
vertWidth = 0;
width = 461;
},
{
layerId = "140DECC1-64C4-40C0-9C07-503DBC3F4160";
shapes = (
{
closed = 1;
nodes = (
(310,0,o),
(337,18,o),
(346,50,cs),
(503,623,ls),
(511,655,o),
(498,675,o),
(448,675,cs),
(171,675,ls),
(135,675,o),
(112,649,o),
(112,620,cs),
(112,592,o),
(135,568,o),
(171,568,cs),
(413,568,l),
(387,614,l),
(230,59,ls),
(220,24,o),
(251,0,o),
(283,0,cs)
);
}
);
vertWidth = 0;
width = 488;
}
);
unicode = 55;
},
{
color = 6;
glyphname = eight;
layers = (
{
layerId = m01;
shapes = (
{
closed = 1;
nodes = (
(177,53,o),
(132,87,o),
(132,163,cs),
(132,239,o),
(171,279,o),
(263,346,cs),
(354,412,o),
(453,478,o),
(453,551,cs),
(453,650,o),
(367,675,o),
(287,675,cs),
(201,675,o),
(108,633,o),
(108,532,cs),
(108,460,o),
(190,391,o),
(222,359,cs),
(240,341,ls),
(283,298,o),
(352,230,o),
(352,177,cs),
(352,91,o),
(305,53,o),
(236,53,cs)
);
},
{
closed = 1;
nodes = (
(337,-1,o),
(411,69,o),
(411,177,cs),
(411,236,o),
(358,303,o),
(290,368,cs),
(254,403,ls),
(226,431,o),
(168,482,o),
(168,536,cs),
(168,599,o),
(232,620,o),
(284,620,cs),
(342,620,o),
(393,615,o),
(393,552,cs),
(393,500,o),
(309,447,o),
(226,386,cs),
(110,302,o),
(72,248,o),
(72,158,cs),
(72,64,o),
(143,-1,o),
(233,-1,cs)
);
}
);
vertWidth = 0;
width = 479;
},
{
layerId = "140DECC1-64C4-40C0-9C07-503DBC3F4160";
shapes = (
{
closed = 1;
nodes = (
(194,100,o),
(160,128,o),
(160,176,cs),
(160,210,o),
(184,260,o),
(295,341,cs),
(387,409,o),
(470,466,o),
(470,552,cs),
(470,632,o),
(368,675,o),
(283,675,cs),
(191,675,o),
(93,625,o),
(93,508,cs),
(93,422,o),
(169,369,o),
(195,343,cs),
(217,321,ls),
(260,278,o),
(316,226,o),
(316,175,cs),
(316,134,o),
(282,100,o),
(233,100,cs)
);
},
{
closed = 1;
nodes = (
(371,-1,o),
(429,102,o),
(429,185,cs),
(429,259,o),
(365,327,o),
(304,383,cs),
(274,410,ls),
(241,441,o),
(202,472,o),
(202,514,cs),
(202,558,o),
(246,574,o),
(287,574,cs),
(326,574,o),
(360,565,o),
(360,542,cs),
(360,518,o),
(287,465,o),
(220,418,cs),
(96,334,o),
(48,242,o),
(48,176,cs),
(48,103,o),
(102,-1,o),
(234,-1,cs)
);
}
);
vertWidth = 0;
width = 494;
}
);
unicode = 56;
},
{
color = 6;
glyphname = nine;
layers = (
{
layerId = m01;
shapes = (
{
closed = 1;
nodes = (
(258,254,o),
(362,369,o),
(469,600,c),
(426,620,l),
(327,415,o),
(241,309,o),
(166,309,cs),
(147,309,o),
(141,329,o),
(141,352,cs),
(141,514,o),
(214,620,o),
(330,620,cs),
(426,620,l),
(326,29,ls),
(322,10,o),
(336,0,o),
(350,0,cs),
(366,0,o),
(381,10,o),
(385,29,cs),
(494,649,ls),
(497,663,o),
(489,675,o),
(475,675,c),
(330,675,ls),
(177,675,o),
(82,549,o),
(82,346,cs),
(82,289,o),
(106,254,o),
(153,254,cs)
);
}
);
vertWidth = 0;
width = 499;
},
{
layerId = "140DECC1-64C4-40C0-9C07-503DBC3F4160";
shapes = (
{
closed = 1;
nodes = (
(254,248,o),
(347,331,o),
(453,571,c),
(390,571,l),
(343,479,o),
(242,355,o),
(204,355,cs),
(194,355,o),
(189,364,o),
(189,380,cs),
(189,489,o),
(249,568,o),
(331,568,cs),
(390,568,l),
(297,51,ls),
(290,13,o),
(324,-5,o),
(350,-5,cs),
(378,-5,o),
(410,12,o),
(416,43,cs),
(519,628,ls),
(525,659,o),
(507,675,o),
(468,675,cs),
(331,675,ls),
(181,675,o),
(68,535,o),
(68,346,cs),
(68,282,o),
(97,248,o),
(157,248,cs)
);
}
);
vertWidth = 0;
width = 527;
}
);
unicode = 57;
},
{
color = 6;
glyphname = .notdef;
layers = (
{
layerId = m01;
shapes = (
{
closed = 1;
nodes = (
(556,0,o),
(569,14,o),
(573,32,cs),
(708,800,ls),
(712,819,o),
(703,832,o),
(687,832,cs),
(216,832,ls),
(196,832,o),
(183,819,o),
(179,800,cs),
(44,32,ls),
(40,14,o),
(50,0,o),
(72,0,cs),
(543,0,ls)
);
},
{
closed = 1;
nodes = (
(236,778,l),
(644,778,l),
(517,53,l),
(108,53,l)
);
}
);
vertWidth = 0;
width = 743;
},
{
layerId = "140DECC1-64C4-40C0-9C07-503DBC3F4160";
shapes = (
{
closed = 1;
nodes = (
(609,0,o),
(637,31,o),
(642,58,cs),
(769,783,ls),
(775,816,o),
(757,832,o),
(713,832,c),
(261,832,l),
(228,832,o),
(203,816,o),
(197,783,cs),
(70,58,ls),
(64,25,o),
(81,0,o),
(127,0,cs),
(580,0,ls)
);
},
{
closed = 1;
nodes = (
(308,719,l),
(637,719,l),
(530,113,l),
(201,113,l)
);
}
);
vertWidth = 0;
width = 828;
}
);
},
{
color = 6;
glyphname = period;
kernLeft = period_left;
kernRight = period_right;
layers = (
{
layerId = m01;
shapes = (
{
closed = 1;
nodes = (
(122,-1,o),
(143,20,o),
(143,48,cs),
(143,74,o),
(122,94,o),
(95,94,cs),
(68,94,o),
(48,74,o),
(48,48,cs),
(48,20,o),
(68,-1,o),
(95,-1,cs)
);
}
);
vertWidth = 0;
width = 249;
},
{
layerId = "140DECC1-64C4-40C0-9C07-503DBC3F4160";
shapes = (
{
closed = 1;
nodes = (
(146,0,o),
(182,36,o),
(182,77,cs),
(182,116,o),
(146,150,o),
(107,150,cs),
(65,150,o),
(33,116,o),
(33,77,cs),
(33,36,o),
(65,0,o),
(107,0,cs)
);
}
);
vertWidth = 0;
width = 260;
}
);
unicode = 46;
},
{
color = 6;
glyphname = comma;
kernLeft = period_left;
kernRight = period_right;
layers = (
{
layerId = m01;
shapes = (
{
closed = 1;
nodes = (
(88,-121,o),
(99,-110,o),
(102,-93,cs),
(125,25,ls),
(128,46,o),
(113,59,o),
(95,59,cs),
(81,59,o),
(68,53,o),
(64,33,cs),
(43,-89,ls),
(39,-109,o),
(51,-121,o),
(71,-121,cs)
);
}
);
vertWidth = 0;
width = 249;
},
{
layerId = "140DECC1-64C4-40C0-9C07-503DBC3F4160";
shapes = (
{
closed = 1;
nodes = (
(106,-94,o),
(131,-81,o),
(140,-44,cs),
(171,80,ls),
(185,134,o),
(146,153,o),
(114,153,cs),
(83,153,o),
(59,141,o),
(50,103,cs),
(19,-20,ls),
(6,-74,o),
(44,-94,o),
(75,-94,cs)
);
}
);
vertWidth = 0;
width = 260;
}
);
unicode = 44;
},
{
color = 6;
glyphname = colon;
kernLeft = colon_left;
kernRight = colon_right;
layers = (
{
layerId = m01;
shapes = (
{
closed = 1;
nodes = (
(122,-1,o),
(143,20,o),
(143,48,cs),
(143,74,o),
(122,94,o),
(95,94,cs),
(68,94,o),
(48,74,o),
(48,48,cs),
(48,20,o),
(68,-1,o),
(95,-1,cs)
);
},
{
closed = 1;
nodes = (
(177,326,o),
(197,347,o),
(197,374,cs),
(197,400,o),
(177,421,o),
(150,421,cs),
(122,421,o),
(102,400,o),
(102,374,cs),
(102,347,o),
(122,326,o),
(150,326,cs)
);
}
);
vertWidth = 0;
width = 249;
},
{
layerId = "140DECC1-64C4-40C0-9C07-503DBC3F4160";
shapes = (
{
closed = 1;
nodes = (
(146,0,o),
(182,36,o),
(182,77,cs),
(182,116,o),
(146,150,o),
(107,150,cs),
(65,150,o),
(33,116,o),
(33,77,cs),
(33,36,o),
(65,0,o),
(107,0,cs)
);
},
{
closed = 1;
nodes = (
(203,277,o),
(239,312,o),
(239,354,cs),
(239,393,o),
(203,426,o),
(164,426,cs),
(122,426,o),
(90,393,o),
(90,354,cs),
(90,312,o),
(122,277,o),
(164,277,cs)
);
}
);
vertWidth = 0;
width = 260;
}
);
unicode = 58;
},
{
color = 6;
glyphname = semicolon;
kernLeft = colon_left;
kernRight = colon_right;
layers = (
{
layerId = m01;
shapes = (
{
closed = 1;
nodes = (
(89,-121,o),
(100,-110,o),
(103,-93,cs),
(125,25,ls),
(128,46,o),
(113,59,o),
(95,59,cs),
(81,59,o),
(68,53,o),
(64,33,cs),
(44,-89,ls),
(40,-109,o),
(52,-121,o),
(72,-121,cs)
);
},
{
closed = 1;
nodes = (
(177,326,o),
(197,347,o),
(197,374,cs),
(197,400,o),
(177,421,o),
(150,421,cs),
(122,421,o),
(102,400,o),
(102,374,cs),
(102,347,o),
(122,326,o),
(150,326,cs)
);
}
);
vertWidth = 0;
width = 249;
},
{
layerId = "140DECC1-64C4-40C0-9C07-503DBC3F4160";
shapes = (
{
closed = 1;
nodes = (
(106,-94,o),
(131,-81,o),
(140,-44,cs),
(171,80,ls),
(185,134,o),
(146,153,o),
(114,153,cs),
(83,153,o),
(59,141,o),
(50,103,cs),
(19,-20,ls),
(6,-74,o),
(44,-94,o),
(75,-94,cs)
);
},
{
closed = 1;
nodes = (
(203,277,o),
(239,312,o),
(239,354,cs),
(239,393,o),
(203,426,o),
(164,426,cs),
(122,426,o),
(90,393,o),
(90,354,cs),
(90,312,o),
(122,277,o),
(164,277,cs)
);
}
);
vertWidth = 0;
width = 260;
}
);
unicode = 59;
},
{
color = 6;
glyphname = ellipsis;
layers = (
{
layerId = m01;
shapes = (
{
closed = 1;
nodes = (
(139,-1,o),
(159,20,o),
(159,48,cs),
(159,74,o),
(139,94,o),
(112,94,cs),
(84,94,o),
(64,74,o),
(64,48,cs),
(64,20,o),
(84,-1,o),
(112,-1,cs)
);
},
{
closed = 1;
nodes = (
(305,-1,o),
(326,20,o),
(326,48,cs),
(326,74,o),
(305,94,o),
(278,94,cs),
(251,94,o),
(230,74,o),
(230,48,cs),
(230,20,o),
(251,-1,o),
(278,-1,cs)
);
},
{
closed = 1;
nodes = (
(472,-1,o),
(492,20,o),
(492,48,cs),
(492,74,o),
(472,94,o),
(444,94,cs),
(417,94,o),
(397,74,o),
(397,48,cs),
(397,20,o),
(417,-1,o),
(444,-1,cs)
);
}
);
vertWidth = 0;
width = 582;
},
{
layerId = "140DECC1-64C4-40C0-9C07-503DBC3F4160";
shapes = (
{
closed = 1;
nodes = (
(146,0,o),
(182,36,o),
(182,77,cs),
(182,116,o),
(146,150,o),
(107,150,cs),
(65,150,o),
(33,116,o),
(33,77,cs),
(33,36,o),
(65,0,o),
(107,0,cs)
);
},
{
closed = 1;
nodes = (
(372,0,o),
(407,36,o),
(407,77,cs),
(407,116,o),
(372,150,o),
(333,150,cs),
(291,150,o),
(259,116,o),
(259,77,cs),
(259,36,o),
(291,0,o),
(333,0,cs)
);
},
{
closed = 1;
nodes = (
(598,0,o),
(633,36,o),
(633,77,cs),
(633,116,o),
(598,150,o),
(558,150,cs),
(517,150,o),
(485,116,o),
(485,77,cs),
(485,36,o),
(517,0,o),
(558,0,cs)
);
}
);
vertWidth = 0;
width = 712;
}
);
unicode = 8230;
},
{
color = 6;
glyphname = exclam;
layers = (
{
layerId = m01;
shapes = (
{
closed = 1;
nodes = (
(132,-1,o),
(152,20,o),
(152,48,cs),
(152,74,o),
(132,94,o),
(105,94,cs),
(77,94,o),
(57,74,o),
(57,48,cs),
(57,20,o),
(77,-1,o),
(105,-1,cs)
);
},
{
closed = 1;
nodes = (
(146,207,o),
(164,217,o),
(168,240,cs),
(258,747,ls),
(260,764,o),
(248,772,o),
(234,772,cs),
(219,772,o),
(201,764,o),
(197,747,cs),
(107,240,ls),
(103,220,o),
(118,209,o),
(132,208,cs)
);
}
);
vertWidth = 0;
width = 276;
},
{
layerId = "140DECC1-64C4-40C0-9C07-503DBC3F4160";
shapes = (
{
closed = 1;
nodes = (
(175,0,o),
(210,36,o),
(210,77,cs),
(210,116,o),
(175,150,o),
(135,150,cs),
(94,150,o),
(62,116,o),
(62,77,cs),
(62,36,o),
(94,0,o),
(135,0,cs)
);
},
{
closed = 1;
nodes = (
(189,206,o),
(223,227,o),
(229,261,cs),
(311,719,ls),
(317,751,o),
(285,772,o),
(257,772,cs),
(230,772,o),
(196,754,o),
(191,726,cs),
(109,268,ls),
(103,234,o),
(132,210,o),
(162,208,cs)
);
}
);
vertWidth = 0;
width = 328;
}
);
unicode = 33;
},
{
color = 6;
glyphname = exclamdown;
layers = (
{
layerId = m01;
shapes = (
{
closed = 1;
nodes = (
(109,-1,o),
(127,7,o),
(131,24,cs),
(221,531,ls),
(225,551,o),
(210,562,o),
(196,563,cs),
(182,564,o),
(164,554,o),
(160,531,cs),
(70,24,ls),
(68,7,o),
(80,-1,o),
(94,-1,cs)
);
},
{
closed = 1;
nodes = (
(251,677,o),
(271,697,o),
(271,723,cs),
(271,751,o),
(251,772,o),
(223,772,cs),
(196,772,o),
(176,751,o),
(176,723,cs),
(176,697,o),
(196,677,o),
(223,677,cs)
);
}
);
vertWidth = 0;
width = 276;
},
{
layerId = "140DECC1-64C4-40C0-9C07-503DBC3F4160";
shapes = (
{
closed = 1;
nodes = (
(151,0,o),
(185,18,o),
(190,46,cs),
(272,504,ls),
(278,538,o),
(249,562,o),
(220,564,cs),
(192,567,o),
(158,545,o),
(152,511,cs),
(70,53,ls),
(64,21,o),
(96,0,o),
(125,0,cs)
);
},
{
closed = 1;
nodes = (
(287,623,o),
(320,656,o),
(320,695,cs),
(320,737,o),
(287,772,o),
(246,772,cs),
(207,772,o),
(171,737,o),
(171,695,cs),
(171,656,o),
(207,623,o),
(246,623,cs)
);
}
);
vertWidth = 0;
width = 328;
}
);
unicode = 161;
},
{
color = 6;
glyphname = question;
layers = (
{
layerId = m01;
shapes = (
{
closed = 1;
nodes = (
(215,-1,o),
(235,20,o),
(235,48,cs),
(235,74,o),
(215,94,o),
(188,94,cs),
(160,94,o),
(140,74,o),
(140,48,cs),
(140,20,o),
(160,-1,o),
(188,-1,cs)
);
},
{
closed = 1;
nodes = (
(228,208,o),
(245,214,o),
(249,240,cs),
(265,324,l),
(430,335,o),
(532,441,o),
(532,600,cs),
(532,707,o),
(463,772,o),
(352,772,cs),
(221,772,o),
(147,701,o),
(127,588,cs),
(122,561,o),
(131,543,o),
(151,543,cs),
(169,543,o),
(182,556,o),
(185,576,cs),
(197,644,o),
(242,718,o),
(343,718,cs),
(423,718,o),
(473,669,o),
(473,590,cs),
(473,462,o),
(384,383,o),
(240,383,cs),
(227,383,o),
(213,373,o),
(210,360,cs),
(189,240,ls),
(187,223,o),
(198,208,o),
(216,208,cs)
);
}
);
vertWidth = 0;
width = 551;
},
{
layerId = "140DECC1-64C4-40C0-9C07-503DBC3F4160";
shapes = (
{
closed = 1;
nodes = (
(248,0,o),
(284,36,o),
(284,77,cs),
(284,116,o),
(248,150,o),
(209,150,cs),
(168,150,o),
(135,116,o),
(135,77,cs),
(135,36,o),
(168,0,o),
(209,0,cs)
);
},
{
closed = 1;
nodes = (
(268,209,o),
(291,229,o),
(298,267,cs),
(308,318,l),
(463,328,o),
(562,440,o),
(562,582,cs),
(562,700,o),
(491,772,o),
(377,772,cs),
(238,772,o),
(157,691,o),
(138,581,cs),
(131,538,o),
(149,511,o),
(187,511,cs),
(221,511,o),
(245,530,o),
(249,561,cs),
(259,618,o),
(289,666,o),
(362,666,cs),
(416,666,o),
(449,631,o),
(449,574,cs),
(449,479,o),
(374,423,o),
(259,423,cs),
(234,423,o),
(209,406,o),
(204,381,cs),
(185,277,ls),
(177,238,o),
(200,209,o),
(238,209,cs)
);
}
);
vertWidth = 0;
width = 582;
}
);
unicode = 63;
},
{
color = 6;
glyphname = questiondown;
layers = (
{
layerId = m01;
shapes = (
{
closed = 1;
nodes = (
(383,-1,o),
(456,70,o),
(476,183,cs),
(481,210,o),
(473,228,o),
(453,228,cs),
(435,228,o),
(422,215,o),
(418,195,cs),
(406,127,o),
(361,53,o),
(260,53,cs),
(181,53,o),
(131,102,o),
(131,181,cs),
(131,309,o),
(220,388,o),
(364,388,cs),
(377,388,o),
(391,398,o),
(393,411,cs),
(415,531,ls),
(417,548,o),
(405,563,o),
(387,563,cs),
(375,563,o),
(359,557,o),
(354,531,cs),
(339,447,l),
(173,436,o),
(71,330,o),
(71,171,cs),
(71,64,o),
(140,-1,o),
(252,-1,cs)
);
},
{
closed = 1;
nodes = (
(443,677,o),
(463,697,o),
(463,723,cs),
(463,751,o),
(443,772,o),
(416,772,cs),
(388,772,o),
(368,751,o),
(368,723,cs),
(368,697,o),
(388,677,o),
(416,677,cs)
);
}
);
vertWidth = 0;
width = 563;
},
{
layerId = "140DECC1-64C4-40C0-9C07-503DBC3F4160";
shapes = (
{
closed = 1;
nodes = (
(398,0,o),
(479,81,o),
(498,191,cs),
(505,234,o),
(487,261,o),
(449,261,cs),
(415,261,o),
(391,242,o),
(386,211,cs),
(377,154,o),
(347,106,o),
(273,106,cs),
(220,106,o),
(187,141,o),
(187,198,cs),
(187,293,o),
(261,349,o),
(377,349,cs),
(402,349,o),
(426,366,o),
(431,391,cs),
(450,495,ls),
(459,535,o),
(436,563,o),
(398,563,cs),
(367,563,o),
(345,543,o),
(337,505,cs),
(328,454,l),
(172,444,o),
(74,333,o),
(74,190,cs),
(74,72,o),
(145,0,o),
(259,0,cs)
);
},
{
closed = 1;
nodes = (
(468,623,o),
(500,656,o),
(500,695,cs),
(500,737,o),
(468,772,o),
(426,772,cs),
(387,772,o),
(352,737,o),
(352,695,cs),
(352,656,o),
(387,623,o),
(426,623,cs)
);
}
);
vertWidth = 0;
width = 583;
}
);
unicode = 191;
},
{
color = 6;
glyphname = periodcentered;
layers = (
{
layerId = m01;
shapes = (
{
closed = 1;
nodes = (
(176,229,o),
(196,251,o),
(196,278,cs),
(196,304,o),
(176,324,o),
(149,324,cs),
(121,324,o),
(101,304,o),
(101,278,cs),
(101,251,o),
(121,229,o),
(149,229,cs)
);
}
);
vertWidth = 0;
width = 249;
},
{
layerId = "140DECC1-64C4-40C0-9C07-503DBC3F4160";
shapes = (
{
closed = 1;
nodes = (
(183,203,o),
(219,239,o),
(219,280,cs),
(219,320,o),
(183,353,o),
(144,353,cs),
(102,353,o),
(70,320,o),
(70,280,cs),
(70,239,o),
(102,203,o),
(144,203,cs)
);
}
);
vertWidth = 0;
width = 260;
}
);
unicode = 183;
},
{
color = 6;
glyphname = bullet;
layers = (
{
layerId = m01;
shapes = (
{
closed = 1;
nodes = (
(272,330,o),
(316,373,o),
(316,422,cs),
(316,470,o),
(273,511,o),
(226,511,cs),
(176,511,o),
(138,469,o),
(138,422,cs),
(138,375,o),
(175,330,o),
(225,330,cs)
);
}
);
vertWidth = 0;
width = 392;
},
{
layerId = "140DECC1-64C4-40C0-9C07-503DBC3F4160";
shapes = (
{
closed = 1;
nodes = (
(346,302,o),
(404,358,o),
(404,422,cs),
(404,486,o),
(347,539,o),
(283,539,cs),
(217,539,o),
(166,485,o),
(166,422,cs),
(166,361,o),
(215,302,o),
(282,302,cs)
);
}
);
vertWidth = 0;
width = 498;
}
);
unicode = 8226;
},
{
color = 6;
glyphname = asterisk;
layers = (
{
layerId = m01;
shapes = (
{
closed = 1;
nodes = (
(391,694,o),
(394,710,o),
(387,721,cs),
(381,729,o),
(367,733,o),
(349,722,cs),
(188,623,ls),
(168,609,o),
(163,593,o),
(170,583,cs),
(176,574,o),
(190,571,o),
(209,582,cs),
(371,682,ls)
);
},
{
closed = 1;
nodes = (
(343,573,o),
(359,575,o),
(367,584,cs),
(373,593,o),
(373,607,o),
(358,619,cs),
(229,720,ls),
(215,732,o),
(201,729,o),
(194,720,cs),
(185,712,o),
(185,696,o),
(201,684,cs),
(328,584,ls)
);
},
{
closed = 1;
nodes = (
(321,762,o),
(311,772,o),
(301,772,cs),
(289,772,o),
(274,762,o),
(271,740,cs),
(240,564,ls),
(236,544,o),
(245,535,o),
(255,532,cs),
(267,531,o),
(283,542,o),
(286,564,cs),
(317,740,ls)
);
}
);
vertWidth = 0;
width = 418;
},
{
layerId = "140DECC1-64C4-40C0-9C07-503DBC3F4160";
shapes = (
{
closed = 1;
nodes = (
(459,677,o),
(470,706,o),
(453,733,cs),
(440,752,o),
(406,759,o),
(377,743,cs),
(219,645,l),
(192,626,o),
(178,599,o),
(194,574,cs),
(206,551,o),
(242,544,o),
(274,563,cs),
(428,658,ls)
);
},
{
closed = 1;
nodes = (
(381,546,o),
(416,551,o),
(432,571,cs),
(448,593,o),
(446,619,o),
(419,639,cs),
(295,738,ls),
(268,758,o),
(234,753,o),
(219,733,cs),
(201,712,o),
(203,684,o),
(232,663,cs),
(352,567,l)
);
},
{
closed = 1;
nodes = (
(397,770,o),
(373,794,o),
(345,794,cs),
(320,794,o),
(292,773,o),
(286,741,cs),
(257,573,ls),
(251,538,o),
(270,518,o),
(295,512,cs),
(321,506,o),
(354,526,o),
(361,563,cs),
(391,732,ls)
);
}
);
vertWidth = 0;
width = 511;
}
);
unicode = 42;
},
{
color = 6;
glyphname = numbersign;
layers = (
{
layerId = m01;
shapes = (
{
closed = 1;
nodes = (
(253,-1,o),
(271,10,o),
(276,33,cs),
(384,645,ls),
(387,664,o),
(374,675,o),
(359,675,cs),
(343,675,o),
(327,665,o),
(323,645,cs),
(215,33,ls),
(211,12,o),
(223,0,o),
(238,0,cs)
);
},
{
closed = 1;
nodes = (
(560,0,o),
(576,11,o),
(580,33,cs),
(688,645,ls),
(691,664,o),
(678,674,o),
(664,675,cs),
(649,675,o),
(631,665,o),
(627,645,cs),
(519,33,ls),
(516,11,o),
(529,-1,o),
(544,0,cs)
);
},
{
closed = 1;
nodes = (
(751,175,ls),
(771,175,o),
(782,189,o),
(782,202,cs),
(782,215,o),
(772,228,o),
(751,228,cs),
(103,228,ls),
(82,228,o),
(72,215,o),
(72,202,cs),
(72,189,o),
(83,175,o),
(103,175,cs)
);
},
{
closed = 1;
nodes = (
(800,456,ls),
(821,456,o),
(832,469,o),
(832,482,cs),
(832,495,o),
(821,510,o),
(800,510,cs),
(153,510,ls),
(132,510,o),
(121,495,o),
(121,482,cs),
(121,469,o),
(132,456,o),
(153,456,cs)
);
}
);
vertWidth = 0;
width = 866;
},
{
layerId = "140DECC1-64C4-40C0-9C07-503DBC3F4160";
shapes = (
{
closed = 1;
nodes = (
(284,0,o),
(318,12,o),
(324,46,cs),
(425,621,ls),
(431,656,o),
(403,675,o),
(371,675,cs),
(341,675,o),
(316,662,o),
(310,630,cs),
(208,56,ls),
(201,19,o),
(225,0,o),
(255,0,cs)
);
},
{
closed = 1;
nodes = (
(579,0,o),
(605,13,o),
(611,46,cs),
(712,621,ls),
(719,659,o),
(690,675,o),
(663,675,cs),
(634,675,o),
(601,663,o),
(595,631,cs),
(494,56,ls),
(487,15,o),
(518,0,o),
(550,0,cs)
);
},
{
closed = 1;
nodes = (
(741,158,ls),
(776,158,o),
(800,182,o),
(800,210,cs),
(800,238,o),
(777,259,o),
(741,259,cs),
(133,259,ls),
(97,259,o),
(74,238,o),
(74,210,cs),
(74,182,o),
(99,158,o),
(133,158,cs)
);
},
{
closed = 1;
nodes = (
(786,424,ls),
(822,424,o),
(847,446,o),
(847,474,cs),
(847,501,o),
(822,525,o),
(786,525,cs),
(179,525,ls),
(144,525,o),
(120,501,o),
(120,474,cs),
(120,446,o),
(144,424,o),
(179,424,cs)
);
}
);
vertWidth = 0;
width = 898;
}
);
unicode = 35;
},
{
color = 6;
glyphname = slash;
layers = (
{
layerId = m01;
shapes = (
{
closed = 1;
nodes = (
(57,0,o),
(70,7,o),
(77,24,cs),
(383,732,ls),
(393,757,o),
(375,772,o),
(358,772,cs),
(345,772,o),
(331,765,o),
(323,745,cs),
(18,37,ls),
(8,14,o),
(25,0,o),
(44,0,cs)
);
}
);
vertWidth = 0;
width = 336;
},
{
layerId = "140DECC1-64C4-40C0-9C07-503DBC3F4160";
shapes = (
{
closed = 1;
nodes = (
(151,0,o),
(177,12,o),
(189,38,cs),
(475,699,ls),
(494,741,o),
(457,772,o),
(422,772,cs),
(398,772,o),
(372,759,o),
(359,729,cs),
(74,71,ls),
(56,30,o),
(90,0,o),
(128,0,cs)
);
}
);
vertWidth = 0;
width = 495;
}
);
unicode = 47;
},
{
color = 6;
glyphname = backslash;
layers = (
{
layerId = m01;
shapes = (
{
closed = 1;
nodes = (
(273,0,o),
(284,15,o),
(280,37,cs),
(145,745,ls),
(141,765,o),
(124,772,o),
(110,772,cs),
(93,772,o),
(81,757,o),
(86,732,cs),
(221,24,ls),
(225,6,o),
(242,0,o),
(255,0,cs)
);
}
);
vertWidth = 0;
width = 336;
},
{
layerId = "140DECC1-64C4-40C0-9C07-503DBC3F4160";
shapes = (
{
closed = 1;
nodes = (
(440,15,o),
(453,49,o),
(440,82,cs),
(195,729,ls),
(179,770,o),
(140,778,o),
(110,767,cs),
(84,758,o),
(70,722,o),
(86,682,cs),
(329,38,ls),
(343,1,o),
(385,-7,o),
(415,5,cs)
);
}
);
vertWidth = 0;
width = 495;
}
);
unicode = 92;
},
{
color = 6;
glyphname = hyphen;
kernLeft = hyphen_left;
kernRight = hyphen_right;
layers = (
{
layerId = m01;
shapes = (
{
closed = 1;
nodes = (
(295,210,ls),
(317,210,o),
(331,220,o),
(331,238,cs),
(331,255,o),
(318,265,o),
(297,265,cs),
(121,265,ls),
(99,265,o),
(84,255,o),
(84,238,cs),
(84,220,o),
(97,210,o),
(119,210,cs)
);
}
);
vertWidth = 0;
width = 402;
},
{
layerId = "140DECC1-64C4-40C0-9C07-503DBC3F4160";
shapes = (
{
closed = 1;
nodes = (
(315,183,ls),
(358,183,o),
(384,204,o),
(384,238,cs),
(384,270,o),
(361,290,o),
(326,290,cs),
(153,290,ls),
(110,290,o),
(84,268,o),
(84,235,cs),
(84,203,o),
(107,183,o),
(143,183,cs)
);
}
);
vertWidth = 0;
width = 454;
}
);
unicode = 45;
},
{
color = 6;
glyphname = endash;
kernLeft = hyphen_left;
kernRight = hyphen_right;
layers = (
{
layerId = m01;
shapes = (
{
closed = 1;
nodes = (
(354,210,ls),
(377,210,o),
(391,220,o),
(391,238,cs),
(391,255,o),
(378,265,o),
(356,265,cs),
(121,265,ls),
(99,265,o),
(84,255,o),
(84,238,cs),
(84,220,o),
(97,210,o),
(119,210,cs)
);
}
);
vertWidth = 0;
width = 461;
},
{
layerId = "140DECC1-64C4-40C0-9C07-503DBC3F4160";
shapes = (
{
closed = 1;
nodes = (
(411,183,ls),
(454,183,o),
(480,204,o),
(480,238,cs),
(480,270,o),
(457,290,o),
(422,290,cs),
(153,290,ls),
(110,290,o),
(84,268,o),
(84,235,cs),
(84,203,o),
(107,183,o),
(143,183,cs)
);
}
);
vertWidth = 0;
width = 550;
}
);
unicode = 8211;
},
{
color = 6;
glyphname = emdash;
kernLeft = hyphen_left;
kernRight = hyphen_right;
layers = (
{
layerId = m01;
shapes = (
{
closed = 1;
nodes = (
(532,210,ls),
(555,210,o),
(569,220,o),
(569,238,cs),
(569,255,o),
(556,265,o),
(535,265,cs),
(121,265,ls),
(99,265,o),
(84,255,o),
(84,238,cs),
(84,220,o),
(97,210,o),
(119,210,cs)
);
}
);
vertWidth = 0;
width = 639;
},
{
layerId = "140DECC1-64C4-40C0-9C07-503DBC3F4160";
shapes = (
{
closed = 1;
nodes = (
(520,183,ls),
(563,183,o),
(589,204,o),
(589,238,cs),
(589,270,o),
(567,290,o),
(531,290,cs),
(153,290,ls),
(110,290,o),
(84,268,o),
(84,235,cs),
(84,203,o),
(107,183,o),
(143,183,cs)
);
}
);
vertWidth = 0;
width = 659;
}
);
unicode = 8212;
},
{
color = 6;
glyphname = underscore;
kernLeft = hyphen_left;
kernRight = hyphen_right;
layers = (
{
layerId = m01;
shapes = (
{
closed = 1;
nodes = (
(358,-95,ls),
(380,-95,o),
(394,-86,o),
(394,-68,cs),
(394,-50,o),
(381,-40,o),
(360,-40,cs),
(65,-40,ls),
(43,-40,o),
(29,-50,o),
(29,-68,cs),
(29,-86,o),
(42,-95,o),
(63,-95,cs)
);
}
);
vertWidth = 0;
width = 520;
},
{
layerId = "140DECC1-64C4-40C0-9C07-503DBC3F4160";
shapes = (
{
closed = 1;
nodes = (
(368,-116,ls),
(411,-116,o),
(437,-95,o),
(437,-62,cs),
(437,-30,o),
(415,-10,o),
(379,-10,cs),
(110,-10,ls),
(68,-10,o),
(42,-31,o),
(42,-64,cs),
(42,-96,o),
(64,-116,o),
(100,-116,cs)
);
}
);
vertWidth = 0;
width = 551;
}
);
unicode = 95;
},
{
color = 6;
glyphname = parenleft;
layers = (
{
layerId = m01;
shapes = (
{
closed = 1;
nodes = (
(264,-347,o),
(265,-330,o),
(255,-310,cs),
(170,-131,o),
(131,87,o),
(162,260,cs),
(188,406,o),
(296,582,o),
(435,721,cs),
(456,743,o),
(459,759,o),
(450,767,cs),
(441,777,o),
(419,773,o),
(396,752,cs),
(241,605,o),
(129,417,o),
(101,260,cs),
(71,93,o),
(114,-135,o),
(213,-336,cs),
(222,-355,o),
(241,-360,o),
(254,-353,cs)
);
}
);
vertWidth = 0;
width = 434;
},
{
layerId = "140DECC1-64C4-40C0-9C07-503DBC3F4160";
shapes = (
{
closed = 1;
nodes = (
(329,-336,o),
(335,-314,o),
(321,-279,c),
(225,-78,o),
(210,95,o),
(239,253,cs),
(264,396,o),
(347,542,o),
(487,682,cs),
(524,719,o),
(518,746,o),
(501,764,cs),
(484,782,o),
(444,783,o),
(407,750,cs),
(251,600,o),
(138,392,o),
(115,263,cs),
(90,114,o),
(120,-113,o),
(226,-327,cs),
(244,-360,o),
(286,-368,o),
(311,-350,cs)
);
}
);
vertWidth = 0;
width = 537;
}
);
unicode = 40;
},
{
color = 6;
glyphname = parenright;
layers = (
{
layerId = m01;
shapes = (
{
closed = 1;
nodes = (
(-18,-337,o),
(2,-339,o),
(18,-324,cs),
(177,-171,o),
(296,29,o),
(327,198,cs),
(354,354,o),
(312,569,o),
(217,760,cs),
(202,789,o),
(184,800,o),
(171,794,cs),
(160,789,o),
(157,772,o),
(170,745,cs),
(253,565,o),
(295,366,o),
(270,221,cs),
(239,46,o),
(127,-147,o),
(-14,-285,cs),
(-30,-301,o),
(-34,-317,o),
(-27,-326,cs)
);
}
);
vertWidth = 0;
width = 434;
},
{
layerId = "140DECC1-64C4-40C0-9C07-503DBC3F4160";
shapes = (
{
closed = 1;
nodes = (
(18,-343,o),
(62,-346,o),
(87,-321,cs),
(260,-157,o),
(366,49,o),
(393,195,cs),
(415,326,o),
(381,557,o),
(286,750,cs),
(261,795,o),
(227,807,o),
(201,795,cs),
(179,784,o),
(165,760,o),
(185,714,cs),
(270,532,o),
(298,367,o),
(273,226,cs),
(246,67,o),
(173,-90,o),
(17,-246,cs),
(-7,-267,o),
(-19,-296,o),
(-1,-317,cs)
);
}
);
vertWidth = 0;
width = 537;
}
);
unicode = 41;
},
{
color = 6;
glyphname = braceleft;
layers = (
{
layerId = m01;
shapes = (
{
closed = 1;
nodes = (
(285,-364,o),
(307,-366,o),
(318,-354,cs),
(331,-343,o),
(324,-318,o),
(307,-307,cs),
(259,-274,o),
(217,-252,o),
(208,-188,cs),
(197,-113,o),
(263,11,o),
(266,75,cs),
(270,127,o),
(254,171,o),
(204,234,c),
(268,280,o),
(291,317,o),
(299,369,cs),
(308,432,o),
(264,569,o),
(298,634,cs),
(321,677,o),
(383,693,o),
(436,707,cs),
(455,712,o),
(473,731,o),
(468,747,cs),
(465,765,o),
(434,775,o),
(407,766,cs),
(361,753,o),
(272,713,o),
(244,653,cs),
(209,584,o),
(247,435,o),
(236,377,cs),
(230,342,o),
(208,314,o),
(170,285,cs),
(150,271,o),
(133,263,o),
(132,244,cs),
(132,223,o),
(147,211,o),
(162,192,cs),
(191,153,o),
(206,119,o),
(203,84,cs),
(198,17,o),
(135,-112,o),
(147,-190,cs),
(158,-258,o),
(223,-317,o),
(266,-349,cs)
);
}
);
vertWidth = 0;
width = 450;
},
{
layerId = "140DECC1-64C4-40C0-9C07-503DBC3F4160";
shapes = (
{
closed = 1;
nodes = (
(249,-369,o),
(286,-366,o),
(303,-343,cs),
(323,-318,o),
(309,-298,o),
(291,-279,cs),
(264,-249,o),
(245,-222,o),
(242,-165,cs),
(241,-99,o),
(296,14,o),
(302,78,cs),
(308,128,o),
(303,171,o),
(278,229,c),
(320,273,o),
(334,311,o),
(343,359,cs),
(354,424,o),
(337,545,o),
(359,607,cs),
(378,656,o),
(418,672,o),
(453,684,cs),
(480,694,o),
(493,719,o),
(482,746,cs),
(469,779,o),
(431,775,o),
(404,763,cs),
(369,747,o),
(276,712,o),
(251,642,cs),
(225,564,o),
(238,437,o),
(227,375,cs),
(222,346,o),
(208,324,o),
(185,302,cs),
(166,284,o),
(156,273,o),
(152,248,cs),
(147,213,o),
(158,202,o),
(169,182,cs),
(184,150,o),
(189,122,o),
(185,94,cs),
(177,31,o),
(124,-89,o),
(127,-170,cs),
(131,-241,o),
(190,-304,o),
(222,-339,cs)
);
}
);
vertWidth = 0;
width = 501;
}
);
unicode = 123;
},
{
color = 6;
glyphname = braceright;
layers = (
{
layerId = m01;
shapes = (
{
closed = 1;
nodes = (
(103,-342,o),
(192,-303,o),
(222,-244,cs),
(257,-175,o),
(219,12,o),
(229,70,cs),
(236,105,o),
(258,133,o),
(296,162,cs),
(316,176,o),
(334,184,o),
(334,203,cs),
(335,223,o),
(320,235,o),
(304,254,cs),
(274,293,o),
(261,328,o),
(263,362,cs),
(268,430,o),
(329,522,o),
(317,600,cs),
(307,668,o),
(242,727,o),
(198,759,cs),
(179,773,o),
(158,776,o),
(146,764,cs),
(134,753,o),
(141,728,o),
(158,716,cs),
(206,684,o),
(248,662,o),
(257,598,cs),
(267,523,o),
(204,436,o),
(200,372,cs),
(196,320,o),
(214,276,o),
(263,213,c),
(200,166,o),
(176,129,o),
(168,77,cs),
(158,15,o),
(201,-159,o),
(166,-223,cs),
(144,-266,o),
(82,-284,o),
(30,-297,cs),
(10,-303,o),
(-7,-321,o),
(-4,-337,cs),
(0,-355,o),
(31,-365,o),
(57,-356,cs)
);
}
);
vertWidth = 0;
width = 450;
},
{
layerId = "140DECC1-64C4-40C0-9C07-503DBC3F4160";
shapes = (
{
closed = 1;
nodes = (
(118,-336,o),
(211,-301,o),
(236,-230,cs),
(263,-153,o),
(249,-26,o),
(260,36,cs),
(265,65,o),
(279,87,o),
(302,109,cs),
(321,127,o),
(331,138,o),
(335,163,cs),
(340,198,o),
(329,209,o),
(318,229,cs),
(303,261,o),
(298,289,o),
(302,317,cs),
(310,380,o),
(364,500,o),
(360,581,cs),
(356,652,o),
(297,715,o),
(265,750,cs),
(238,781,o),
(201,777,o),
(184,754,cs),
(164,729,o),
(178,709,o),
(196,690,cs),
(223,661,o),
(242,633,o),
(245,576,cs),
(246,510,o),
(191,397,o),
(185,333,cs),
(179,283,o),
(184,240,o),
(209,182,c),
(168,138,o),
(153,100,o),
(144,52,cs),
(133,-13,o),
(150,-134,o),
(128,-196,cs),
(109,-245,o),
(69,-261,o),
(34,-273,cs),
(7,-283,o),
(-6,-308,o),
(5,-335,cs),
(18,-368,o),
(56,-364,o),
(83,-352,cs)
);
}
);
vertWidth = 0;
width = 501;
}
);
unicode = 125;
},
{
color = 6;
glyphname = bracketleft;
layers = (
{
layerId = m01;
shapes = (
{
closed = 1;
nodes = (
(177,-356,ls),
(197,-356,o),
(208,-342,o),
(208,-329,cs),
(208,-316,o),
(198,-303,o),
(177,-303,cs),
(43,-303,l),
(223,719,l),
(366,719,ls),
(386,719,o),
(397,732,o),
(398,745,cs),
(399,758,o),
(388,772,o),
(366,772,cs),
(202,772,ls),
(179,772,o),
(170,759,o),
(166,740,cs),
(-21,-324,ls),
(-25,-341,o),
(-17,-356,o),
(5,-356,cs)
);
}
);
vertWidth = 0;
width = 386;
},
{
layerId = "140DECC1-64C4-40C0-9C07-503DBC3F4160";
shapes = (
{
closed = 1;
nodes = (
(227,-356,ls),
(263,-356,o),
(283,-337,o),
(289,-307,cs),
(295,-273,o),
(264,-255,o),
(227,-255,cs),
(135,-255,l),
(299,671,l),
(409,671,ls),
(442,671,o),
(465,691,o),
(469,719,cs),
(475,752,o),
(443,772,o),
(409,772,cs),
(253,772,l),
(217,772,o),
(194,757,o),
(188,723,cs),
(7,-298,ls),
(1,-331,o),
(25,-356,o),
(65,-356,cs)
);
}
);
vertWidth = 0;
width = 501;
}
);
unicode = 91;
},
{
color = 6;
glyphname = bracketright;
layers = (
{
layerId = m01;
shapes = (
{
closed = 1;
nodes = (
(171,-356,l),
(197,-356,o),
(206,-343,o),
(209,-324,cs),
(397,740,ls),
(400,758,o),
(391,772,o),
(367,772,cs),
(200,772,ls),
(178,772,o),
(168,758,o),
(168,745,cs),
(168,732,o),
(178,719,o),
(200,719,cs),
(333,719,l),
(152,-303,l),
(11,-303,ls),
(-10,-303,o),
(-21,-316,o),
(-21,-329,cs),
(-21,-343,o),
(-12,-356,o),
(11,-356,cs)
);
}
);
vertWidth = 0;
width = 385;
},
{
layerId = "140DECC1-64C4-40C0-9C07-503DBC3F4160";
shapes = (
{
closed = 1;
nodes = (
(221,-356,l),
(258,-356,o),
(280,-341,o),
(286,-308,cs),
(467,714,ls),
(473,747,o),
(449,772,o),
(409,772,cs),
(248,772,ls),
(211,772,o),
(192,753,o),
(187,721,cs),
(182,693,o),
(211,671,o),
(248,671,cs),
(339,671,l),
(175,-255,l),
(67,-255,ls),
(36,-255,o),
(11,-277,o),
(6,-305,cs),
(1,-334,o),
(26,-356,o),
(67,-356,cs)
);
}
);
vertWidth = 0;
width = 501;
}
);
unicode = 93;
},
{
color = 6;
glyphname = quotedbl;
kernLeft = quote_left;
kernRight = quote_right;
layers = (
{
layerId = m01;
shapes = (
{
closed = 1;
nodes = (
(187,594,o),
(203,604,o),
(207,623,cs),
(227,737,ls),
(232,760,o),
(216,772,o),
(201,772,cs),
(187,772,o),
(170,762,o),
(166,741,cs),
(146,627,ls),
(143,606,o),
(157,594,o),
(172,594,cs)
);
},
{
closed = 1;
nodes = (
(316,594,o),
(333,602,o),
(335,619,cs),
(355,737,ls),
(359,760,o),
(345,772,o),
(328,772,cs),
(314,772,o),
(299,763,o),
(296,746,cs),
(274,627,ls),
(271,605,o),
(285,594,o),
(302,594,cs)
);
}
);
vertWidth = 0;
width = 345;
},
{
layerId = "140DECC1-64C4-40C0-9C07-503DBC3F4160";
shapes = (
{
closed = 1;
nodes = (
(226,542,o),
(255,560,o),
(261,592,cs),
(282,706,ls),
(289,746,o),
(260,772,o),
(227,772,cs),
(200,772,o),
(169,753,o),
(163,720,cs),
(143,606,ls),
(135,567,o),
(165,542,o),
(198,542,cs)
);
},
{
closed = 1;
nodes = (
(413,542,o),
(446,558,o),
(450,589,cs),
(470,707,ls),
(478,747,o),
(447,772,o),
(413,772,cs),
(386,772,o),
(358,754,o),
(352,725,cs),
(330,606,ls),
(322,561,o),
(359,542,o),
(387,542,cs)
);
}
);
vertWidth = 0;
width = 466;
}
);
unicode = 34;
},
{
color = 6;
glyphname = quotesingle;
kernLeft = quote_left;
kernRight = quote_right;
layers = (
{
layerId = m01;
shapes = (
{
closed = 1;
nodes = (
(188,594,o),
(204,602,o),
(207,619,cs),
(227,737,ls),
(230,760,o),
(216,772,o),
(200,772,cs),
(185,772,o),
(171,763,o),
(168,746,cs),
(146,627,ls),
(143,605,o),
(157,594,o),
(173,594,cs)
);
}
);
vertWidth = 0;
width = 216;
},
{
layerId = "140DECC1-64C4-40C0-9C07-503DBC3F4160";
shapes = (
{
closed = 1;
nodes = (
(226,542,o),
(258,558,o),
(263,589,cs),
(283,707,ls),
(289,747,o),
(259,772,o),
(226,772,cs),
(198,772,o),
(171,754,o),
(164,725,cs),
(143,606,ls),
(135,561,o),
(171,542,o),
(200,542,cs)
);
}
);
vertWidth = 0;
width = 278;
}
);
unicode = 39;
},
{
color = 6;
glyphname = at;
layers = (
{
layerId = m01;
shapes = (
{
closed = 1;
nodes = (
(431,62,o),
(487,150,o),
(519,278,cs),
(550,402,o),
(535,482,o),
(455,482,cs),
(360,482,o),
(280,394,o),
(248,266,cs),
(217,143,o),
(257,62,o),
(336,62,cs)
);
},
{
closed = 1;
nodes = (
(302,115,o),
(285,163,o),
(308,255,cs),
(333,356,o),
(385,429,o),
(442,429,cs),
(489,429,o),
(506,381,o),
(484,289,cs),
(459,188,o),
(406,115,o),
(349,115,cs)
);
},
{
closed = 1;
nodes = (
(380,-95,o),
(438,-81,o),
(474,-71,cs),
(498,-65,o),
(503,-49,o),
(499,-34,cs),
(493,-15,o),
(470,-14,o),
(456,-19,cs),
(421,-30,o),
(369,-42,o),
(328,-42,cs),
(184,-42,o),
(102,91,o),
(143,254,cs),
(192,454,o),
(323,571,o),
(478,571,cs),
(623,571,o),
(704,457,o),
(666,297,cs),
(644,204,o),
(580,115,o),
(532,115,cs),
(513,115,o),
(511,156,o),
(527,220,cs),
(584,444,ls),
(589,463,o),
(584,478,o),
(564,478,cs),
(542,478,o),
(530,469,o),
(524,448,cs),
(469,233,ls),
(442,127,o),
(466,62,o),
(526,62,cs),
(601,62,o),
(695,173,o),
(726,298,cs),
(772,486,o),
(666,625,o),
(480,625,cs),
(293,625,o),
(139,487,o),
(83,265,cs),
(32,58,o),
(141,-95,o),
(331,-95,cs)
);
}
);
vertWidth = 0;
width = 794;
},
{
layerId = "140DECC1-64C4-40C0-9C07-503DBC3F4160";
shapes = (
{
closed = 1;
nodes = (
(434,58,o),
(470,147,o),
(504,272,cs),
(538,400,o),
(543,485,o),
(461,485,cs),
(369,485,o),
(284,405,o),
(252,277,cs),
(219,141,o),
(260,58,o),
(355,58,cs)
);
},
{
closed = 1;
nodes = (
(355,165,o),
(348,198,o),
(362,253,cs),
(381,330,o),
(418,378,o),
(459,378,cs),
(482,378,o),
(489,347,o),
(476,296,cs),
(456,215,o),
(419,165,o),
(380,165,cs)
);
},
{
closed = 1;
nodes = (
(385,-143,o),
(454,-132,o),
(511,-116,cs),
(555,-105,o),
(575,-76,o),
(564,-39,cs),
(554,-5,o),
(518,7,o),
(469,-10,cs),
(434,-21,o),
(381,-30,o),
(347,-30,cs),
(203,-30,o),
(127,93,o),
(168,255,cs),
(219,456,o),
(347,581,o),
(504,581,cs),
(643,581,o),
(719,469,o),
(684,318,cs),
(663,228,o),
(613,162,o),
(576,162,cs),
(558,162,o),
(564,195,o),
(569,213,cs),
(621,421,ls),
(632,463,o),
(614,485,o),
(576,485,cs),
(541,485,o),
(522,472,o),
(513,438,cs),
(462,238,ls),
(425,95,o),
(476,58,o),
(538,58,c),
(656,58,o),
(769,163,o),
(803,302,cs),
(860,526,o),
(733,694,o),
(507,694,cs),
(289,694,o),
(114,538,o),
(51,285,cs),
(-10,40,o),
(118,-143,o),
(349,-143,cs)
);
}
);
vertWidth = 0;
width = 846;
}
);
unicode = 64;
},
{
color = 6;
glyphname = ampersand;
layers = (
{
layerId = m01;
shapes = (
{
closed = 1;
nodes = (
(365,-5,o),
(463,74,o),
(586,266,cs),
(598,284,o),
(602,305,o),
(586,317,cs),
(568,329,o),
(554,321,o),
(539,302,c),
(428,124,o),
(342,50,o),
(246,50,cs),
(175,50,o),
(131,102,o),
(131,166,cs),
(131,264,o),
(185,335,o),
(292,399,cs),
(347,431,ls),
(479,508,o),
(541,583,o),
(541,661,cs),
(541,729,o),
(488,772,o),
(404,772,cs),
(273,772,o),
(192,713,o),
(192,618,cs),
(192,580,o),
(222,504,o),
(270,419,cs),
(491,26,ls),
(503,6,o),
(524,-11,o),
(542,1,cs),
(558,13,o),
(554,39,o),
(544,56,c),
(321,455,ls),
(279,531,o),
(252,594,o),
(252,618,cs),
(252,680,o),
(307,718,o),
(394,718,cs),
(448,718,o),
(481,691,o),
(481,649,cs),
(481,594,o),
(412,529,o),
(291,460,cs),
(266,446,ls),
(137,371,o),
(71,283,o),
(71,164,cs),
(71,67,o),
(138,-5,o),
(246,-5,cs)
);
}
);
vertWidth = 0;
width = 668;
},
{
layerId = "140DECC1-64C4-40C0-9C07-503DBC3F4160";
shapes = (
{
closed = 1;
nodes = (
(387,-5,o),
(487,74,o),
(613,264,cs),
(633,295,o),
(624,327,o),
(598,342,cs),
(569,360,o),
(524,349,o),
(503,320,cs),
(400,175,o),
(339,115,o),
(290,115,cs),
(235,115,o),
(203,145,o),
(203,204,cs),
(203,259,o),
(242,311,o),
(315,358,cs),
(358,385,ls),
(481,463,o),
(567,556,o),
(567,644,cs),
(567,740,o),
(482,772,o),
(404,772,cs),
(268,772,o),
(168,697,o),
(168,596,cs),
(168,524,o),
(220,455,o),
(259,391,c),
(478,29,l),
(494,1,o),
(544,-17,o),
(576,8,cs),
(611,36,o),
(608,70,o),
(590,99,cs),
(364,467,ls),
(326,529,o),
(297,569,o),
(297,599,cs),
(297,628,o),
(339,650,o),
(396,650,cs),
(431,650,o),
(443,643,o),
(443,625,cs),
(443,599,o),
(398,556,o),
(295,491,cs),
(257,467,ls),
(162,407,o),
(74,302,o),
(74,202,cs),
(74,65,o),
(141,-5,o),
(268,-5,cs)
);
}
);
vertWidth = 0;
width = 713;
}
);
unicode = 38;
},
{
color = 6;
glyphname = copyright;
layers = (
{
layerId = m01;
shapes = (
{
closed = 1;
nodes = (
(789,-95,o),
(997,113,o),
(997,368,cs),
(997,624,o),
(789,832,o),
(533,832,cs),
(278,832,o),
(70,624,o),
(70,368,cs),
(70,113,o),
(278,-95,o),
(533,-95,cs)
);
},
{
closed = 1;
nodes = (
(311,-36,o),
(129,146,o),
(129,369,cs),
(129,590,o),
(312,772,o),
(533,772,cs),
(754,772,o),
(937,590,o),
(937,369,cs),
(937,146,o),
(756,-36,o),
(533,-36,cs)
);
},
{
closed = 1;
nodes = (
(508,143,o),
(557,179,o),
(615,265,cs),
(632,291,o),
(632,297,o),
(632,303,cs),
(632,318,o),
(621,330,o),
(607,330,cs),
(590,330,o),
(583,323,o),
(568,302,cs),
(517,228,o),
(486,202,o),
(448,202,cs),
(418,202,o),
(415,227,o),
(415,252,cs),
(415,287,o),
(424,356,o),
(431,391,cs),
(448,473,o),
(466,554,o),
(615,554,cs),
(652,554,o),
(659,552,o),
(669,557,cs),
(684,565,o),
(687,595,o),
(671,606,cs),
(663,611,o),
(653,613,o),
(615,613,cs),
(421,613,o),
(390,500,o),
(371,391,cs),
(368,377,o),
(355,298,o),
(355,253,cs),
(355,203,o),
(372,143,o),
(449,143,cs)
);
}
);
width = 1054;
},
{
layerId = "140DECC1-64C4-40C0-9C07-503DBC3F4160";
shapes = (
{
closed = 1;
nodes = (
(754,-95,o),
(962,113,o),
(962,368,cs),
(962,624,o),
(754,832,o),
(499,832,cs),
(244,832,o),
(36,624,o),
(36,368,cs),
(36,113,o),
(244,-95,o),
(499,-95,cs)
);
},
{
closed = 1;
nodes = (
(303,12,o),
(143,170,o),
(143,368,cs),
(143,563,o),
(301,725,o),
(500,725,cs),
(697,725,o),
(855,564,o),
(855,368,cs),
(855,172,o),
(696,12,o),
(500,12,cs)
);
},
{
closed = 1;
nodes = (
(493,143,o),
(537,183,o),
(593,263,cs),
(608,287,o),
(613,311,o),
(608,329,cs),
(604,350,o),
(587,364,o),
(561,364,cs),
(535,364,o),
(522,353,o),
(501,326,cs),
(457,263,o),
(441,249,o),
(426,249,cs),
(419,249,o),
(419,260,o),
(419,277,cs),
(419,308,o),
(429,354,o),
(434,384,cs),
(447,457,o),
(460,506,o),
(568,506,cs),
(584,506,o),
(615,505,o),
(630,513,cs),
(663,531,o),
(666,581,o),
(633,602,cs),
(623,608,o),
(593,613,o),
(568,613,cs),
(371,613,o),
(339,492,o),
(321,393,cs),
(320,384,o),
(308,318,o),
(308,274,cs),
(308,215,o),
(318,143,o),
(421,143,cs)
);
}
);
width = 992;
}
);
unicode = 169;
},
{
color = 6;
glyphname = registered;
layers = (
{
layerId = m01;
shapes = (
{
closed = 1;
nodes = (
(358,485,o),
(367,494,o),
(368,504,cs),
(409,733,l),
(411,746,o),
(390,752,o),
(378,752,cs),
(367,752,o),
(362,748,o),
(360,737,cs),
(318,506,ls),
(317,494,o),
(324,485,o),
(340,485,cs)
);
},
{
closed = 1;
nodes = (
(474,485,o),
(482,491,o),
(487,497,cs),
(491,501,o),
(492,512,o),
(489,518,cs),
(413,628,l),
(350,632,l),
(446,494,ls),
(449,487,o),
(461,485,o),
(467,485,cs)
);
},
{
closed = 1;
nodes = (
(432,611,o),
(505,607,o),
(517,677,cs),
(525,732,o),
(473,752,o),
(378,752,c),
(373,703,l),
(430,703,o),
(473,696,o),
(469,678,cs),
(466,659,o),
(424,659,o),
(371,659,c),
(366,612,l)
);
},
{
closed = 1;
nodes = (
(570,343,o),
(693,466,o),
(693,617,cs),
(693,767,o),
(570,890,o),
(419,890,cs),
(268,890,o),
(146,767,o),
(146,617,cs),
(146,466,o),
(268,343,o),
(419,343,cs)
);
},
{
closed = 1;
nodes = (
(299,400,o),
(203,497,o),
(203,617,cs),
(203,735,o),
(299,832,o),
(419,832,cs),
(538,832,o),
(634,735,o),
(634,617,cs),
(634,497,o),
(538,400,o),
(419,400,cs)
);
}
);
width = 700;
},
{
layerId = "140DECC1-64C4-40C0-9C07-503DBC3F4160";
shapes = (
{
closed = 1;
nodes = (
(287,484,o),
(303,498,o),
(307,517,cs),
(343,723,ls),
(348,747,o),
(334,764,o),
(311,764,cs),
(292,764,o),
(278,751,o),
(274,733,cs),
(238,522,ls),
(233,498,o),
(248,484,o),
(267,484,cs)
);
},
{
closed = 1;
nodes = (
(412,484,o),
(425,491,o),
(431,504,cs),
(435,514,o),
(432,524,o),
(426,532,cs),
(377,608,l),
(289,608,l),
(364,498,ls),
(371,488,o),
(381,484,o),
(398,484,cs)
);
},
{
closed = 1;
nodes = (
(334,589,o),
(442,587,o),
(459,674,cs),
(470,744,o),
(386,764,o),
(311,764,c),
(311,697,l),
(374,699,o),
(390,693,o),
(386,674,cs),
(383,657,o),
(330,657,o),
(311,657,c),
(308,589,l)
);
},
{
closed = 1;
nodes = (
(495,343,o),
(618,466,o),
(618,617,cs),
(618,767,o),
(495,890,o),
(345,890,cs),
(194,890,o),
(71,767,o),
(71,617,cs),
(71,466,o),
(194,343,o),
(345,343,cs)
);
},
{
closed = 1;
nodes = (
(241,432,o),
(160,518,o),
(160,617,cs),
(160,718,o),
(244,801,o),
(345,801,cs),
(446,801,o),
(529,719,o),
(529,617,cs),
(529,514,o),
(446,432,o),
(345,432,cs)
);
}
);
width = 700;
}
);
unicode = 174;
},
{
color = 6;
glyphname = trademark;
layers = (
{
layerId = m01;
shapes = (
{
closed = 1;
nodes = (
(253,791,l),
(194,450,ls),
(191,434,o),
(201,416,o),
(222,416,cs),
(244,416,o),
(251,432,o),
(253,444,cs),
(314,791,l)
);
},
{
closed = 1;
nodes = (
(416,772,o),
(426,785,o),
(426,803,cs),
(426,821,o),
(416,835,o),
(397,835,cs),
(177,835,ls),
(157,835,o),
(146,821,o),
(146,803,cs),
(146,785,o),
(157,772,o),
(177,772,cs),
(397,772,ls)
);
},
{
closed = 1;
nodes = (
(605,836,l),
(587,836,o),
(580,827,o),
(570,809,cs),
(388,462,ls),
(378,441,o),
(388,416,o),
(412,416,cs),
(422,416,o),
(435,422,o),
(444,441,cs),
(608,754,l)
);
},
{
closed = 1;
nodes = (
(633,810,ls),
(632,823,o),
(625,836,o),
(605,836,c),
(577,754,l),
(615,444,ls),
(618,429,o),
(624,416,o),
(644,416,c),
(672,475,l)
);
},
{
closed = 1;
nodes = (
(662,416,o),
(670,425,o),
(676,436,cs),
(859,754,l),
(855,836,l),
(840,836,o),
(830,827,o),
(823,815,cs),
(634,485,l),
(643,416,l)
);
},
{
closed = 1;
nodes = (
(884,822,o),
(872,836,o),
(855,836,c),
(829,754,l),
(855,446,ls),
(857,430,o),
(866,416,o),
(886,416,cs),
(905,416,o),
(916,431,o),
(915,449,cs),
(885,802,ls)
);
}
);
width = 922;
},
{
layerId = "140DECC1-64C4-40C0-9C07-503DBC3F4160";
shapes = (
{
closed = 1;
nodes = (
(230,740,l),
(184,478,ls),
(178,446,o),
(203,416,o),
(240,416,cs),
(272,416,o),
(293,437,o),
(298,463,cs),
(347,740,l)
);
},
{
closed = 1;
nodes = (
(425,727,o),
(449,751,o),
(449,782,cs),
(449,814,o),
(425,838,o),
(393,838,cs),
(200,838,ls),
(166,838,o),
(143,814,o),
(143,782,cs),
(143,751,o),
(166,727,o),
(200,727,cs),
(393,727,ls)
);
},
{
closed = 1;
nodes = (
(636,839,l),
(609,839,o),
(595,835,o),
(577,801,cs),
(418,495,ls),
(399,459,o),
(424,416,o),
(466,416,cs),
(485,416,o),
(506,426,o),
(520,453,cs),
(668,733,l)
);
},
{
closed = 1;
nodes = (
(689,791,ls),
(685,826,o),
(662,839,o),
(637,839,c),
(581,743,l),
(615,466,ls),
(620,429,o),
(644,416,o),
(670,416,c),
(725,491,l)
);
},
{
closed = 1;
nodes = (
(699,416,o),
(709,423,o),
(725,449,cs),
(889,733,l),
(867,839,l),
(836,839,o),
(816,830,o),
(801,803,cs),
(631,508,l),
(671,416,l)
);
},
{
closed = 1;
nodes = (
(918,830,o),
(898,839,o),
(866,839,c),
(811,743,l),
(835,467,ls),
(838,438,o),
(860,416,o),
(892,416,cs),
(927,416,o),
(950,442,o),
(948,475,cs),
(922,784,ls)
);
}
);
width = 959;
}
);
unicode = 8482;
},
{
color = 6;
glyphname = degree;
layers = (
{
layerId = m01;
shapes = (
{
closed = 1;
nodes = (
(322,480,o),
(362,557,o),
(371,630,cs),
(378,704,o),
(348,777,o),
(274,777,cs),
(213,777,o),
(158,727,o),
(147,630,cs),
(140,555,o),
(170,480,o),
(244,480,cs)
);
},
{
closed = 1;
nodes = (
(210,535,o),
(197,579,o),
(202,627,cs),
(209,693,o),
(235,722,o),
(271,722,cs),
(315,722,o),
(320,664,o),
(316,631,cs),
(309,568,o),
(280,535,o),
(252,535,cs)
);
}
);
vertWidth = 0;
width = 379;
},
{
layerId = "140DECC1-64C4-40C0-9C07-503DBC3F4160";
shapes = (
{
closed = 1;
nodes = (
(347,442,o),
(393,529,o),
(404,611,cs),
(412,695,o),
(378,777,o),
(291,777,cs),
(219,777,o),
(156,721,o),
(144,611,cs),
(135,526,o),
(170,442,o),
(255,442,cs)
);
},
{
closed = 1;
nodes = (
(239,545,o),
(230,576,o),
(234,609,cs),
(238,656,o),
(257,676,o),
(282,676,cs),
(311,676,o),
(316,637,o),
(312,612,cs),
(309,568,o),
(289,545,o),
(267,545,cs)
);
}
);
vertWidth = 0;
width = 416;
}
);
unicode = 176;
},
{
color = 6;
glyphname = bar;
layers = (
{
layerId = m01;
shapes = (
{
closed = 1;
nodes = (
(253,820,o),
(240,832,o),
(225,832,cs),
(210,832,o),
(192,820,o),
(189,798,cs),
(-10,-324,ls),
(-13,-342,o),
(-2,-356,o),
(19,-356,cs),
(45,-356,o),
(49,-339,o),
(51,-327,cs),
(248,794,ls)
);
}
);
vertWidth = 0;
width = 239;
},
{
layerId = "140DECC1-64C4-40C0-9C07-503DBC3F4160";
shapes = (
{
closed = 1;
nodes = (
(310,809,o),
(283,834,o),
(249,834,cs),
(223,834,o),
(192,814,o),
(187,781,cs),
(-5,-297,ls),
(-12,-330,o),
(14,-359,o),
(52,-359,cs),
(93,-359,o),
(107,-334,o),
(113,-309,c),
(303,766,ls)
);
}
);
vertWidth = 0;
width = 298;
}
);
unicode = 124;
},
{
color = 6;
glyphname = brokenbar;
layers = (
{
layerId = m01;
shapes = (
{
closed = 1;
nodes = (
(140,181,o),
(127,192,o),
(113,192,cs),
(97,192,o),
(80,181,o),
(76,160,cs),
(-10,-324,ls),
(-13,-342,o),
(-2,-356,o),
(19,-356,cs),
(45,-356,o),
(49,-339,o),
(51,-327,cs),
(137,160,ls)
);
},
{
closed = 1;
nodes = (
(253,820,o),
(240,832,o),
(225,832,cs),
(210,832,o),
(192,820,o),
(189,798,cs),
(103,316,ls),
(100,296,o),
(113,283,o),
(128,284,cs),
(144,284,o),
(160,296,o),
(164,316,cs),
(248,794,ls)
);
}
);
vertWidth = 0;
width = 239;
},
{
layerId = "140DECC1-64C4-40C0-9C07-503DBC3F4160";
shapes = (
{
closed = 1;
nodes = (
(196,168,o),
(170,194,o),
(138,194,cs),
(110,194,o),
(78,173,o),
(72,141,cs),
(-5,-295,ls),
(-11,-328,o),
(14,-356,o),
(52,-356,cs),
(93,-356,o),
(108,-331,o),
(113,-307,cs),
(190,132,ls)
);
},
{
closed = 1;
nodes = (
(309,807,o),
(282,832,o),
(248,832,cs),
(222,832,o),
(191,811,o),
(185,778,cs),
(108,345,ls),
(101,308,o),
(129,280,o),
(163,283,cs),
(190,284,o),
(220,304,o),
(226,335,cs),
(302,764,ls)
);
}
);
vertWidth = 0;
width = 298;
}
);
unicode = 166;
},
{
color = 6;
glyphname = cent;
layers = (
{
layerId = m01;
shapes = (
{
closed = 1;
nodes = (
(201,-5,o),
(273,57,o),
(323,156,cs),
(328,166,o),
(322,181,o),
(309,188,cs),
(293,196,o),
(277,195,o),
(271,183,cs),
(232,103,o),
(181,50,o),
(138,50,cs),
(106,50,o),
(87,82,o),
(88,125,cs),
(91,260,o),
(153,366,o),
(233,366,cs),
(260,366,o),
(297,361,o),
(320,353,cs),
(340,345,o),
(356,346,o),
(364,364,cs),
(372,381,o),
(365,398,o),
(345,405,cs),
(317,416,o),
(272,421,o),
(233,421,cs),
(115,421,o),
(27,289,o),
(27,113,cs),
(27,40,o),
(68,-5,o),
(133,-5,cs)
);
},
{
closed = 1;
nodes = (
(154,-187,o),
(156,-169,o),
(158,-157,cs),
(285,533,ls),
(290,560,o),
(274,571,o),
(259,571,cs),
(245,571,o),
(229,560,o),
(226,538,cs),
(97,-154,ls),
(94,-172,o),
(107,-187,o),
(128,-187,cs)
);
}
);
width = 380;
},
{
layerId = "140DECC1-64C4-40C0-9C07-503DBC3F4160";
shapes = (
{
closed = 1;
nodes = (
(220,-5,o),
(297,52,o),
(347,144,cs),
(354,157,o),
(353,189,o),
(322,204,cs),
(291,220,o),
(267,210,o),
(258,192,cs),
(227,133,o),
(184,99,o),
(157,99,cs),
(141,99,o),
(127,114,o),
(129,140,cs),
(143,257,o),
(187,328,o),
(247,328,cs),
(265,328,o),
(291,327,o),
(314,317,cs),
(341,307,o),
(366,315,o),
(379,342,cs),
(398,383,o),
(367,404,o),
(352,410,cs),
(326,421,o),
(295,425,o),
(253,425,cs),
(132,425,o),
(45,317,o),
(26,143,cs),
(15,51,o),
(61,-5,o),
(145,-5,cs)
);
},
{
closed = 1;
nodes = (
(175,-187,o),
(176,-169,o),
(178,-157,cs),
(305,533,ls),
(310,560,o),
(295,571,o),
(279,571,cs),
(265,571,o),
(249,560,o),
(246,538,cs),
(118,-154,ls),
(114,-172,o),
(127,-187,o),
(149,-187,cs)
);
}
);
width = 404;
}
);
unicode = 162;
},
{
color = 6;
glyphname = dollar;
layers = (
{
layerId = m01;
shapes = (
{
closed = 1;
nodes = (
(369,-5,o),
(459,53,o),
(479,168,cs),
(499,282,o),
(430,331,o),
(339,386,cs),
(245,442,o),
(185,463,o),
(198,531,cs),
(209,590,o),
(273,621,o),
(390,621,cs),
(438,621,o),
(485,590,o),
(498,549,cs),
(503,533,o),
(518,526,o),
(535,531,cs),
(551,536,o),
(555,555,o),
(549,576,cs),
(535,633,o),
(467,676,o),
(391,676,cs),
(242,676,o),
(159,628,o),
(141,536,cs),
(124,441,o),
(201,398,o),
(291,343,cs),
(391,283,o),
(434,252,o),
(422,176,cs),
(407,93,o),
(346,50,o),
(236,50,cs),
(173,50,o),
(120,78,o),
(113,118,cs),
(109,138,o),
(93,145,o),
(76,140,cs),
(57,135,o),
(53,116,o),
(57,97,cs),
(68,39,o),
(134,-5,o),
(214,-5,cs)
);
},
{
closed = 1;
nodes = (
(413,759,o),
(402,772,o),
(387,772,cs),
(374,772,o),
(359,762,o),
(355,739,cs),
(214,-62,ls),
(210,-84,o),
(222,-95,o),
(235,-95,cs),
(248,-95,o),
(264,-84,o),
(267,-64,cs),
(409,734,ls)
);
}
);
vertWidth = 0;
width = 573;
},
{
layerId = "140DECC1-64C4-40C0-9C07-503DBC3F4160";
shapes = (
{
closed = 1;
nodes = (
(398,-4,o),
(531,39,o),
(556,172,cs),
(582,311,o),
(494,360,o),
(417,407,cs),
(348,450,o),
(265,475,o),
(274,524,cs),
(282,563,o),
(331,569,o),
(404,569,cs),
(473,569,o),
(501,555,o),
(510,527,cs),
(520,493,o),
(550,480,o),
(586,491,cs),
(615,500,o),
(628,525,o),
(623,554,cs),
(605,639,o),
(548,675,o),
(430,675,cs),
(266,675,o),
(170,632,o),
(152,527,cs),
(132,413,o),
(259,360,o),
(334,316,cs),
(415,268,o),
(456,242,o),
(443,177,cs),
(432,124,o),
(372,110,o),
(287,110,cs),
(214,110,o),
(194,121,o),
(185,146,cs),
(172,182,o),
(133,192,o),
(103,183,cs),
(76,175,o),
(55,149,o),
(61,120,cs),
(75,39,o),
(147,-4,o),
(280,-4,cs)
);
},
{
closed = 1;
nodes = (
(488,747,o),
(461,772,o),
(430,772,cs),
(404,772,o),
(374,754,o),
(368,720,cs),
(236,-33,ls),
(229,-72,o),
(257,-95,o),
(286,-95,cs),
(312,-95,o),
(342,-77,o),
(348,-45,cs),
(481,706,ls)
);
}
);
vertWidth = 0;
width = 649;
}
);
unicode = 36;
},
{
color = 6;
glyphname = euro;
layers = (
{
layerId = m01;
shapes = (
{
closed = 1;
nodes = (
(447,0,o),
(526,53,o),
(594,128,cs),
(624,160,o),
(626,175,o),
(625,183,cs),
(623,197,o),
(612,204,o),
(598,204,cs),
(579,204,o),
(571,184,o),
(548,163,cs),
(482,101,o),
(423,55,o),
(346,55,cs),
(260,55,o),
(172,162,o),
(207,361,cs),
(230,498,o),
(287,718,o),
(495,718,cs),
(550,718,o),
(608,693,o),
(662,637,cs),
(677,621,o),
(694,625,o),
(703,636,cs),
(713,646,o),
(710,665,o),
(700,676,cs),
(642,737,o),
(570,772,o),
(497,772,cs),
(245,772,o),
(177,531,o),
(147,362,cs),
(106,128,o),
(230,0,o),
(345,0,cs)
);
},
{
closed = 1;
nodes = (
(305,236,ls),
(327,236,o),
(337,251,o),
(337,264,cs),
(337,277,o),
(327,290,o),
(305,290,cs),
(36,290,ls),
(14,290,o),
(4,276,o),
(4,263,cs),
(4,249,o),
(14,236,o),
(36,236,cs)
);
},
{
closed = 1;
nodes = (
(349,416,ls),
(371,416,o),
(381,430,o),
(381,443,cs),
(381,456,o),
(371,469,o),
(349,469,cs),
(80,469,ls),
(58,469,o),
(48,455,o),
(48,442,cs),
(48,429,o),
(58,416,o),
(80,416,cs)
);
}
);
width = 678;
},
{
layerId = "140DECC1-64C4-40C0-9C07-503DBC3F4160";
shapes = (
{
closed = 1;
nodes = (
(459,0,o),
(561,46,o),
(630,122,cs),
(659,154,o),
(670,170,o),
(670,192,cs),
(670,214,o),
(653,233,o),
(623,233,cs),
(604,233,o),
(580,226,o),
(551,195,cs),
(503,140,o),
(431,107,o),
(364,107,cs),
(276,107,o),
(229,215,o),
(254,361,cs),
(289,563,o),
(375,665,o),
(513,665,cs),
(568,665,o),
(606,653,o),
(644,618,cs),
(672,592,o),
(708,581,o),
(734,607,cs),
(762,634,o),
(746,669,o),
(716,696,cs),
(653,753,o),
(588,772,o),
(514,772,cs),
(310,772,o),
(183,634,o),
(135,362,cs),
(100,154,o),
(196,0,o),
(362,0,cs)
);
},
{
closed = 1;
nodes = (
(324,226,ls),
(365,226,o),
(379,254,o),
(379,277,cs),
(379,301,o),
(365,328,o),
(324,328,cs),
(55,328,ls),
(14,328,o),
(0,301,o),
(0,277,cs),
(0,253,o),
(14,226,o),
(55,226,cs)
);
},
{
closed = 1;
nodes = (
(364,381,ls),
(404,381,o),
(418,410,o),
(418,432,cs),
(418,456,o),
(404,484,o),
(364,484,cs),
(94,484,ls),
(53,484,o),
(39,456,o),
(39,432,cs),
(39,409,o),
(53,381,o),
(94,381,cs)
);
}
);
width = 708;
}
);
unicode = 8364;
},
{
color = 6;
glyphname = sterling;
layers = (
{
layerId = m01;
shapes = (
{
closed = 1;
nodes = (
(129,375,o),
(138,362,o),
(162,362,cs),
(415,362,ls),
(438,362,o),
(444,375,o),
(446,390,cs),
(447,404,o),
(438,416,o),
(415,416,cs),
(162,416,ls),
(138,416,o),
(132,404,o),
(131,390,cs)
);
},
{
closed = 1;
nodes = (
(116,0,l),
(170,64,o),
(253,156,o),
(297,253,cs),
(328,322,o),
(334,438,o),
(299,489,cs),
(265,542,o),
(229,605,o),
(233,651,cs),
(234,671,o),
(242,688,o),
(263,699,cs),
(279,708,o),
(302,712,o),
(326,712,cs),
(381,712,o),
(448,689,o),
(486,655,cs),
(513,631,o),
(532,634,o),
(543,645,cs),
(554,657,o),
(560,672,o),
(536,695,cs),
(488,738,o),
(407,772,o),
(333,772,cs),
(301,772,o),
(270,766,o),
(242,751,cs),
(195,725,o),
(170,689,o),
(168,645,cs),
(164,595,o),
(189,533,o),
(244,459,cs),
(260,435,o),
(266,337,o),
(239,277,cs),
(192,171,o),
(72,53,o),
(67,45,cs),
(49,20,o),
(52,0,o),
(82,0,c)
);
},
{
closed = 1;
nodes = (
(409,0,ls),
(432,0,o),
(440,15,o),
(440,30,cs),
(438,44,o),
(432,59,o),
(409,59,cs),
(112,59,l),
(87,0,l)
);
}
);
width = 574;
},
{
layerId = "140DECC1-64C4-40C0-9C07-503DBC3F4160";
shapes = (
{
closed = 1;
nodes = (
(128,336,o),
(150,315,o),
(188,315,cs),
(437,315,ls),
(475,315,o),
(497,336,o),
(498,365,cs),
(500,394,o),
(476,416,o),
(438,416,cs),
(189,416,ls),
(151,416,o),
(132,394,o),
(129,365,cs)
);
},
{
closed = 1;
nodes = (
(164,0,l),
(230,64,o),
(309,164,o),
(347,261,cs),
(373,330,o),
(381,454,o),
(347,505,cs),
(304,569,o),
(285,607,o),
(287,636,cs),
(289,646,o),
(292,655,o),
(302,659,cs),
(314,666,o),
(330,670,o),
(348,670,cs),
(392,670,o),
(446,651,o),
(481,619,cs),
(513,588,o),
(555,598,o),
(571,618,cs),
(589,640,o),
(596,666,o),
(567,696,cs),
(522,740,o),
(441,773,o),
(362,773,cs),
(324,773,o),
(287,765,o),
(257,747,cs),
(202,716,o),
(172,681,o),
(169,633,cs),
(164,569,o),
(215,484,o),
(246,443,cs),
(263,419,o),
(259,333,o),
(233,272,cs),
(187,166,o),
(112,118,o),
(71,65,cs),
(57,48,o),
(44,0,o),
(109,0,cs)
);
},
{
closed = 1;
nodes = (
(411,0,ls),
(447,0,o),
(470,17,o),
(470,49,cs),
(469,77,o),
(449,102,o),
(411,102,cs),
(176,102,l),
(133,0,l)
);
}
);
width = 612;
}
);
unicode = 163;
},
{
color = 6;
glyphname = yen;
layers = (
{
layerId = m01;
shapes = (
{
closed = 1;
nodes = (
(238,0,o),
(242,18,o),
(245,30,cs),
(307,383,l),
(557,723,ls),
(563,732,o),
(567,740,o),
(567,747,cs),
(567,760,o),
(552,772,o),
(539,772,cs),
(527,772,o),
(517,769,o),
(508,757,cs),
(266,423,l),
(296,418,l),
(169,748,ls),
(164,762,o),
(153,772,o),
(135,772,cs),
(121,772,o),
(108,760,o),
(108,748,cs),
(108,741,o),
(109,738,o),
(113,728,cs),
(246,384,l),
(184,32,ls),
(181,14,o),
(190,0,o),
(211,0,cs)
);
},
{
closed = 1;
nodes = (
(378,176,ls),
(399,176,o),
(410,190,o),
(410,203,cs),
(410,216,o),
(399,229,o),
(378,229,cs),
(108,229,ls),
(87,229,o),
(76,215,o),
(76,202,cs),
(76,189,o),
(87,176,o),
(108,176,cs)
);
},
{
closed = 1;
nodes = (
(422,355,ls),
(443,355,o),
(454,369,o),
(454,383,cs),
(454,396,o),
(443,409,o),
(422,409,cs),
(152,409,ls),
(131,409,o),
(120,394,o),
(120,381,cs),
(120,368,o),
(131,355,o),
(152,355,cs)
);
}
);
width = 494;
},
{
layerId = "140DECC1-64C4-40C0-9C07-503DBC3F4160";
shapes = (
{
closed = 1;
nodes = (
(276,-2,o),
(292,23,o),
(297,48,cs),
(354,375,l),
(586,683,ls),
(595,696,o),
(600,708,o),
(600,722,cs),
(600,753,o),
(563,772,o),
(542,772,cs),
(523,772,o),
(504,763,o),
(493,747,cs),
(292,470,l),
(321,466,l),
(219,735,ls),
(209,760,o),
(194,772,o),
(169,772,cs),
(134,772,o),
(106,753,o),
(106,728,cs),
(106,716,o),
(108,709,o),
(113,696,cs),
(234,383,l),
(178,58,ls),
(172,25,o),
(197,-2,o),
(235,-2,cs)
);
},
{
closed = 1;
nodes = (
(398,158,ls),
(438,158,o),
(453,187,o),
(453,209,cs),
(453,233,o),
(438,260,o),
(398,260,cs),
(128,260,ls),
(88,260,o),
(74,233,o),
(74,209,cs),
(74,185,o),
(88,158,o),
(128,158,cs)
);
},
{
closed = 1;
nodes = (
(437,314,ls),
(478,314,o),
(492,342,o),
(492,365,cs),
(492,388,o),
(478,416,o),
(437,416,cs),
(168,416,ls),
(127,416,o),
(113,388,o),
(113,365,cs),
(113,341,o),
(127,314,o),
(168,314,cs)
);
}
);
width = 533;
}
);
unicode = 165;
},
{
color = 6;
glyphname = plus;
layers = (
{
layerId = m01;
shapes = (
{
closed = 1;
nodes = (
(251,105,o),
(263,112,o),
(267,131,cs),
(333,393,ls),
(337,415,o),
(324,429,o),
(310,430,cs),
(298,431,o),
(286,423,o),
(280,405,cs),
(216,143,ls),
(211,120,o),
(225,106,o),
(239,105,cs)
);
},
{
closed = 1;
nodes = (
(409,244,ls),
(430,244,o),
(441,258,o),
(441,271,cs),
(441,284,o),
(430,297,o),
(409,297,cs),
(139,297,ls),
(118,297,o),
(107,284,o),
(107,271,cs),
(107,257,o),
(118,244,o),
(139,244,cs)
);
}
);
vertWidth = 0;
width = 506;
},
{
layerId = "140DECC1-64C4-40C0-9C07-503DBC3F4160";
shapes = (
{
closed = 1;
nodes = (
(253,81,o),
(277,90,o),
(285,125,cs),
(349,388,ls),
(359,430,o),
(330,454,o),
(305,454,cs),
(285,454,o),
(259,448,o),
(251,413,cs),
(187,149,l),
(177,103,o),
(207,81,o),
(232,81,cs)
);
},
{
closed = 1;
nodes = (
(400,219,ls),
(441,219,o),
(455,247,o),
(455,270,cs),
(455,293,o),
(441,321,o),
(400,321,cs),
(131,321,ls),
(90,321,o),
(76,293,o),
(76,270,cs),
(76,246,o),
(90,219,o),
(131,219,cs)
);
}
);
vertWidth = 0;
width = 506;
}
);
unicode = 43;
},
{
color = 6;
glyphname = minus;
layers = (
{
layerId = m01;
shapes = (
{
closed = 1;
nodes = (
(411,244,ls),
(432,244,o),
(443,258,o),
(443,271,cs),
(443,284,o),
(432,297,o),
(411,297,cs),
(141,297,ls),
(120,297,o),
(109,284,o),
(109,271,cs),
(109,257,o),
(120,244,o),
(141,244,cs)
);
}
);
vertWidth = 0;
width = 506;
},
{
layerId = "140DECC1-64C4-40C0-9C07-503DBC3F4160";
shapes = (
{
closed = 1;
nodes = (
(400,219,ls),
(441,219,o),
(455,247,o),
(455,270,cs),
(455,293,o),
(441,321,o),
(400,321,cs),
(131,321,ls),
(90,321,o),
(76,293,o),
(76,270,cs),
(76,246,o),
(90,219,o),
(131,219,cs)
);
}
);
vertWidth = 0;
width = 506;
}
);
unicode = 8722;
},
{
color = 6;
glyphname = multiply;
layers = (
{
layerId = m01;
shapes = (
{
closed = 1;
nodes = (
(441,388,ls),
(457,403,o),
(457,418,o),
(447,428,cs),
(436,438,o),
(419,440,o),
(403,425,cs),
(84,146,ls),
(70,134,o),
(70,119,o),
(80,108,cs),
(90,97,o),
(106,94,o),
(125,110,cs)
);
},
{
closed = 1;
nodes = (
(359,94,o),
(374,95,o),
(385,103,cs),
(398,113,o),
(402,127,o),
(390,144,cs),
(185,419,ls),
(172,437,o),
(156,440,o),
(145,431,cs),
(133,422,o),
(129,404,o),
(140,388,cs),
(346,110,ls)
);
}
);
vertWidth = 0;
width = 506;
},
{
layerId = "140DECC1-64C4-40C0-9C07-503DBC3F4160";
shapes = (
{
closed = 1;
nodes = (
(441,356,ls),
(476,388,o),
(466,413,o),
(447,432,cs),
(430,449,o),
(402,457,o),
(372,431,cs),
(87,178,ls),
(59,154,o),
(63,125,o),
(81,106,cs),
(99,87,o),
(124,75,o),
(158,105,cs)
);
},
{
closed = 1;
nodes = (
(346,77,o),
(375,83,o),
(394,97,cs),
(417,114,o),
(426,140,o),
(404,171,c),
(213,421,ls),
(185,457,o),
(156,450,o),
(138,437,cs),
(116,421,o),
(108,388,o),
(128,362,cs),
(321,109,ls)
);
}
);
vertWidth = 0;
width = 506;
}
);
unicode = 215;
},
{
color = 6;
glyphname = divide;
layers = (
{
layerId = m01;
shapes = (
{
closed = 1;
nodes = (
(261,103,o),
(280,122,o),
(280,143,cs),
(280,164,o),
(260,181,o),
(240,181,cs),
(217,181,o),
(203,162,o),
(203,143,cs),
(203,122,o),
(219,103,o),
(240,103,cs)
);
},
{
closed = 1;
nodes = (
(409,244,ls),
(430,244,o),
(441,258,o),
(441,271,cs),
(441,284,o),
(430,297,o),
(409,297,cs),
(139,297,ls),
(118,297,o),
(107,284,o),
(107,271,cs),
(107,258,o),
(118,244,o),
(139,244,cs)
);
},
{
closed = 1;
nodes = (
(326,360,o),
(345,379,o),
(345,399,cs),
(345,419,o),
(326,437,o),
(305,437,cs),
(284,437,o),
(267,418,o),
(267,399,cs),
(267,380,o),
(284,360,o),
(305,360,cs)
);
}
);
vertWidth = 0;
width = 506;
},
{
layerId = "140DECC1-64C4-40C0-9C07-503DBC3F4160";
shapes = (
{
closed = 1;
nodes = (
(271,57,o),
(303,89,o),
(303,126,cs),
(303,160,o),
(271,190,o),
(236,190,cs),
(200,190,o),
(171,160,o),
(171,126,cs),
(171,89,o),
(200,57,o),
(236,57,cs)
);
},
{
closed = 1;
nodes = (
(400,219,ls),
(441,219,o),
(455,247,o),
(455,270,cs),
(455,293,o),
(441,321,o),
(400,321,cs),
(131,321,ls),
(90,321,o),
(76,293,o),
(76,270,cs),
(76,246,o),
(90,219,o),
(131,219,cs)
);
},
{
closed = 1;
nodes = (
(317,349,o),
(349,381,o),
(349,418,cs),
(349,453,o),
(317,482,o),
(283,482,cs),
(246,482,o),
(217,453,o),
(217,418,cs),
(217,381,o),
(246,349,o),
(283,349,cs)
);
}
);
vertWidth = 0;
width = 506;
}
);
unicode = 247;
},
{
color = 6;
glyphname = equal;
layers = (
{
layerId = m01;
shapes = (
{
closed = 1;
nodes = (
(384,153,ls),
(405,153,o),
(416,168,o),
(416,181,cs),
(416,194,o),
(405,207,o),
(384,207,cs),
(114,207,ls),
(93,207,o),
(82,192,o),
(82,179,cs),
(82,166,o),
(93,153,o),
(114,153,cs)
);
},
{
closed = 1;
nodes = (
(428,333,ls),
(449,333,o),
(460,347,o),
(460,360,cs),
(460,373,o),
(449,386,o),
(428,386,cs),
(158,386,ls),
(137,386,o),
(126,372,o),
(126,359,cs),
(126,346,o),
(137,333,o),
(158,333,cs)
);
}
);
vertWidth = 0;
width = 506;
},
{
layerId = "140DECC1-64C4-40C0-9C07-503DBC3F4160";
shapes = (
{
closed = 1;
nodes = (
(374,143,ls),
(415,143,o),
(429,171,o),
(429,194,cs),
(429,217,o),
(415,245,o),
(374,245,cs),
(105,245,ls),
(64,245,o),
(50,217,o),
(50,194,cs),
(50,170,o),
(64,143,o),
(105,143,cs)
);
},
{
closed = 1;
nodes = (
(413,298,ls),
(454,298,o),
(468,327,o),
(468,349,cs),
(468,373,o),
(454,400,o),
(413,400,cs),
(144,400,ls),
(103,400,o),
(89,373,o),
(89,349,cs),
(89,326,o),
(103,298,o),
(144,298,cs)
);
}
);
vertWidth = 0;
width = 506;
}
);
unicode = 61;
},
{
color = 6;
glyphname = notequal;
layers = (
{
layerId = m01;
shapes = (
{
closed = 1;
nodes = (
(384,153,ls),
(405,153,o),
(416,168,o),
(416,181,cs),
(416,194,o),
(405,207,o),
(384,207,cs),
(114,207,ls),
(93,207,o),
(82,192,o),
(82,179,cs),
(82,166,o),
(93,153,o),
(114,153,cs)
);
},
{
closed = 1;
nodes = (
(428,333,ls),
(449,333,o),
(460,347,o),
(460,360,cs),
(460,373,o),
(449,386,o),
(428,386,cs),
(158,386,ls),
(137,386,o),
(126,372,o),
(126,359,cs),
(126,346,o),
(137,333,o),
(158,333,cs)
);
},
{
closed = 1;
nodes = (
(367,402,ls),
(384,430,o),
(367,448,o),
(350,448,cs),
(339,448,o),
(330,443,o),
(322,430,cs),
(157,131,ls),
(146,109,o),
(154,95,o),
(168,89,cs),
(178,84,o),
(195,87,o),
(206,106,cs)
);
}
);
vertWidth = 0;
width = 506;
},
{
layerId = "140DECC1-64C4-40C0-9C07-503DBC3F4160";
shapes = (
{
closed = 1;
nodes = (
(374,143,ls),
(415,143,o),
(429,171,o),
(429,194,cs),
(429,217,o),
(415,245,o),
(374,245,cs),
(105,245,ls),
(64,245,o),
(50,217,o),
(50,194,cs),
(50,170,o),
(64,143,o),
(105,143,cs)
);
},
{
closed = 1;
nodes = (
(413,298,ls),
(454,298,o),
(468,327,o),
(468,349,cs),
(468,373,o),
(454,400,o),
(413,400,cs),
(144,400,ls),
(103,400,o),
(89,373,o),
(89,349,cs),
(89,326,o),
(103,298,o),
(144,298,cs)
);
},
{
closed = 1;
nodes = (
(399,400,ls),
(440,467,o),
(387,484,o),
(360,484,cs),
(340,484,o),
(326,478,o),
(311,455,cs),
(114,132,ls),
(91,95,o),
(114,67,o),
(137,56,cs),
(156,48,o),
(188,51,o),
(207,82,cs)
);
}
);
vertWidth = 0;
width = 506;
}
);
unicode = 8800;
},
{
color = 6;
glyphname = greater;
layers = (
{
guides = (
{
name = " [#GqRMvt6B8x]";
pos = (131,333);
}
);
layerId = m01;
shapes = (
{
closed = 1;
nodes = (
(418,235,ls),
(428,240,o),
(435,249,o),
(435,259,cs),
(435,267,o),
(431,274,o),
(423,282,cs),
(222,430,ls),
(204,443,o),
(189,443,o),
(178,432,cs),
(168,419,o),
(170,402,o),
(188,388,cs),
(384,244,l),
(387,279,l),
(128,165,ls),
(105,154,o),
(100,143,o),
(103,128,cs),
(107,116,o),
(120,105,o),
(143,114,cs)
);
}
);
vertWidth = 0;
width = 506;
},
{
guides = (
{
name = " [#GqRMvt6B8x]";
pos = (131,333);
}
);
layerId = "140DECC1-64C4-40C0-9C07-503DBC3F4160";
shapes = (
{
closed = 1;
nodes = (
(416,216,ls),
(435,223,o),
(447,245,o),
(447,263,cs),
(447,277,o),
(444,292,o),
(426,303,cs),
(226,425,ls),
(192,446,o),
(170,442,o),
(151,423,cs),
(129,402,o),
(128,365,o),
(163,345,cs),
(335,244,l),
(341,293,l),
(120,211,ls),
(77,196,o),
(77,171,o),
(83,149,cs),
(89,126,o),
(109,97,o),
(154,116,cs)
);
}
);
vertWidth = 0;
width = 506;
}
);
unicode = 62;
},
{
color = 6;
glyphname = less;
layers = (
{
layerId = m01;
shapes = (
{
closed = 1;
nodes = (
(348,108,o),
(364,108,o),
(374,119,cs),
(385,132,o),
(383,150,o),
(365,163,cs),
(169,308,l),
(165,272,l),
(424,386,ls),
(448,397,o),
(453,409,o),
(449,423,cs),
(446,435,o),
(432,447,o),
(410,437,c),
(134,316,ls),
(125,311,o),
(118,302,o),
(118,292,cs),
(118,284,o),
(121,277,o),
(129,270,cs),
(330,121,ls)
);
}
);
vertWidth = 0;
width = 506;
},
{
layerId = "140DECC1-64C4-40C0-9C07-503DBC3F4160";
shapes = (
{
closed = 1;
nodes = (
(334,110,o),
(366,112,o),
(383,128,cs),
(405,150,o),
(405,187,o),
(371,207,cs),
(198,308,l),
(192,258,l),
(413,340,ls),
(456,355,o),
(456,380,o),
(450,403,cs),
(444,425,o),
(424,453,o),
(379,435,cs),
(118,335,ls),
(99,328,o),
(87,307,o),
(87,289,cs),
(87,274,o),
(89,259,o),
(107,248,cs),
(308,126,ls)
);
}
);
vertWidth = 0;
width = 506;
}
);
unicode = 60;
},
{
color = 6;
glyphname = greaterequal;
layers = (
{
layerId = m01;
shapes = (
{
closed = 1;
nodes = (
(380,153,ls),
(402,153,o),
(412,166,o),
(412,181,cs),
(412,194,o),
(402,207,o),
(380,207,cs),
(110,207,ls),
(89,207,o),
(78,192,o),
(78,179,cs),
(78,166,o),
(89,153,o),
(110,153,cs)
);
},
{
closed = 1;
nodes = (
(411,278,ls),
(432,278,o),
(443,291,o),
(443,305,cs),
(443,312,o),
(440,321,o),
(432,326,cs),
(211,466,ls),
(192,478,o),
(177,476,o),
(168,465,cs),
(158,451,o),
(162,435,o),
(179,423,cs),
(353,312,l),
(359,331,l),
(141,331,ls),
(120,331,o),
(109,317,o),
(109,304,cs),
(109,291,o),
(120,278,o),
(141,278,cs)
);
}
);
vertWidth = 0;
width = 506;
},
{
layerId = "140DECC1-64C4-40C0-9C07-503DBC3F4160";
shapes = (
{
closed = 1;
nodes = (
(374,126,ls),
(415,126,o),
(429,154,o),
(429,177,cs),
(429,201,o),
(415,228,o),
(374,228,cs),
(105,228,ls),
(64,228,o),
(50,201,o),
(50,177,cs),
(50,153,o),
(64,126,o),
(105,126,cs)
);
},
{
closed = 1;
nodes = (
(384,263,ls),
(423,263,o),
(438,290,o),
(438,314,cs),
(438,329,o),
(432,345,o),
(417,355,cs),
(213,493,ls),
(178,517,o),
(153,505,o),
(138,486,c),
(121,462,o),
(118,430,o),
(154,410,cs),
(272,347,l),
(287,365,l),
(140,365,ls),
(100,365,o),
(84,336,o),
(84,314,c),
(84,291,o),
(99,263,o),
(140,263,cs)
);
}
);
vertWidth = 0;
width = 506;
}
);
unicode = 8805;
},
{
color = 6;
glyphname = lessequal;
layers = (
{
layerId = m01;
shapes = (
{
closed = 1;
nodes = (
(380,153,ls),
(402,153,o),
(412,166,o),
(412,181,cs),
(412,194,o),
(402,207,o),
(380,207,cs),
(110,207,ls),
(89,207,o),
(78,192,o),
(78,179,cs),
(78,166,o),
(89,153,o),
(110,153,cs)
);
},
{
closed = 1;
nodes = (
(411,278,ls),
(432,278,o),
(443,291,o),
(443,305,cs),
(443,318,o),
(432,331,o),
(411,331,cs),
(213,331,l),
(216,315,l),
(425,423,ls),
(444,432,o),
(447,451,o),
(437,465,cs),
(428,476,o),
(413,476,o),
(393,466,cs),
(125,328,ls),
(114,322,o),
(109,314,o),
(109,304,cs),
(109,291,o),
(120,278,o),
(141,278,cs)
);
}
);
vertWidth = 0;
width = 506;
},
{
layerId = "140DECC1-64C4-40C0-9C07-503DBC3F4160";
shapes = (
{
closed = 1;
nodes = (
(364,126,ls),
(404,126,o),
(418,154,o),
(418,177,cs),
(418,201,o),
(404,228,o),
(364,228,cs),
(94,228,ls),
(53,228,o),
(39,201,o),
(39,177,cs),
(39,153,o),
(53,126,o),
(94,126,cs)
);
},
{
closed = 1;
nodes = (
(373,263,ls),
(412,263,o),
(428,290,o),
(428,314,cs),
(428,336,o),
(413,365,o),
(373,365,cs),
(216,365,l),
(229,334,l),
(398,407,ls),
(435,423,o),
(435,461,o),
(417,485,cs),
(402,505,o),
(379,513,o),
(345,494,cs),
(102,359,ls),
(81,347,o),
(74,330,o),
(74,314,cs),
(74,291,o),
(88,263,o),
(128,263,cs)
);
}
);
vertWidth = 0;
width = 506;
}
);
unicode = 8804;
},
{
color = 6;
glyphname = plusminus;
layers = (
{
layerId = m01;
shapes = (
{
closed = 1;
nodes = (
(272,221,o),
(284,228,o),
(289,247,cs),
(328,404,ls),
(334,425,o),
(320,441,o),
(304,441,c),
(293,441,o),
(280,434,o),
(276,416,cs),
(238,259,ls),
(232,236,o),
(246,221,o),
(260,221,cs)
);
},
{
closed = 1;
nodes = (
(417,305,ls),
(438,305,o),
(449,320,o),
(449,333,cs),
(449,346,o),
(438,359,o),
(417,359,cs),
(147,359,ls),
(126,359,o),
(115,346,o),
(115,333,cs),
(115,318,o),
(126,305,o),
(147,305,cs)
);
},
{
closed = 1;
nodes = (
(380,153,ls),
(402,153,o),
(412,168,o),
(412,181,cs),
(412,194,o),
(402,207,o),
(380,207,cs),
(110,207,ls),
(89,207,o),
(78,194,o),
(78,181,cs),
(78,166,o),
(89,153,o),
(110,153,cs)
);
}
);
vertWidth = 0;
width = 506;
},
{
layerId = "140DECC1-64C4-40C0-9C07-503DBC3F4160";
shapes = (
{
closed = 1;
nodes = (
(268,252,o),
(292,261,o),
(301,296,cs),
(365,560,ls),
(374,601,o),
(346,625,o),
(321,625,cs),
(301,625,o),
(274,619,o),
(266,584,cs),
(202,320,l),
(192,274,o),
(222,252,o),
(247,252,cs)
);
},
{
closed = 1;
nodes = (
(416,390,ls),
(456,390,o),
(470,418,o),
(470,441,cs),
(470,465,o),
(456,492,o),
(416,492,cs),
(146,492,ls),
(106,492,o),
(91,465,o),
(91,441,cs),
(91,417,o),
(106,390,o),
(146,390,cs)
);
},
{
closed = 1;
nodes = (
(364,126,ls),
(404,126,o),
(418,154,o),
(418,177,cs),
(418,201,o),
(404,228,o),
(364,228,cs),
(94,228,ls),
(53,228,o),
(39,201,o),
(39,177,cs),
(39,153,o),
(53,126,o),
(94,126,cs)
);
}
);
vertWidth = 0;
width = 506;
}
);
unicode = 177;
},
{
color = 6;
glyphname = approxequal;
layers = (
{
layerId = m01;
shapes = (
{
closed = 1;
nodes = (
(141,164,o),
(163,172,o),
(178,172,cs),
(227,172,o),
(267,139,o),
(312,139,cs),
(343,139,o),
(374,151,o),
(396,159,cs),
(413,166,o),
(422,179,o),
(416,195,cs),
(410,210,o),
(396,215,o),
(377,208,cs),
(359,201,o),
(337,192,o),
(322,192,cs),
(277,192,o),
(236,226,o),
(188,226,cs),
(157,226,o),
(126,214,o),
(105,206,cs),
(87,198,o),
(78,185,o),
(84,170,cs),
(90,154,o),
(105,150,o),
(124,157,cs)
);
},
{
closed = 1;
nodes = (
(187,343,o),
(208,352,o),
(223,352,cs),
(272,352,o),
(312,318,o),
(358,318,cs),
(388,318,o),
(419,330,o),
(441,339,cs),
(459,346,o),
(467,359,o),
(461,374,cs),
(455,390,o),
(441,394,o),
(422,387,cs),
(404,380,o),
(383,372,o),
(367,372,cs),
(322,372,o),
(282,405,o),
(233,405,cs),
(202,405,o),
(171,393,o),
(150,385,cs),
(132,378,o),
(124,365,o),
(129,349,cs),
(135,334,o),
(150,329,o),
(169,336,cs)
);
}
);
vertWidth = 0;
width = 506;
},
{
layerId = "140DECC1-64C4-40C0-9C07-503DBC3F4160";
shapes = (
{
closed = 1;
nodes = (
(147,147,o),
(162,156,o),
(173,156,cs),
(213,156,o),
(254,129,o),
(296,129,cs),
(328,129,o),
(360,138,o),
(384,147,cs),
(421,163,o),
(430,192,o),
(419,217,cs),
(407,244,o),
(383,255,o),
(342,239,cs),
(330,234,o),
(315,228,o),
(304,228,cs),
(263,228,o),
(226,254,o),
(182,254,cs),
(149,254,o),
(116,244,o),
(94,233,cs),
(56,215,o),
(45,187,o),
(57,162,cs),
(69,135,o),
(95,124,o),
(134,141,cs)
);
},
{
closed = 1;
nodes = (
(189,314,o),
(203,322,o),
(215,322,cs),
(254,322,o),
(296,296,o),
(337,296,cs),
(369,296,o),
(402,304,o),
(425,314,cs),
(462,329,o),
(472,359,o),
(461,384,cs),
(449,410,o),
(424,422,o),
(384,405,cs),
(372,400,o),
(356,394,o),
(346,394,cs),
(304,394,o),
(267,421,o),
(223,421,cs),
(190,421,o),
(158,410,o),
(135,399,cs),
(97,381,o),
(87,353,o),
(99,328,cs),
(110,302,o),
(137,290,o),
(176,308,cs)
);
}
);
vertWidth = 0;
width = 506;
}
);
unicode = 8776;
},
{
color = 6;
glyphname = asciitilde;
layers = (
{
layerId = m01;
shapes = (
{
closed = 1;
nodes = (
(364,188,o),
(387,200,o),
(412,210,cs),
(434,220,o),
(443,227,o),
(443,240,cs),
(443,253,o),
(429,277,o),
(409,267,cs),
(386,257,o),
(371,241,o),
(335,241,cs),
(302,241,o),
(251,286,o),
(214,286,cs),
(183,286,o),
(163,276,o),
(141,267,cs),
(120,259,o),
(109,253,o),
(109,240,cs),
(109,226,o),
(121,201,o),
(143,210,cs),
(160,219,o),
(177,233,o),
(204,233,cs),
(241,233,o),
(292,188,o),
(326,188,cs)
);
}
);
width = 506;
},
{
layerId = "140DECC1-64C4-40C0-9C07-503DBC3F4160";
shapes = (
{
closed = 1;
nodes = (
(358,165,o),
(387,179,o),
(409,189,cs),
(442,204,o),
(456,217,o),
(456,241,cs),
(456,274,o),
(418,310,o),
(380,291,cs),
(352,277,o),
(346,268,o),
(323,268,cs),
(303,268,o),
(253,311,o),
(207,311,cs),
(170,311,o),
(144,299,o),
(125,291,cs),
(93,278,o),
(76,265,o),
(76,241,cs),
(76,203,o),
(114,171,o),
(151,189,cs),
(172,200,o),
(182,208,o),
(197,208,cs),
(221,208,o),
(270,165,o),
(314,165,cs)
);
}
);
width = 507;
}
);
unicode = 126;
},
{
color = 6;
glyphname = asciicircum;
layers = (
{
layerId = m01;
shapes = (
{
closed = 1;
nodes = (
(354,486,l),
(304,491,l),
(421,352,ls),
(434,336,o),
(451,339,o),
(462,348,cs),
(474,359,o),
(478,377,o),
(466,391,cs),
(355,522,ls),
(346,533,o),
(326,536,o),
(309,522,cs),
(151,390,ls),
(137,378,o),
(138,361,o),
(147,350,cs),
(158,340,o),
(172,334,o),
(191,349,cs)
);
}
);
vertWidth = 0;
width = 542;
},
{
layerId = "140DECC1-64C4-40C0-9C07-503DBC3F4160";
shapes = (
{
closed = 1;
nodes = (
(327,461,l),
(291,463,l),
(398,337,ls),
(419,311,o),
(448,317,o),
(465,331,cs),
(482,347,o),
(488,375,o),
(469,398,cs),
(350,539,ls),
(335,557,o),
(308,564,o),
(280,542,cs),
(119,406,ls),
(95,386,o),
(99,359,o),
(114,341,c),
(131,324,o),
(153,314,o),
(182,337,cs)
);
}
);
vertWidth = 0;
width = 536;
}
);
unicode = 94;
},
{
color = 6;
glyphname = infinity;
layers = (
{
layerId = m01;
shapes = (
{
closed = 1;
nodes = (
(270,95,o),
(349,152,o),
(424,229,c),
(391,273,l),
(324,208,o),
(254,149,o),
(196,149,cs),
(149,149,o),
(127,201,o),
(144,270,cs),
(162,340,o),
(196,375,o),
(247,375,cs),
(287,375,o),
(330,342,o),
(374,277,cs),
(417,214,ls),
(470,135,o),
(527,95,o),
(583,95,cs),
(675,95,o),
(733,149,o),
(757,255,cs),
(775,334,o),
(750,429,o),
(653,429,cs),
(570,429,o),
(491,372,o),
(416,295,c),
(449,251,l),
(516,316,o),
(586,375,o),
(644,375,cs),
(691,375,o),
(713,323,o),
(696,254,cs),
(678,184,o),
(644,149,o),
(593,149,cs),
(552,149,o),
(510,182,o),
(466,247,cs),
(423,310,ls),
(369,388,o),
(312,429,o),
(257,429,cs),
(165,429,o),
(107,375,o),
(83,268,cs),
(65,190,o),
(90,95,o),
(187,95,cs)
);
}
);
vertWidth = 0;
width = 830;
},
{
layerId = "140DECC1-64C4-40C0-9C07-503DBC3F4160";
shapes = (
{
closed = 1;
nodes = (
(297,83,o),
(383,144,o),
(450,215,c),
(381,292,l),
(334,245,o),
(272,187,o),
(229,187,cs),
(194,187,o),
(179,215,o),
(191,261,cs),
(203,309,o),
(234,337,o),
(272,337,cs),
(296,337,o),
(331,307,o),
(364,258,cs),
(399,206,ls),
(451,129,o),
(518,83,o),
(570,83,cs),
(672,83,o),
(746,147,o),
(767,251,cs),
(797,368,o),
(745,441,o),
(630,441,cs),
(555,441,o),
(469,380,o),
(402,309,c),
(470,232,l),
(518,279,o),
(580,337,o),
(623,337,cs),
(661,337,o),
(672,310,o),
(661,263,cs),
(649,215,o),
(620,187,o),
(580,187,cs),
(550,187,o),
(514,217,o),
(488,266,cs),
(453,330,ls),
(415,398,o),
(348,441,o),
(279,441,cs),
(182,441,o),
(108,377,o),
(84,273,cs),
(57,156,o),
(109,83,o),
(222,83,cs)
);
}
);
vertWidth = 0;
width = 842;
}
);
unicode = 8734;
},
{
color = 6;
glyphname = percent;
layers = (
{
layerId = m01;
shapes = (
{
closed = 1;
nodes = (
(272,513,o),
(352,613,o),
(352,706,cs),
(352,753,o),
(324,777,o),
(271,777,cs),
(192,777,o),
(145,704,o),
(145,588,cs),
(145,542,o),
(165,513,o),
(197,513,cs)
);
},
{
closed = 1;
nodes = (
(197,560,o),
(191,574,o),
(191,596,cs),
(191,678,o),
(221,729,o),
(268,729,cs),
(292,729,o),
(304,719,o),
(304,697,cs),
(304,631,o),
(253,560,o),
(206,560,cs)
);
},
{
closed = 1;
nodes = (
(520,757,o),
(503,772,o),
(485,772,cs),
(472,772,o),
(459,765,o),
(450,745,cs),
(145,37,ls),
(135,14,o),
(152,0,o),
(171,0,cs),
(184,0,o),
(197,7,o),
(204,24,cs),
(510,732,ls)
);
},
{
closed = 1;
nodes = (
(442,-5,o),
(522,95,o),
(522,188,cs),
(522,235,o),
(494,259,o),
(441,259,cs),
(362,259,o),
(315,187,o),
(315,70,cs),
(315,24,o),
(335,-5,o),
(367,-5,cs)
);
},
{
closed = 1;
nodes = (
(367,42,o),
(361,56,o),
(361,78,cs),
(361,160,o),
(391,211,o),
(438,211,cs),
(462,211,o),
(474,201,o),
(474,179,cs),
(474,113,o),
(423,42,o),
(375,42,cs)
);
}
);
vertWidth = 0;
width = 609;
},
{
layerId = "140DECC1-64C4-40C0-9C07-503DBC3F4160";
shapes = (
{
closed = 1;
nodes = (
(311,473,o),
(397,583,o),
(397,685,cs),
(397,743,o),
(356,777,o),
(290,777,cs),
(192,777,o),
(143,707,o),
(143,568,cs),
(143,510,o),
(177,473,o),
(232,473,cs)
);
},
{
closed = 1;
nodes = (
(236,565,o),
(233,575,o),
(233,589,cs),
(233,656,o),
(251,689,o),
(280,689,cs),
(295,689,o),
(301,677,o),
(301,659,cs),
(301,614,o),
(271,565,o),
(244,565,cs)
);
},
{
closed = 1;
nodes = (
(637,741,o),
(600,772,o),
(564,772,cs),
(541,772,o),
(514,759,o),
(501,729,cs),
(216,71,ls),
(198,30,o),
(233,0,o),
(271,0,cs),
(293,0,o),
(320,12,o),
(331,38,cs),
(618,699,ls)
);
},
{
closed = 1;
nodes = (
(631,-5,o),
(716,106,o),
(716,208,cs),
(716,265,o),
(676,299,o),
(609,299,cs),
(512,299,o),
(462,229,o),
(462,90,cs),
(462,32,o),
(497,-5,o),
(551,-5,cs)
);
},
{
closed = 1;
nodes = (
(556,88,o),
(552,97,o),
(552,112,cs),
(552,178,o),
(570,211,o),
(600,211,cs),
(614,211,o),
(620,200,o),
(620,182,cs),
(620,137,o),
(590,88,o),
(563,88,cs)
);
}
);
vertWidth = 0;
width = 802;
}
);
unicode = 37;
},
{
color = 6;
glyphname = grave;
layers = (
{
layerId = m01;
shapes = (
{
closed = 1;
nodes = (
(263,669,o),
(266,681,o),
(259,697,cs),
(209,811,ls),
(202,827,o),
(187,833,o),
(173,833,cs),
(154,833,o),
(137,815,o),
(152,789,cs),
(216,680,ls),
(227,662,o),
(242,658,o),
(253,664,cs)
);
}
);
width = 252;
},
{
layerId = "140DECC1-64C4-40C0-9C07-503DBC3F4160";
shapes = (
{
closed = 1;
nodes = (
(315,630,o),
(318,650,o),
(305,681,cs),
(264,781,ls),
(248,820,o),
(220,832,o),
(188,832,cs),
(154,832,o),
(127,785,o),
(151,748,cs),
(219,644,ls),
(240,612,o),
(270,604,o),
(292,617,cs)
);
}
);
width = 307;
}
);
unicode = 96;
},
{
color = 6;
glyphname = tilde;
layers = (
{
layerId = m01;
shapes = (
{
closed = 1;
nodes = (
(364,558,o),
(387,570,o),
(412,581,cs),
(434,590,o),
(443,598,o),
(443,611,cs),
(443,624,o),
(429,647,o),
(409,638,cs),
(386,627,o),
(371,612,o),
(335,612,cs),
(302,612,o),
(251,657,o),
(214,657,cs),
(183,657,o),
(163,646,o),
(141,638,cs),
(120,630,o),
(109,624,o),
(109,611,cs),
(109,596,o),
(121,571,o),
(143,581,cs),
(160,589,o),
(177,604,o),
(204,604,cs),
(241,604,o),
(292,558,o),
(326,558,cs)
);
}
